<?xml version="1.0" encoding="UTF-8" standalone="no"?>
<svg xmlns="http://www.w3.org/2000/svg" version="1.1" viewBox="768 512 768 512">
<g stroke-width="2.00" fill="none" stroke-linecap="butt">
<path stroke="#808080" vector-effect="non-scaling-stroke" d="
  M 1084.23 550.67
  L 1083.51 558.40
  A 0.56 0.56 0.0 0 0 1084.01 559.01
  L 1094.11 560.17
  A 0.74 0.73 -83.4 0 1 1094.76 560.99
  L 1091.65 588.07
  A 0.81 0.80 6.4 0 0 1092.37 588.96
  L 1100.78 589.93
  A 0.90 0.90 0.0 0 0 1101.77 589.14
  L 1104.87 562.18
  A 1.04 1.03 -84.3 0 1 1105.99 561.26
  L 1116.28 562.22
  A 0.81 0.80 -84.1 0 0 1117.15 561.51
  L 1117.91 554.92
  A 0.85 0.84 -82.6 0 0 1117.20 553.99
  Q 1105.61 552.25 1099.09 551.44
  C 1094.39 550.85 1089.69 551.13 1084.51 550.44
  A 0.25 0.25 0.0 0 0 1084.23 550.67"
/>
<path stroke="#808080" vector-effect="non-scaling-stroke" d="
  M 1065.47 584.02
  C 1066.87 582.09 1066.97 579.93 1066.88 577.51
  C 1066.64 571.79 1066.25 561.98 1063.72 557.74
  C 1058.41 548.83 1044.21 550.18 1036.32 553.89
  Q 1030.53 556.62 1031.20 563.53
  Q 1031.49 566.49 1032.87 576.00
  Q 1033.90 583.05 1036.21 585.70
  C 1041.68 591.97 1050.73 591.04 1058.04 589.28
  Q 1062.42 588.22 1065.47 584.02"
/>
<path stroke="#808080" vector-effect="non-scaling-stroke" d="
  M 1141.46 584.20
  L 1150.57 587.99
  A 1.74 1.73 21.3 0 0 1152.87 586.99
  L 1154.78 581.76
  A 1.42 1.42 0.0 0 0 1153.94 579.94
  L 1144.24 576.39
  A 0.97 0.97 0.0 0 1 1143.74 574.98
  Q 1144.50 573.69 1145.15 571.49
  A 1.30 1.29 -71.8 0 1 1146.84 570.63
  L 1160.45 575.61
  A 1.29 1.29 0.0 0 0 1162.14 574.76
  L 1163.80 569.12
  A 1.66 1.65 -71.5 0 0 1162.80 567.10
  Q 1152.17 563.10 1144.25 560.00
  Q 1141.84 559.06 1139.46 558.93
  A 0.77 0.76 11.2 0 0 1138.70 559.43
  L 1126.03 594.01
  A 1.12 1.12 0.0 0 0 1126.64 595.42
  Q 1138.25 600.42 1150.10 603.95
  A 1.64 1.64 0.0 0 0 1152.13 602.84
  L 1153.69 597.53
  A 1.62 1.62 0.0 0 0 1152.69 595.55
  L 1138.96 590.52
  A 1.25 1.25 0.0 0 1 1138.24 588.87
  L 1139.92 584.83
  A 1.18 1.17 22.5 0 1 1141.46 584.20"
/>
<path stroke="#808080" vector-effect="non-scaling-stroke" d="
  M 1004.33 562.22
  C 998.61 561.48 992.36 563.93 987.20 566.62
  Q 982.41 569.11 981.20 572.20
  Q 979.15 577.42 980.82 581.76
  Q 982.24 585.42 986.37 593.05
  Q 990.17 600.06 991.88 601.37
  C 997.08 605.37 1005.47 602.82 1010.88 600.18
  Q 1022.46 594.51 1017.93 582.55
  C 1015.64 576.50 1011.03 563.08 1004.33 562.22"
/>
<path stroke="#808080" vector-effect="non-scaling-stroke" d="
  M 1187.41 583.36
  C 1186.22 584.34 1185.30 586.57 1184.22 587.96
  Q 1172.67 602.82 1171.46 604.47
  Q 1168.62 608.34 1167.34 610.83
  A 2.43 2.43 0.0 0 0 1167.87 613.74
  Q 1173.91 619.24 1182.51 623.98
  C 1186.35 626.09 1188.75 625.85 1192.75 625.01
  Q 1195.35 624.46 1198.90 620.33
  C 1202.27 616.40 1208.01 610.28 1209.19 605.97
  C 1210.60 600.88 1207.23 596.48 1203.07 593.43
  Q 1191.09 584.64 1189.11 583.28
  A 1.41 1.41 0.0 0 0 1187.41 583.36"
/>
<path stroke="#808080" vector-effect="non-scaling-stroke" d="
  M 965.50 606.26
  C 966.43 603.76 967.20 602.49 966.67 600.03
  C 965.35 593.88 959.34 588.87 952.95 588.99
  C 946.02 589.12 937.41 597.71 932.14 602.56
  A 1.04 1.03 48.8 0 0 932.05 604.00
  L 956.24 632.55
  A 0.86 0.85 48.4 0 0 957.47 632.63
  L 963.73 626.82
  A 1.21 1.20 -44.2 0 0 963.76 625.08
  Q 959.35 620.66 956.55 617.58
  Q 955.53 616.46 956.33 615.56
  C 957.76 613.93 959.14 613.66 961.28 614.47
  Q 963.77 615.41 971.94 618.50
  A 3.44 3.43 -54.6 0 0 975.38 617.91
  L 980.15 613.87
  A 1.34 1.33 37.6 0 0 979.86 611.65
  Q 973.26 608.50 965.79 606.79
  A 0.40 0.40 0.0 0 1 965.50 606.26"
/>
<path stroke="#808080" vector-effect="non-scaling-stroke" d="
  M 1106.77 652.62
  L 1082.40 671.98
  A 0.23 0.23 0.0 0 1 1082.02 671.80
  L 1082.02 657.42
  A 2.33 2.32 -19.3 0 1 1082.90 655.60
  L 1105.91 637.31
  A 2.97 2.94 -19.2 0 0 1107.04 634.99
  L 1107.04 618.37
  A 0.57 0.57 0.0 0 0 1106.09 617.94
  L 1101.25 622.23
  Q 1101.23 622.25 1101.22 622.26
  L 1082.66 637.28
  A 0.18 0.18 0.0 0 1 1082.36 637.14
  L 1082.36 611.70
  A 0.67 0.66 0.0 0 0 1081.69 611.04
  L 1067.71 611.04
  A 0.61 0.61 0.0 0 0 1067.10 611.65
  L 1067.10 637.56
  A 0.51 0.51 0.0 0 1 1066.27 637.95
  Q 1052.28 626.25 1042.24 618.26
  Q 1041.39 617.58 1040.94 618.08
  A 0.51 0.48 67.8 0 0 1040.81 618.42
  L 1041.11 634.05
  A 3.30 3.27 -71.6 0 0 1042.36 636.57
  L 1066.57 655.69
  A 2.83 2.82 19.3 0 1 1067.64 657.90
  L 1067.64 673.19
  A 0.37 0.37 0.0 0 1 1067.04 673.48
  L 1041.94 653.66
  A 0.30 0.29 19.3 0 0 1041.46 653.89
  L 1041.46 670.91
  A 0.70 0.68 20.5 0 0 1041.71 671.44
  L 1073.53 696.57
  A 1.22 1.21 -45.4 0 0 1075.05 696.55
  Q 1089.96 684.39 1104.37 673.86
  Q 1107.05 671.90 1107.69 670.72
  A 3.85 3.83 57.7 0 0 1108.14 668.69
  L 1107.25 652.84
  A 0.30 0.30 0.0 0 0 1106.77 652.62"
/>
<path stroke="#808080" vector-effect="non-scaling-stroke" d="
  M 1138.80 751.18
  L 1119.97 727.46
  A 0.47 0.46 70.5 0 1 1120.33 726.70
  L 1135.47 726.70
  A 0.84 0.84 0.0 0 1 1136.15 727.05
  L 1153.57 750.95
  A 2.65 2.64 -17.9 0 0 1155.71 752.04
  L 1171.55 752.04
  A 0.35 0.35 0.0 0 0 1171.83 751.48
  Q 1165.39 742.73 1156.33 731.23
  Q 1154.69 729.15 1152.23 726.74
  A 0.43 0.42 66.9 0 1 1152.52 726.01
  L 1175.33 726.01
  A 0.76 0.76 0.0 0 0 1176.09 725.25
  L 1176.09 712.59
  A 0.57 0.56 -90.0 0 0 1175.53 712.02
  L 1153.51 712.02
  A 0.29 0.28 -72.2 0 1 1153.28 711.57
  L 1171.42 686.26
  A 0.10 0.09 -71.2 0 0 1171.35 686.11
  Q 1164.01 685.71 1157.52 685.98
  Q 1155.29 686.07 1154.28 687.28
  Q 1148.73 693.91 1137.09 709.85
  Q 1135.72 711.73 1134.18 711.82
  Q 1128.20 712.20 1120.41 711.98
  A 0.34 0.34 0.0 0 1 1120.14 711.44
  L 1137.74 686.88
  A 0.57 0.57 0.0 0 0 1137.28 685.98
  L 1121.74 685.98
  A 2.72 2.72 0.0 0 0 1119.50 687.16
  Q 1111.94 698.18 1103.51 709.33
  C 1101.80 711.58 1099.56 713.99 1097.86 716.42
  C 1096.72 718.05 1096.94 719.71 1097.95 721.07
  Q 1110.76 738.48 1119.56 750.87
  A 2.78 2.77 -17.7 0 0 1121.82 752.03
  L 1138.39 752.03
  A 0.52 0.52 0.0 0 0 1138.80 751.18"
/>
<path stroke="#808080" vector-effect="non-scaling-stroke" d="
  M 1010.80 686.51
  L 1029.01 711.48
  A 0.37 0.37 0.0 0 1 1028.71 712.07
  L 1015.36 712.07
  A 2.07 2.07 0.0 0 1 1013.69 711.22
  L 996.01 686.96
  A 2.47 2.46 71.9 0 0 994.02 685.95
  L 977.35 685.95
  A 0.22 0.22 0.0 0 0 977.17 686.30
  L 995.65 711.66
  A 0.17 0.17 0.0 0 1 995.51 711.93
  L 972.70 711.93
  A 0.30 0.30 0.0 0 0 972.40 712.23
  L 972.40 725.70
  A 0.50 0.50 0.0 0 0 972.90 726.20
  L 995.52 726.20
  A 0.70 0.69 19.0 0 1 996.07 727.32
  L 977.12 751.31
  A 0.42 0.42 0.0 0 0 977.43 751.99
  Q 979.88 752.08 990.79 752.20
  C 992.46 752.22 995.05 752.67 996.05 751.37
  Q 1005.04 739.68 1013.30 727.88
  A 3.00 2.98 17.4 0 1 1015.75 726.61
  L 1029.25 726.61
  A 0.46 0.46 0.0 0 1 1029.60 727.36
  L 1009.43 751.54
  A 0.32 0.32 0.0 0 0 1009.68 752.06
  L 1027.56 752.06
  A 2.84 2.83 -72.1 0 0 1029.86 750.88
  Q 1040.80 735.58 1051.75 721.57
  C 1053.17 719.76 1053.46 718.86 1052.39 716.90
  C 1050.78 713.93 1047.50 711.35 1045.16 708.45
  Q 1034.78 695.56 1028.91 686.73
  A 1.75 1.75 0.0 0 0 1027.46 685.96
  L 1011.08 685.96
  A 0.35 0.35 0.0 0 0 1010.80 686.51"
/>
<path stroke="#808080" vector-effect="non-scaling-stroke" d="
  M 912.58 705.94
  A 1.27 1.27 0.0 0 0 913.25 704.03
  Q 909.94 698.97 904.68 698.18
  C 900.55 697.57 892.89 698.86 890.97 703.45
  C 889.63 706.66 889.05 711.30 891.65 714.15
  C 894.53 717.30 900.81 718.28 903.49 719.23
  C 909.58 721.39 904.95 728.58 899.45 726.53
  C 898.24 726.07 896.94 724.32 896.19 723.53
  A 1.52 1.51 62.6 0 0 894.78 723.08
  L 890.02 724.05
  A 1.46 1.45 73.8 0 0 888.95 726.00
  C 893.54 737.81 915.71 735.37 914.79 721.43
  Q 914.36 715.00 907.43 712.79
  C 905.96 712.32 900.52 711.57 898.66 709.19
  C 895.64 705.35 904.03 702.86 905.66 706.68
  A 1.53 1.52 -20.2 0 0 907.54 707.54
  L 912.58 705.94"
/>
<path stroke="#808080" vector-effect="non-scaling-stroke" d="
  M 932.30 724.89
  Q 934.97 724.90 936.14 725.16
  A 1.24 1.23 87.7 0 1 937.06 726.01
  L 938.81 731.96
  A 1.46 1.46 0.0 0 0 940.21 733.01
  L 945.80 733.01
  A 0.81 0.81 0.0 0 0 946.58 731.97
  L 937.02 699.52
  A 0.45 0.44 -4.6 0 0 936.64 699.20
  Q 934.68 698.97 932.38 698.96
  Q 930.09 698.95 928.13 699.17
  A 0.45 0.44 5.0 0 0 927.74 699.49
  L 917.97 731.88
  A 0.81 0.81 0.0 0 0 918.74 732.92
  L 924.33 732.96
  A 1.46 1.46 0.0 0 0 925.74 731.92
  L 927.53 725.98
  A 1.24 1.23 -87.3 0 1 928.45 725.13
  Q 929.63 724.88 932.30 724.89"
/>
<path stroke="#808080" vector-effect="non-scaling-stroke" d="
  M 1212.81 732.89
  Q 1216.13 732.91 1216.39 732.85
  A 0.37 0.37 0.0 0 0 1216.68 732.50
  L 1216.90 706.23
  A 0.56 0.55 0.3 0 1 1217.46 705.69
  L 1224.57 705.72
  A 0.62 0.62 0.0 0 0 1225.20 705.10
  L 1225.22 699.85
  A 0.73 0.73 0.0 0 0 1224.51 699.11
  Q 1218.90 698.99 1213.05 698.99
  Q 1207.21 698.90 1201.60 698.94
  A 0.73 0.73 0.0 0 0 1200.88 699.67
  L 1200.82 704.92
  A 0.62 0.62 0.0 0 0 1201.44 705.55
  L 1208.55 705.62
  A 0.56 0.55 0.6 0 1 1209.11 706.17
  L 1208.94 732.44
  A 0.37 0.37 0.0 0 0 1209.22 732.80
  Q 1209.48 732.87 1212.81 732.89"
/>
<path stroke="#808080" vector-effect="non-scaling-stroke" d="
  M 1237.99 699.25
  A 0.46 0.46 0.0 0 0 1237.59 699.02
  L 1229.64 699.02
  A 0.46 0.46 0.0 0 0 1229.26 699.73
  L 1239.16 715.39
  A 0.46 0.46 0.0 0 1 1239.16 715.87
  L 1228.98 732.28
  A 0.46 0.46 0.0 0 0 1229.37 732.98
  L 1237.62 732.98
  A 0.46 0.46 0.0 0 0 1238.04 732.72
  L 1243.02 722.66
  A 0.46 0.46 0.0 0 1 1243.82 722.62
  L 1250.22 732.75
  A 0.46 0.46 0.0 0 0 1250.61 732.96
  L 1258.68 732.96
  A 0.46 0.46 0.0 0 0 1259.07 732.25
  L 1248.37 715.33
  A 0.46 0.46 0.0 0 1 1248.37 714.85
  L 1257.76 699.72
  A 0.46 0.46 0.0 0 0 1257.37 699.02
  L 1249.40 699.02
  A 0.46 0.46 0.0 0 0 1248.98 699.28
  L 1244.29 708.75
  A 0.46 0.46 0.0 0 1 1243.48 708.78
  L 1237.99 699.25"
/>
<path stroke="#808080" vector-effect="non-scaling-stroke" d="
  M 1092.21 712.01
  L 1080.40 712.01
  A 1.18 1.18 0.0 0 1 1079.27 711.18
  L 1075.78 700.23
  A 0.82 0.82 0.0 0 0 1074.23 700.20
  L 1070.40 710.66
  A 2.16 2.15 -79.9 0 1 1068.38 712.07
  L 1055.75 712.07
  A 0.75 0.74 -22.9 0 0 1055.23 713.35
  Q 1060.17 718.18 1065.59 721.01
  A 1.26 1.26 0.0 0 1 1066.22 722.48
  L 1063.22 732.69
  A 0.77 0.77 0.0 0 0 1064.30 733.59
  Q 1069.70 730.87 1073.52 726.97
  A 1.30 1.29 -47.5 0 1 1075.29 726.89
  Q 1078.41 729.55 1082.65 732.36
  Q 1083.90 733.19 1084.31 733.17
  A 0.78 0.77 82.2 0 0 1085.01 732.24
  L 1083.01 722.68
  A 1.93 1.91 62.9 0 1 1083.59 720.86
  L 1092.45 712.63
  A 0.36 0.36 0.0 0 0 1092.21 712.01"
/>
<path stroke="#808080" vector-effect="non-scaling-stroke" d="
  M 1109.05 785.53
  L 1108.87 768.62
  A 1.15 1.11 35.8 0 0 1108.80 768.23
  Q 1108.28 766.72 1106.63 765.38
  Q 1100.01 760.00 1078.55 742.77
  C 1076.48 741.11 1075.81 739.55 1073.02 741.94
  Q 1059.34 753.66 1043.17 765.98
  A 3.04 3.03 71.3 0 0 1041.98 768.39
  L 1041.98 784.68
  A 0.27 0.27 0.0 0 0 1042.42 784.89
  L 1067.00 765.37
  A 0.17 0.17 0.0 0 1 1067.28 765.51
  Q 1066.95 769.98 1067.09 777.24
  Q 1067.15 780.24 1064.79 782.04
  Q 1060.53 785.28 1042.96 799.47
  A 2.67 2.66 -19.5 0 0 1041.97 801.54
  L 1041.97 818.34
  A 0.33 0.32 -19.4 0 0 1042.50 818.59
  L 1066.27 799.71
  A 0.44 0.44 0.0 0 1 1066.99 800.05
  L 1066.99 822.79
  A 0.98 0.98 0.0 0 0 1067.97 823.77
  L 1081.47 823.77
  A 0.46 0.46 0.0 0 0 1081.93 823.31
  L 1081.93 798.44
  A 0.42 0.41 23.7 0 1 1082.65 798.16
  Q 1084.76 800.46 1086.16 801.58
  Q 1094.86 808.61 1108.53 819.83
  A 0.40 0.40 0.0 0 0 1109.19 819.52
  L 1109.19 802.91
  A 3.93 3.93 0.0 0 0 1107.69 799.82
  L 1083.06 780.37
  A 2.60 2.59 19.3 0 1 1082.08 778.34
  L 1082.08 765.35
  A 0.38 0.38 0.0 0 1 1082.70 765.05
  L 1108.79 785.66
  A 0.16 0.16 0.0 0 0 1109.05 785.53"
/>
<path stroke="#808080" vector-effect="non-scaling-stroke" d="
  M 936.18 819.88
  Q 936.67 820.15 937.00 819.75
  A 2.50 2.09 -43.7 0 0 937.31 816.99
  Q 936.58 815.93 934.52 814.41
  A 2.03 2.02 58.9 0 0 933.03 814.04
  Q 928.50 814.70 925.68 809.95
  Q 924.19 807.43 925.68 805.82
  C 927.76 803.58 930.81 801.39 933.87 799.12
  Q 937.63 796.32 941.15 800.52
  A 2.98 2.98 0.0 0 1 941.67 803.46
  L 941.00 805.30
  A 1.15 1.11 -52.7 0 0 941.12 806.32
  Q 942.58 808.48 944.91 809.78
  A 1.76 1.76 0.0 0 0 947.10 809.40
  C 950.10 805.96 951.05 802.86 948.79 798.72
  Q 944.54 790.94 936.00 789.28
  Q 933.67 788.82 932.25 789.73
  Q 924.86 794.41 919.52 799.88
  C 915.27 804.24 915.65 809.73 919.05 814.73
  Q 925.01 823.49 934.33 820.68
  Q 934.89 820.51 934.90 820.48
  Q 934.96 820.38 935.26 820.04
  A 0.75 0.74 -54.5 0 1 936.18 819.88"
/>
<path stroke="#808080" vector-effect="non-scaling-stroke" d="
  M 1235.7790 792.3054
  A 5.81 5.52 -147.7 0 0 1237.7404 800.0758
  A 5.81 5.52 -147.7 0 0 1245.6010 798.5146
  A 5.81 5.52 -147.7 0 0 1243.6396 790.7442
  A 5.81 5.52 -147.7 0 0 1235.7790 792.3054"
/>
<path stroke="#808080" vector-effect="non-scaling-stroke" d="
  M 1207.20 818.80
  Q 1210.52 821.45 1211.81 822.16
  Q 1223.82 828.69 1231.53 817.78
  Q 1236.45 810.84 1231.86 804.21
  Q 1230.23 801.86 1223.79 796.70
  Q 1220.48 794.05 1219.18 793.34
  Q 1207.17 786.81 1199.46 797.72
  Q 1194.54 804.66 1199.13 811.28
  Q 1200.76 813.64 1207.20 818.80"
/>
<path stroke="#808080" vector-effect="non-scaling-stroke" d="
  M 938.52 837.54
  A 0.98 0.97 -46.4 0 0 939.80 837.50
  L 947.08 830.75
  A 1.66 1.66 0.0 0 1 949.73 831.31
  C 950.81 833.85 947.35 840.52 946.01 843.43
  A 4.60 4.59 -57.8 0 0 947.24 848.88
  L 948.56 849.98
  A 2.81 2.80 -61.9 0 0 953.05 848.61
  L 956.01 838.55
  A 1.00 0.99 20.4 0 1 957.38 837.93
  C 962.41 840.22 968.12 835.46 970.84 831.29
  C 976.24 823.00 962.74 813.97 957.13 810.31
  A 1.05 1.05 0.0 0 0 955.79 810.48
  C 950.96 815.71 945.57 821.21 939.85 826.04
  Q 936.62 828.78 934.03 832.36
  A 1.18 1.18 0.0 0 0 934.23 833.96
  L 938.52 837.54"
/>
<path stroke="#808080" vector-effect="non-scaling-stroke" d="
  M 1199.14 833.64
  Q 1202.17 838.15 1198.02 841.68
  C 1195.56 843.76 1192.79 843.83 1190.59 841.64
  Q 1187.48 838.54 1182.74 833.16
  A 3.43 3.42 33.9 0 1 1182.07 829.78
  Q 1184.25 823.49 1191.00 825.58
  A 1.32 1.31 32.3 0 0 1192.29 825.29
  L 1196.14 821.72
  A 1.50 1.49 45.6 0 0 1196.16 819.55
  C 1186.49 810.09 1167.39 824.81 1174.72 836.73
  Q 1175.63 838.22 1179.47 842.58
  C 1185.06 848.93 1191.67 853.88 1200.29 849.26
  C 1206.47 845.96 1210.94 839.08 1207.82 832.11
  A 3.53 3.52 74.3 0 0 1204.16 830.05
  L 1200.57 830.50
  A 2.03 2.02 -20.5 0 0 1199.14 833.64"
/>
<path stroke="#808080" vector-effect="non-scaling-stroke" d="
  M 997.37 843.19
  A 1.42 1.40 42.0 0 0 997.25 841.10
  Q 986.93 832.79 981.29 829.78
  A 1.09 1.07 37.2 0 0 980.04 829.94
  Q 977.77 832.07 976.04 834.54
  Q 969.95 843.22 961.47 854.25
  A 1.38 1.37 36.7 0 0 961.76 856.20
  L 976.72 866.92
  A 0.90 0.90 0.0 0 0 977.95 866.74
  L 981.49 862.26
  A 0.57 0.56 -53.2 0 0 981.38 861.45
  L 972.51 855.10
  A 1.64 1.64 0.0 0 1 972.14 852.81
  L 974.43 849.61
  A 0.78 0.77 35.4 0 1 975.52 849.43
  L 983.96 855.48
  A 0.82 0.82 0.0 0 0 985.09 855.29
  L 987.85 851.43
  A 1.08 1.08 0.0 0 0 987.60 849.92
  L 979.69 844.25
  A 0.81 0.79 -54.6 0 1 979.51 843.13
  L 982.26 839.29
  A 0.85 0.84 35.6 0 1 983.44 839.10
  L 992.65 845.70
  A 1.87 1.87 0.0 0 0 995.06 845.50
  L 997.37 843.19"
/>
<path stroke="#808080" vector-effect="non-scaling-stroke" d="
  M 1157.81 847.44
  A 1.52 1.52 0.0 0 0 1157.62 845.33
  Q 1155.37 843.40 1152.24 842.96
  Q 1143.03 841.68 1137.21 849.07
  C 1133.47 853.82 1137.23 861.32 1141.95 863.74
  C 1145.61 865.61 1151.39 862.54 1154.34 862.01
  C 1157.34 861.46 1161.88 864.45 1158.95 867.68
  C 1156.29 870.61 1153.75 870.25 1149.90 868.94
  A 1.70 1.68 -52.3 0 0 1148.41 869.14
  L 1144.64 871.68
  A 1.34 1.34 0.0 0 0 1144.44 873.73
  C 1151.54 880.99 1163.52 876.36 1168.00 868.77
  Q 1169.51 866.21 1168.07 862.65
  C 1165.15 855.39 1159.31 852.87 1152.17 855.28
  Q 1150.28 855.92 1147.49 856.41
  A 2.99 2.99 0.0 0 1 1144.02 853.86
  L 1143.98 853.52
  A 3.16 3.16 0.0 0 1 1146.76 849.96
  C 1150.07 849.59 1155.27 850.61 1157.81 847.44"
/>
<path stroke="#808080" vector-effect="non-scaling-stroke" d="
  M 1005.24 873.33
  A 1.63 1.63 0.0 0 1 1006.30 874.94
  L 1006.06 880.06
  A 1.63 1.63 0.0 0 0 1007.06 881.64
  L 1011.76 883.60
  A 1.63 1.63 0.0 0 0 1014.01 882.24
  L 1016.83 851.86
  A 1.63 1.63 0.0 0 0 1015.83 850.21
  L 1008.38 847.10
  A 1.63 1.63 0.0 0 0 1006.50 847.56
  L 986.47 871.59
  A 1.63 1.63 0.0 0 0 987.09 874.14
  L 991.34 875.91
  A 1.63 1.63 0.0 0 0 993.22 875.45
  L 996.65 871.33
  A 1.63 1.63 0.0 0 1 998.46 870.85
  L 1005.24 873.33"
/>
<path stroke="#808080" vector-effect="non-scaling-stroke" d="
  M 1113.57 870.76
  Q 1113.99 870.50 1114.50 871.01
  Q 1121.45 877.88 1128.98 886.53
  A 1.73 1.73 0.0 0 0 1130.73 887.06
  L 1136.15 885.62
  A 0.72 0.71 75.0 0 0 1136.66 884.73
  L 1127.48 853.58
  A 1.24 1.24 0.0 0 0 1125.97 852.73
  L 1119.98 854.32
  A 0.54 0.54 0.0 0 0 1119.61 855.00
  L 1125.16 872.43
  A 0.11 0.10 -77.2 0 1 1124.99 872.54
  L 1110.52 858.06
  A 3.04 3.03 -25.6 0 0 1108.07 857.20
  Q 1104.93 857.53 1102.74 858.87
  A 0.93 0.92 66.8 0 0 1102.33 859.90
  L 1110.23 889.61
  A 1.84 1.83 -8.8 0 0 1112.09 890.97
  Q 1115.07 890.83 1117.74 889.72
  A 1.27 1.26 70.9 0 0 1118.47 888.20
  L 1113.52 870.87
  A 0.10 0.09 -23.6 0 1 1113.57 870.76"
/>
<path stroke="#808080" vector-effect="non-scaling-stroke" d="
  M 1026.47 852.90
  A 1.01 1.01 0.0 0 0 1025.24 853.63
  L 1023.94 858.65
  A 1.01 1.01 0.0 0 0 1024.70 859.89
  L 1031.94 861.51
  A 1.01 1.01 0.0 0 1 1032.70 862.75
  L 1026.26 887.71
  A 1.01 1.01 0.0 0 0 1026.99 888.94
  L 1033.13 890.53
  A 1.01 1.01 0.0 0 0 1034.37 889.77
  L 1040.05 864.43
  A 1.01 1.01 0.0 0 1 1041.26 863.66
  L 1048.22 865.23
  A 1.01 1.01 0.0 0 0 1049.43 864.46
  L 1050.42 860.10
  A 1.01 1.01 0.0 0 0 1049.68 858.90
  L 1026.47 852.90"
/>
<path stroke="#808080" vector-effect="non-scaling-stroke" d="
  M 1063.0402 861.3647
  A 0.99 0.99 0.0 0 0 1062.1235 860.3064
  L 1056.1788 859.8803
  A 0.99 0.99 0.0 0 0 1055.1205 860.7970
  L 1052.8398 892.6153
  A 0.99 0.99 0.0 0 0 1053.7565 893.6736
  L 1059.7012 894.0997
  A 0.99 0.99 0.0 0 0 1060.7595 893.1830
  L 1063.0402 861.3647"
/>
<path stroke="#808080" vector-effect="non-scaling-stroke" d="
  M 1071.05 864.20
  Q 1069.98 867.68 1070.09 871.00
  Q 1070.24 875.77 1070.90 884.14
  C 1071.28 888.97 1072.61 892.57 1077.24 893.86
  C 1084.39 895.87 1098.34 895.26 1098.53 884.28
  C 1098.64 878.09 1098.43 870.22 1095.93 864.62
  C 1094.62 861.69 1090.68 861.06 1087.76 860.82
  C 1082.13 860.37 1076.57 860.40 1071.80 863.25
  A 1.67 1.67 0.0 0 0 1071.05 864.20"
/>
<path stroke="#808080" vector-effect="non-scaling-stroke" d="
  M 1042.01 563.29
  Q 1042.02 566.68 1043.02 574.17
  C 1043.53 578.01 1043.44 581.55 1048.20 581.28
  C 1051.87 581.07 1057.44 581.76 1056.90 576.50
  C 1056.33 571.03 1056.21 564.57 1054.42 562.30
  A 2.60 2.33 84.3 0 0 1053.82 561.75
  Q 1049.54 558.96 1043.19 561.53
  A 1.89 1.88 -11.2 0 0 1042.01 563.29"
/>
<path stroke="#808080" vector-effect="non-scaling-stroke" d="
  M 1006.21 592.23
  A 4.66 4.66 0.0 0 0 1008.71 586.13
  L 1003.91 574.66
  A 4.66 4.66 0.0 0 0 998.19 572.02
  L 993.49 573.51
  A 4.66 4.66 0.0 0 0 990.87 580.28
  L 997.36 591.52
  A 4.66 4.66 0.0 0 0 1003.19 593.49
  L 1006.21 592.23"
/>
<path stroke="#808080" vector-effect="non-scaling-stroke" d="
  M 1191.37 595.38
  L 1179.41 610.30
  A 0.30 0.30 0.0 0 0 1179.46 610.72
  L 1185.16 615.29
  A 4.38 4.24 -51.3 0 0 1191.20 614.52
  L 1198.06 605.96
  A 4.38 4.24 -51.3 0 0 1197.49 599.90
  L 1191.79 595.33
  A 0.30 0.30 0.0 0 0 1191.37 595.38"
/>
<path stroke="#808080" vector-effect="non-scaling-stroke" d="
  M 945.51 605.02
  L 949.84 609.59
  A 1.56 1.56 0.0 0 0 952.05 609.65
  L 955.50 606.37
  A 4.42 4.01 -43.5 0 0 955.95 600.42
  L 954.98 599.41
  A 4.42 4.01 -43.5 0 0 949.02 599.54
  L 945.56 602.82
  A 1.56 1.56 0.0 0 0 945.51 605.02"
/>
<path stroke="#808080" vector-effect="non-scaling-stroke" d="
  M 929.24 718.41
  A 0.49 0.49 0.0 0 0 929.73 719.01
  L 934.99 718.94
  A 0.49 0.49 0.0 0 0 935.46 718.32
  L 932.68 708.24
  A 0.49 0.49 0.0 0 0 931.73 708.25
  L 929.24 718.41"
/>
<path stroke="#808080" vector-effect="non-scaling-stroke" d="
  M 1210.73 799.53
  C 1207.50 800.72 1204.33 803.52 1207.38 806.82
  Q 1210.54 810.23 1216.64 814.87
  C 1221.41 818.50 1227.38 812.54 1223.79 808.24
  Q 1219.16 802.66 1212.05 799.57
  A 1.81 1.79 -43.0 0 0 1210.73 799.53"
/>
<path stroke="#808080" vector-effect="non-scaling-stroke" d="
  M 957.10 821.36
  L 953.74 824.59
  A 1.86 1.86 0.0 0 0 953.69 827.22
  L 956.10 829.73
  A 3.86 3.78 46.1 0 0 961.50 829.89
  L 962.10 829.32
  A 3.86 3.78 46.1 0 0 962.14 823.92
  L 959.73 821.41
  A 1.86 1.86 0.0 0 0 957.10 821.36"
/>
<path stroke="#808080" vector-effect="non-scaling-stroke" d="
  M 1009.22 856.83
  A 0.39 0.39 0.0 0 0 1008.53 856.56
  L 1002.26 864.49
  A 0.65 0.65 0.0 0 0 1002.55 865.50
  L 1007.70 867.39
  A 0.61 0.60 12.1 0 0 1008.51 866.87
  L 1009.22 856.83"
/>
<path stroke="#808080" vector-effect="non-scaling-stroke" d="
  M 1089.4747 871.1648
  A 4.34 4.34 0.0 0 0 1084.8495 867.1300
  L 1081.8166 867.3368
  A 4.34 4.34 0.0 0 0 1077.7818 871.9619
  L 1078.5653 883.4552
  A 4.34 4.34 0.0 0 0 1083.1905 887.4900
  L 1086.2234 887.2832
  A 4.34 4.34 0.0 0 0 1090.2582 882.6581
  L 1089.4747 871.1648"
/>
<path fill="#000000" d="
  M 1063.51 938.45
  Q 1052.49 937.84 1035.64 935.04
  Q 1021.20 932.63 1008.33 928.73
  Q 984.69 921.58 963.90 910.36
  Q 958.41 907.39 946.61 899.78
  Q 937.44 893.85 930.10 887.98
  Q 914.71 875.66 900.92 860.31
  Q 886.51 844.25 876.08 825.38
  Q 856.59 790.10 851.56 749.75
  Q 850.99 745.17 850.94 741.61
  C 850.89 737.97 850.11 734.50 850.11 730.79
  Q 850.11 713.08 852.03 699.25
  Q 852.96 692.60 855.08 682.70
  Q 856.89 674.28 859.32 666.40
  Q 870.49 630.22 894.19 599.77
  C 903.58 587.70 913.96 576.45 925.86 566.86
  Q 937.03 557.85 950.06 549.61
  Q 975.04 533.80 1007.30 524.81
  Q 1022.11 520.68 1030.50 519.85
  C 1031.39 519.76 1032.86 519.30 1034.28 519.10
  Q 1056.16 515.89 1080.00 516.66
  C 1087.85 516.91 1093.46 516.86 1100.31 517.76
  Q 1114.53 519.63 1125.77 521.72
  Q 1135.69 523.56 1146.43 527.12
  Q 1173.05 535.94 1195.38 549.89
  Q 1210.73 559.47 1226.70 573.71
  Q 1241.46 586.86 1253.47 602.53
  Q 1268.39 621.98 1278.13 641.83
  Q 1290.82 667.68 1296.68 698.36
  C 1297.02 700.12 1296.93 702.18 1297.65 703.89
  A 3.32 3.28 -57.0 0 1 1297.90 705.10
  Q 1297.92 707.72 1298.34 709.72
  C 1299.17 713.60 1298.82 716.24 1299.56 719.99
  Q 1299.97 722.09 1300.03 725.66
  Q 1300.38 747.97 1298.61 760.70
  Q 1291.63 811.02 1262.66 851.47
  Q 1248.84 870.76 1232.82 884.32
  C 1229.44 887.19 1225.94 890.48 1221.99 893.47
  Q 1198.25 911.48 1171.67 922.62
  Q 1167.61 924.32 1156.03 928.29
  Q 1147.88 931.09 1140.04 932.80
  Q 1102.95 940.91 1064.50 938.38
  Q 1064.26 938.36 1064.02 938.42
  Q 1063.81 938.46 1063.51 938.45
  Z
  M 983.59 543.32
  Q 981.95 544.07 973.97 547.74
  Q 964.70 552.00 955.26 558.27
  Q 942.88 566.49 938.59 569.84
  Q 934.55 572.99 924.31 582.20
  Q 916.55 589.18 910.96 595.56
  Q 896.78 611.75 885.72 630.74
  Q 880.95 638.93 876.83 649.11
  C 870.74 664.18 865.91 678.27 863.56 693.57
  Q 861.64 706.04 861.09 714.51
  Q 860.72 720.21 860.99 735.43
  C 861.08 740.20 862.03 744.27 862.27 749.25
  Q 862.27 749.32 862.63 751.75
  Q 864.66 765.44 866.91 773.78
  C 870.62 787.58 875.44 801.53 881.87 813.93
  Q 898.13 845.29 923.13 868.39
  Q 936.69 880.93 953.33 891.91
  Q 982.28 911.02 1015.52 919.96
  Q 1031.39 924.22 1053.98 927.21
  Q 1058.42 927.80 1063.11 928.04
  Q 1067.81 928.28 1067.88 928.28
  Q 1090.90 930.30 1114.60 926.49
  Q 1117.00 926.11 1120.49 925.80
  Q 1126.06 925.30 1139.42 921.82
  Q 1151.41 918.70 1165.24 913.48
  Q 1177.47 908.86 1189.82 902.03
  Q 1216.24 887.41 1236.92 865.70
  Q 1242.33 860.02 1246.72 854.44
  Q 1254.28 844.83 1255.78 842.56
  Q 1262.91 831.77 1264.89 828.17
  Q 1269.91 819.03 1274.79 808.05
  Q 1279.61 797.21 1282.63 785.68
  Q 1286.99 768.98 1288.58 753.94
  Q 1289.66 743.70 1289.48 730.32
  Q 1289.33 718.83 1287.51 706.77
  Q 1283.40 679.65 1273.00 655.50
  Q 1266.07 639.43 1256.42 623.96
  C 1252.20 617.20 1245.61 608.68 1241.33 603.45
  Q 1233.51 593.91 1223.08 583.69
  C 1219.44 580.13 1215.15 577.07 1211.74 574.10
  Q 1207.11 570.08 1203.04 567.17
  Q 1188.77 556.94 1174.79 549.74
  Q 1159.08 541.64 1136.89 534.82
  Q 1127.57 531.96 1116.87 530.09
  Q 1103.67 527.78 1096.50 527.07
  Q 1081.48 525.60 1062.01 526.12
  Q 1057.17 526.25 1045.50 527.69
  Q 1044.07 527.87 1041.50 527.93
  Q 1041.01 527.94 1037.54 528.48
  Q 1033.17 529.15 1026.77 530.54
  Q 1024.68 530.99 1022.77 531.11
  A 5.53 4.72 -38.4 0 0 1022.03 531.22
  Q 1007.72 534.71 993.41 539.44
  Q 988.33 541.11 983.59 543.32
  Z"
/>
<path fill="#000000" d="
  M 976.66 896.25
  Q 974.09 895.00 964.82 889.47
  C 950.45 880.91 936.66 870.09 924.34 857.81
  Q 921.96 855.43 918.52 851.41
  Q 918.42 851.29 912.86 844.92
  Q 893.23 822.43 882.08 792.45
  Q 878.20 782.03 876.03 773.74
  Q 873.56 764.30 872.42 757.11
  C 871.55 751.61 870.19 743.54 869.91 736.93
  C 869.56 728.92 869.11 724.80 869.61 717.21
  Q 869.91 712.65 870.11 707.02
  A 3.63 3.51 -36.5 0 1 870.28 706.00
  Q 870.70 704.65 870.78 704.06
  Q 872.46 692.24 875.83 678.13
  Q 876.50 675.34 878.63 669.12
  Q 881.43 660.98 881.71 660.21
  Q 890.21 637.27 904.72 617.35
  Q 952.01 552.46 1031.43 538.01
  Q 1047.12 535.15 1058.78 534.98
  Q 1061.88 534.93 1068.28 534.54
  C 1076.79 534.02 1083.65 534.65 1094.47 535.33
  Q 1106.22 536.07 1126.77 540.89
  C 1129.50 541.53 1133.86 543.25 1137.51 544.19
  Q 1146.12 546.39 1155.14 550.15
  Q 1182.19 561.44 1203.67 578.58
  Q 1224.76 595.42 1242.40 619.06
  Q 1258.59 640.75 1269.00 668.75
  Q 1269.75 670.75 1273.22 681.49
  Q 1274.72 686.14 1275.47 690.51
  C 1276.17 694.53 1277.56 698.31 1278.12 702.64
  Q 1280.08 717.71 1280.32 724.50
  Q 1280.59 732.07 1279.92 749.67
  C 1279.80 752.93 1278.97 755.75 1278.94 759.09
  A 5.06 5.00 -36.9 0 1 1278.72 760.56
  Q 1278.34 761.81 1278.01 763.98
  Q 1273.33 795.27 1257.97 822.72
  Q 1238.57 857.40 1207.09 880.64
  Q 1199.13 886.51 1188.74 892.41
  Q 1175.10 900.14 1169.54 902.67
  Q 1168.60 903.10 1167.81 903.11
  A 2.24 2.11 30.7 0 0 1166.87 903.32
  Q 1158.59 907.25 1145.89 911.40
  C 1144.49 911.86 1143.01 911.96 1142.08 912.32
  Q 1138.08 913.86 1123.91 916.41
  Q 1120.49 917.03 1120.17 917.03
  C 1117.06 916.99 1115.81 917.89 1112.66 917.96
  C 1108.19 918.06 1100.78 919.73 1094.99 919.90
  Q 1080.92 920.30 1064.69 919.89
  A 7.04 6.63 50.8 0 1 1063.32 919.71
  C 1059.49 918.81 1055.54 919.05 1051.72 918.50
  Q 1041.32 916.98 1026.74 914.13
  Q 1015.13 911.87 1006.27 908.67
  Q 992.26 903.63 986.47 901.01
  Q 985.67 900.65 976.66 896.25
  Z
  M 1084.23 550.67
  L 1083.51 558.40
  A 0.56 0.56 0.0 0 0 1084.01 559.01
  L 1094.11 560.17
  A 0.74 0.73 -83.4 0 1 1094.76 560.99
  L 1091.65 588.07
  A 0.81 0.80 6.4 0 0 1092.37 588.96
  L 1100.78 589.93
  A 0.90 0.90 0.0 0 0 1101.77 589.14
  L 1104.87 562.18
  A 1.04 1.03 -84.3 0 1 1105.99 561.26
  L 1116.28 562.22
  A 0.81 0.80 -84.1 0 0 1117.15 561.51
  L 1117.91 554.92
  A 0.85 0.84 -82.6 0 0 1117.20 553.99
  Q 1105.61 552.25 1099.09 551.44
  C 1094.39 550.85 1089.69 551.13 1084.51 550.44
  A 0.25 0.25 0.0 0 0 1084.23 550.67
  Z
  M 1065.47 584.02
  C 1066.87 582.09 1066.97 579.93 1066.88 577.51
  C 1066.64 571.79 1066.25 561.98 1063.72 557.74
  C 1058.41 548.83 1044.21 550.18 1036.32 553.89
  Q 1030.53 556.62 1031.20 563.53
  Q 1031.49 566.49 1032.87 576.00
  Q 1033.90 583.05 1036.21 585.70
  C 1041.68 591.97 1050.73 591.04 1058.04 589.28
  Q 1062.42 588.22 1065.47 584.02
  Z
  M 1141.46 584.20
  L 1150.57 587.99
  A 1.74 1.73 21.3 0 0 1152.87 586.99
  L 1154.78 581.76
  A 1.42 1.42 0.0 0 0 1153.94 579.94
  L 1144.24 576.39
  A 0.97 0.97 0.0 0 1 1143.74 574.98
  Q 1144.50 573.69 1145.15 571.49
  A 1.30 1.29 -71.8 0 1 1146.84 570.63
  L 1160.45 575.61
  A 1.29 1.29 0.0 0 0 1162.14 574.76
  L 1163.80 569.12
  A 1.66 1.65 -71.5 0 0 1162.80 567.10
  Q 1152.17 563.10 1144.25 560.00
  Q 1141.84 559.06 1139.46 558.93
  A 0.77 0.76 11.2 0 0 1138.70 559.43
  L 1126.03 594.01
  A 1.12 1.12 0.0 0 0 1126.64 595.42
  Q 1138.25 600.42 1150.10 603.95
  A 1.64 1.64 0.0 0 0 1152.13 602.84
  L 1153.69 597.53
  A 1.62 1.62 0.0 0 0 1152.69 595.55
  L 1138.96 590.52
  A 1.25 1.25 0.0 0 1 1138.24 588.87
  L 1139.92 584.83
  A 1.18 1.17 22.5 0 1 1141.46 584.20
  Z
  M 1004.33 562.22
  C 998.61 561.48 992.36 563.93 987.20 566.62
  Q 982.41 569.11 981.20 572.20
  Q 979.15 577.42 980.82 581.76
  Q 982.24 585.42 986.37 593.05
  Q 990.17 600.06 991.88 601.37
  C 997.08 605.37 1005.47 602.82 1010.88 600.18
  Q 1022.46 594.51 1017.93 582.55
  C 1015.64 576.50 1011.03 563.08 1004.33 562.22
  Z
  M 1187.41 583.36
  C 1186.22 584.34 1185.30 586.57 1184.22 587.96
  Q 1172.67 602.82 1171.46 604.47
  Q 1168.62 608.34 1167.34 610.83
  A 2.43 2.43 0.0 0 0 1167.87 613.74
  Q 1173.91 619.24 1182.51 623.98
  C 1186.35 626.09 1188.75 625.85 1192.75 625.01
  Q 1195.35 624.46 1198.90 620.33
  C 1202.27 616.40 1208.01 610.28 1209.19 605.97
  C 1210.60 600.88 1207.23 596.48 1203.07 593.43
  Q 1191.09 584.64 1189.11 583.28
  A 1.41 1.41 0.0 0 0 1187.41 583.36
  Z
  M 965.50 606.26
  C 966.43 603.76 967.20 602.49 966.67 600.03
  C 965.35 593.88 959.34 588.87 952.95 588.99
  C 946.02 589.12 937.41 597.71 932.14 602.56
  A 1.04 1.03 48.8 0 0 932.05 604.00
  L 956.24 632.55
  A 0.86 0.85 48.4 0 0 957.47 632.63
  L 963.73 626.82
  A 1.21 1.20 -44.2 0 0 963.76 625.08
  Q 959.35 620.66 956.55 617.58
  Q 955.53 616.46 956.33 615.56
  C 957.76 613.93 959.14 613.66 961.28 614.47
  Q 963.77 615.41 971.94 618.50
  A 3.44 3.43 -54.6 0 0 975.38 617.91
  L 980.15 613.87
  A 1.34 1.33 37.6 0 0 979.86 611.65
  Q 973.26 608.50 965.79 606.79
  A 0.40 0.40 0.0 0 1 965.50 606.26
  Z
  M 1106.77 652.62
  L 1082.40 671.98
  A 0.23 0.23 0.0 0 1 1082.02 671.80
  L 1082.02 657.42
  A 2.33 2.32 -19.3 0 1 1082.90 655.60
  L 1105.91 637.31
  A 2.97 2.94 -19.2 0 0 1107.04 634.99
  L 1107.04 618.37
  A 0.57 0.57 0.0 0 0 1106.09 617.94
  L 1101.25 622.23
  Q 1101.23 622.25 1101.22 622.26
  L 1082.66 637.28
  A 0.18 0.18 0.0 0 1 1082.36 637.14
  L 1082.36 611.70
  A 0.67 0.66 0.0 0 0 1081.69 611.04
  L 1067.71 611.04
  A 0.61 0.61 0.0 0 0 1067.10 611.65
  L 1067.10 637.56
  A 0.51 0.51 0.0 0 1 1066.27 637.95
  Q 1052.28 626.25 1042.24 618.26
  Q 1041.39 617.58 1040.94 618.08
  A 0.51 0.48 67.8 0 0 1040.81 618.42
  L 1041.11 634.05
  A 3.30 3.27 -71.6 0 0 1042.36 636.57
  L 1066.57 655.69
  A 2.83 2.82 19.3 0 1 1067.64 657.90
  L 1067.64 673.19
  A 0.37 0.37 0.0 0 1 1067.04 673.48
  L 1041.94 653.66
  A 0.30 0.29 19.3 0 0 1041.46 653.89
  L 1041.46 670.91
  A 0.70 0.68 20.5 0 0 1041.71 671.44
  L 1073.53 696.57
  A 1.22 1.21 -45.4 0 0 1075.05 696.55
  Q 1089.96 684.39 1104.37 673.86
  Q 1107.05 671.90 1107.69 670.72
  A 3.85 3.83 57.7 0 0 1108.14 668.69
  L 1107.25 652.84
  A 0.30 0.30 0.0 0 0 1106.77 652.62
  Z
  M 1138.80 751.18
  L 1119.97 727.46
  A 0.47 0.46 70.5 0 1 1120.33 726.70
  L 1135.47 726.70
  A 0.84 0.84 0.0 0 1 1136.15 727.05
  L 1153.57 750.95
  A 2.65 2.64 -17.9 0 0 1155.71 752.04
  L 1171.55 752.04
  A 0.35 0.35 0.0 0 0 1171.83 751.48
  Q 1165.39 742.73 1156.33 731.23
  Q 1154.69 729.15 1152.23 726.74
  A 0.43 0.42 66.9 0 1 1152.52 726.01
  L 1175.33 726.01
  A 0.76 0.76 0.0 0 0 1176.09 725.25
  L 1176.09 712.59
  A 0.57 0.56 -90.0 0 0 1175.53 712.02
  L 1153.51 712.02
  A 0.29 0.28 -72.2 0 1 1153.28 711.57
  L 1171.42 686.26
  A 0.10 0.09 -71.2 0 0 1171.35 686.11
  Q 1164.01 685.71 1157.52 685.98
  Q 1155.29 686.07 1154.28 687.28
  Q 1148.73 693.91 1137.09 709.85
  Q 1135.72 711.73 1134.18 711.82
  Q 1128.20 712.20 1120.41 711.98
  A 0.34 0.34 0.0 0 1 1120.14 711.44
  L 1137.74 686.88
  A 0.57 0.57 0.0 0 0 1137.28 685.98
  L 1121.74 685.98
  A 2.72 2.72 0.0 0 0 1119.50 687.16
  Q 1111.94 698.18 1103.51 709.33
  C 1101.80 711.58 1099.56 713.99 1097.86 716.42
  C 1096.72 718.05 1096.94 719.71 1097.95 721.07
  Q 1110.76 738.48 1119.56 750.87
  A 2.78 2.77 -17.7 0 0 1121.82 752.03
  L 1138.39 752.03
  A 0.52 0.52 0.0 0 0 1138.80 751.18
  Z
  M 1010.80 686.51
  L 1029.01 711.48
  A 0.37 0.37 0.0 0 1 1028.71 712.07
  L 1015.36 712.07
  A 2.07 2.07 0.0 0 1 1013.69 711.22
  L 996.01 686.96
  A 2.47 2.46 71.9 0 0 994.02 685.95
  L 977.35 685.95
  A 0.22 0.22 0.0 0 0 977.17 686.30
  L 995.65 711.66
  A 0.17 0.17 0.0 0 1 995.51 711.93
  L 972.70 711.93
  A 0.30 0.30 0.0 0 0 972.40 712.23
  L 972.40 725.70
  A 0.50 0.50 0.0 0 0 972.90 726.20
  L 995.52 726.20
  A 0.70 0.69 19.0 0 1 996.07 727.32
  L 977.12 751.31
  A 0.42 0.42 0.0 0 0 977.43 751.99
  Q 979.88 752.08 990.79 752.20
  C 992.46 752.22 995.05 752.67 996.05 751.37
  Q 1005.04 739.68 1013.30 727.88
  A 3.00 2.98 17.4 0 1 1015.75 726.61
  L 1029.25 726.61
  A 0.46 0.46 0.0 0 1 1029.60 727.36
  L 1009.43 751.54
  A 0.32 0.32 0.0 0 0 1009.68 752.06
  L 1027.56 752.06
  A 2.84 2.83 -72.1 0 0 1029.86 750.88
  Q 1040.80 735.58 1051.75 721.57
  C 1053.17 719.76 1053.46 718.86 1052.39 716.90
  C 1050.78 713.93 1047.50 711.35 1045.16 708.45
  Q 1034.78 695.56 1028.91 686.73
  A 1.75 1.75 0.0 0 0 1027.46 685.96
  L 1011.08 685.96
  A 0.35 0.35 0.0 0 0 1010.80 686.51
  Z
  M 912.58 705.94
  A 1.27 1.27 0.0 0 0 913.25 704.03
  Q 909.94 698.97 904.68 698.18
  C 900.55 697.57 892.89 698.86 890.97 703.45
  C 889.63 706.66 889.05 711.30 891.65 714.15
  C 894.53 717.30 900.81 718.28 903.49 719.23
  C 909.58 721.39 904.95 728.58 899.45 726.53
  C 898.24 726.07 896.94 724.32 896.19 723.53
  A 1.52 1.51 62.6 0 0 894.78 723.08
  L 890.02 724.05
  A 1.46 1.45 73.8 0 0 888.95 726.00
  C 893.54 737.81 915.71 735.37 914.79 721.43
  Q 914.36 715.00 907.43 712.79
  C 905.96 712.32 900.52 711.57 898.66 709.19
  C 895.64 705.35 904.03 702.86 905.66 706.68
  A 1.53 1.52 -20.2 0 0 907.54 707.54
  L 912.58 705.94
  Z
  M 932.30 724.89
  Q 934.97 724.90 936.14 725.16
  A 1.24 1.23 87.7 0 1 937.06 726.01
  L 938.81 731.96
  A 1.46 1.46 0.0 0 0 940.21 733.01
  L 945.80 733.01
  A 0.81 0.81 0.0 0 0 946.58 731.97
  L 937.02 699.52
  A 0.45 0.44 -4.6 0 0 936.64 699.20
  Q 934.68 698.97 932.38 698.96
  Q 930.09 698.95 928.13 699.17
  A 0.45 0.44 5.0 0 0 927.74 699.49
  L 917.97 731.88
  A 0.81 0.81 0.0 0 0 918.74 732.92
  L 924.33 732.96
  A 1.46 1.46 0.0 0 0 925.74 731.92
  L 927.53 725.98
  A 1.24 1.23 -87.3 0 1 928.45 725.13
  Q 929.63 724.88 932.30 724.89
  Z
  M 1212.81 732.89
  Q 1216.13 732.91 1216.39 732.85
  A 0.37 0.37 0.0 0 0 1216.68 732.50
  L 1216.90 706.23
  A 0.56 0.55 0.3 0 1 1217.46 705.69
  L 1224.57 705.72
  A 0.62 0.62 0.0 0 0 1225.20 705.10
  L 1225.22 699.85
  A 0.73 0.73 0.0 0 0 1224.51 699.11
  Q 1218.90 698.99 1213.05 698.99
  Q 1207.21 698.90 1201.60 698.94
  A 0.73 0.73 0.0 0 0 1200.88 699.67
  L 1200.82 704.92
  A 0.62 0.62 0.0 0 0 1201.44 705.55
  L 1208.55 705.62
  A 0.56 0.55 0.6 0 1 1209.11 706.17
  L 1208.94 732.44
  A 0.37 0.37 0.0 0 0 1209.22 732.80
  Q 1209.48 732.87 1212.81 732.89
  Z
  M 1237.99 699.25
  A 0.46 0.46 0.0 0 0 1237.59 699.02
  L 1229.64 699.02
  A 0.46 0.46 0.0 0 0 1229.26 699.73
  L 1239.16 715.39
  A 0.46 0.46 0.0 0 1 1239.16 715.87
  L 1228.98 732.28
  A 0.46 0.46 0.0 0 0 1229.37 732.98
  L 1237.62 732.98
  A 0.46 0.46 0.0 0 0 1238.04 732.72
  L 1243.02 722.66
  A 0.46 0.46 0.0 0 1 1243.82 722.62
  L 1250.22 732.75
  A 0.46 0.46 0.0 0 0 1250.61 732.96
  L 1258.68 732.96
  A 0.46 0.46 0.0 0 0 1259.07 732.25
  L 1248.37 715.33
  A 0.46 0.46 0.0 0 1 1248.37 714.85
  L 1257.76 699.72
  A 0.46 0.46 0.0 0 0 1257.37 699.02
  L 1249.40 699.02
  A 0.46 0.46 0.0 0 0 1248.98 699.28
  L 1244.29 708.75
  A 0.46 0.46 0.0 0 1 1243.48 708.78
  L 1237.99 699.25
  Z
  M 1092.21 712.01
  L 1080.40 712.01
  A 1.18 1.18 0.0 0 1 1079.27 711.18
  L 1075.78 700.23
  A 0.82 0.82 0.0 0 0 1074.23 700.20
  L 1070.40 710.66
  A 2.16 2.15 -79.9 0 1 1068.38 712.07
  L 1055.75 712.07
  A 0.75 0.74 -22.9 0 0 1055.23 713.35
  Q 1060.17 718.18 1065.59 721.01
  A 1.26 1.26 0.0 0 1 1066.22 722.48
  L 1063.22 732.69
  A 0.77 0.77 0.0 0 0 1064.30 733.59
  Q 1069.70 730.87 1073.52 726.97
  A 1.30 1.29 -47.5 0 1 1075.29 726.89
  Q 1078.41 729.55 1082.65 732.36
  Q 1083.90 733.19 1084.31 733.17
  A 0.78 0.77 82.2 0 0 1085.01 732.24
  L 1083.01 722.68
  A 1.93 1.91 62.9 0 1 1083.59 720.86
  L 1092.45 712.63
  A 0.36 0.36 0.0 0 0 1092.21 712.01
  Z
  M 1109.05 785.53
  L 1108.87 768.62
  A 1.15 1.11 35.8 0 0 1108.80 768.23
  Q 1108.28 766.72 1106.63 765.38
  Q 1100.01 760.00 1078.55 742.77
  C 1076.48 741.11 1075.81 739.55 1073.02 741.94
  Q 1059.34 753.66 1043.17 765.98
  A 3.04 3.03 71.3 0 0 1041.98 768.39
  L 1041.98 784.68
  A 0.27 0.27 0.0 0 0 1042.42 784.89
  L 1067.00 765.37
  A 0.17 0.17 0.0 0 1 1067.28 765.51
  Q 1066.95 769.98 1067.09 777.24
  Q 1067.15 780.24 1064.79 782.04
  Q 1060.53 785.28 1042.96 799.47
  A 2.67 2.66 -19.5 0 0 1041.97 801.54
  L 1041.97 818.34
  A 0.33 0.32 -19.4 0 0 1042.50 818.59
  L 1066.27 799.71
  A 0.44 0.44 0.0 0 1 1066.99 800.05
  L 1066.99 822.79
  A 0.98 0.98 0.0 0 0 1067.97 823.77
  L 1081.47 823.77
  A 0.46 0.46 0.0 0 0 1081.93 823.31
  L 1081.93 798.44
  A 0.42 0.41 23.7 0 1 1082.65 798.16
  Q 1084.76 800.46 1086.16 801.58
  Q 1094.86 808.61 1108.53 819.83
  A 0.40 0.40 0.0 0 0 1109.19 819.52
  L 1109.19 802.91
  A 3.93 3.93 0.0 0 0 1107.69 799.82
  L 1083.06 780.37
  A 2.60 2.59 19.3 0 1 1082.08 778.34
  L 1082.08 765.35
  A 0.38 0.38 0.0 0 1 1082.70 765.05
  L 1108.79 785.66
  A 0.16 0.16 0.0 0 0 1109.05 785.53
  Z
  M 936.18 819.88
  Q 936.67 820.15 937.00 819.75
  A 2.50 2.09 -43.7 0 0 937.31 816.99
  Q 936.58 815.93 934.52 814.41
  A 2.03 2.02 58.9 0 0 933.03 814.04
  Q 928.50 814.70 925.68 809.95
  Q 924.19 807.43 925.68 805.82
  C 927.76 803.58 930.81 801.39 933.87 799.12
  Q 937.63 796.32 941.15 800.52
  A 2.98 2.98 0.0 0 1 941.67 803.46
  L 941.00 805.30
  A 1.15 1.11 -52.7 0 0 941.12 806.32
  Q 942.58 808.48 944.91 809.78
  A 1.76 1.76 0.0 0 0 947.10 809.40
  C 950.10 805.96 951.05 802.86 948.79 798.72
  Q 944.54 790.94 936.00 789.28
  Q 933.67 788.82 932.25 789.73
  Q 924.86 794.41 919.52 799.88
  C 915.27 804.24 915.65 809.73 919.05 814.73
  Q 925.01 823.49 934.33 820.68
  Q 934.89 820.51 934.90 820.48
  Q 934.96 820.38 935.26 820.04
  A 0.75 0.74 -54.5 0 1 936.18 819.88
  Z
  M 1235.7790 792.3054
  A 5.81 5.52 -147.7 0 0 1237.7404 800.0758
  A 5.81 5.52 -147.7 0 0 1245.6010 798.5146
  A 5.81 5.52 -147.7 0 0 1243.6396 790.7442
  A 5.81 5.52 -147.7 0 0 1235.7790 792.3054
  Z
  M 1207.20 818.80
  Q 1210.52 821.45 1211.81 822.16
  Q 1223.82 828.69 1231.53 817.78
  Q 1236.45 810.84 1231.86 804.21
  Q 1230.23 801.86 1223.79 796.70
  Q 1220.48 794.05 1219.18 793.34
  Q 1207.17 786.81 1199.46 797.72
  Q 1194.54 804.66 1199.13 811.28
  Q 1200.76 813.64 1207.20 818.80
  Z
  M 938.52 837.54
  A 0.98 0.97 -46.4 0 0 939.80 837.50
  L 947.08 830.75
  A 1.66 1.66 0.0 0 1 949.73 831.31
  C 950.81 833.85 947.35 840.52 946.01 843.43
  A 4.60 4.59 -57.8 0 0 947.24 848.88
  L 948.56 849.98
  A 2.81 2.80 -61.9 0 0 953.05 848.61
  L 956.01 838.55
  A 1.00 0.99 20.4 0 1 957.38 837.93
  C 962.41 840.22 968.12 835.46 970.84 831.29
  C 976.24 823.00 962.74 813.97 957.13 810.31
  A 1.05 1.05 0.0 0 0 955.79 810.48
  C 950.96 815.71 945.57 821.21 939.85 826.04
  Q 936.62 828.78 934.03 832.36
  A 1.18 1.18 0.0 0 0 934.23 833.96
  L 938.52 837.54
  Z
  M 1199.14 833.64
  Q 1202.17 838.15 1198.02 841.68
  C 1195.56 843.76 1192.79 843.83 1190.59 841.64
  Q 1187.48 838.54 1182.74 833.16
  A 3.43 3.42 33.9 0 1 1182.07 829.78
  Q 1184.25 823.49 1191.00 825.58
  A 1.32 1.31 32.3 0 0 1192.29 825.29
  L 1196.14 821.72
  A 1.50 1.49 45.6 0 0 1196.16 819.55
  C 1186.49 810.09 1167.39 824.81 1174.72 836.73
  Q 1175.63 838.22 1179.47 842.58
  C 1185.06 848.93 1191.67 853.88 1200.29 849.26
  C 1206.47 845.96 1210.94 839.08 1207.82 832.11
  A 3.53 3.52 74.3 0 0 1204.16 830.05
  L 1200.57 830.50
  A 2.03 2.02 -20.5 0 0 1199.14 833.64
  Z
  M 997.37 843.19
  A 1.42 1.40 42.0 0 0 997.25 841.10
  Q 986.93 832.79 981.29 829.78
  A 1.09 1.07 37.2 0 0 980.04 829.94
  Q 977.77 832.07 976.04 834.54
  Q 969.95 843.22 961.47 854.25
  A 1.38 1.37 36.7 0 0 961.76 856.20
  L 976.72 866.92
  A 0.90 0.90 0.0 0 0 977.95 866.74
  L 981.49 862.26
  A 0.57 0.56 -53.2 0 0 981.38 861.45
  L 972.51 855.10
  A 1.64 1.64 0.0 0 1 972.14 852.81
  L 974.43 849.61
  A 0.78 0.77 35.4 0 1 975.52 849.43
  L 983.96 855.48
  A 0.82 0.82 0.0 0 0 985.09 855.29
  L 987.85 851.43
  A 1.08 1.08 0.0 0 0 987.60 849.92
  L 979.69 844.25
  A 0.81 0.79 -54.6 0 1 979.51 843.13
  L 982.26 839.29
  A 0.85 0.84 35.6 0 1 983.44 839.10
  L 992.65 845.70
  A 1.87 1.87 0.0 0 0 995.06 845.50
  L 997.37 843.19
  Z
  M 1157.81 847.44
  A 1.52 1.52 0.0 0 0 1157.62 845.33
  Q 1155.37 843.40 1152.24 842.96
  Q 1143.03 841.68 1137.21 849.07
  C 1133.47 853.82 1137.23 861.32 1141.95 863.74
  C 1145.61 865.61 1151.39 862.54 1154.34 862.01
  C 1157.34 861.46 1161.88 864.45 1158.95 867.68
  C 1156.29 870.61 1153.75 870.25 1149.90 868.94
  A 1.70 1.68 -52.3 0 0 1148.41 869.14
  L 1144.64 871.68
  A 1.34 1.34 0.0 0 0 1144.44 873.73
  C 1151.54 880.99 1163.52 876.36 1168.00 868.77
  Q 1169.51 866.21 1168.07 862.65
  C 1165.15 855.39 1159.31 852.87 1152.17 855.28
  Q 1150.28 855.92 1147.49 856.41
  A 2.99 2.99 0.0 0 1 1144.02 853.86
  L 1143.98 853.52
  A 3.16 3.16 0.0 0 1 1146.76 849.96
  C 1150.07 849.59 1155.27 850.61 1157.81 847.44
  Z
  M 1005.24 873.33
  A 1.63 1.63 0.0 0 1 1006.30 874.94
  L 1006.06 880.06
  A 1.63 1.63 0.0 0 0 1007.06 881.64
  L 1011.76 883.60
  A 1.63 1.63 0.0 0 0 1014.01 882.24
  L 1016.83 851.86
  A 1.63 1.63 0.0 0 0 1015.83 850.21
  L 1008.38 847.10
  A 1.63 1.63 0.0 0 0 1006.50 847.56
  L 986.47 871.59
  A 1.63 1.63 0.0 0 0 987.09 874.14
  L 991.34 875.91
  A 1.63 1.63 0.0 0 0 993.22 875.45
  L 996.65 871.33
  A 1.63 1.63 0.0 0 1 998.46 870.85
  L 1005.24 873.33
  Z
  M 1113.57 870.76
  Q 1113.99 870.50 1114.50 871.01
  Q 1121.45 877.88 1128.98 886.53
  A 1.73 1.73 0.0 0 0 1130.73 887.06
  L 1136.15 885.62
  A 0.72 0.71 75.0 0 0 1136.66 884.73
  L 1127.48 853.58
  A 1.24 1.24 0.0 0 0 1125.97 852.73
  L 1119.98 854.32
  A 0.54 0.54 0.0 0 0 1119.61 855.00
  L 1125.16 872.43
  A 0.11 0.10 -77.2 0 1 1124.99 872.54
  L 1110.52 858.06
  A 3.04 3.03 -25.6 0 0 1108.07 857.20
  Q 1104.93 857.53 1102.74 858.87
  A 0.93 0.92 66.8 0 0 1102.33 859.90
  L 1110.23 889.61
  A 1.84 1.83 -8.8 0 0 1112.09 890.97
  Q 1115.07 890.83 1117.74 889.72
  A 1.27 1.26 70.9 0 0 1118.47 888.20
  L 1113.52 870.87
  A 0.10 0.09 -23.6 0 1 1113.57 870.76
  Z
  M 1026.47 852.90
  A 1.01 1.01 0.0 0 0 1025.24 853.63
  L 1023.94 858.65
  A 1.01 1.01 0.0 0 0 1024.70 859.89
  L 1031.94 861.51
  A 1.01 1.01 0.0 0 1 1032.70 862.75
  L 1026.26 887.71
  A 1.01 1.01 0.0 0 0 1026.99 888.94
  L 1033.13 890.53
  A 1.01 1.01 0.0 0 0 1034.37 889.77
  L 1040.05 864.43
  A 1.01 1.01 0.0 0 1 1041.26 863.66
  L 1048.22 865.23
  A 1.01 1.01 0.0 0 0 1049.43 864.46
  L 1050.42 860.10
  A 1.01 1.01 0.0 0 0 1049.68 858.90
  L 1026.47 852.90
  Z
  M 1063.0402 861.3647
  A 0.99 0.99 0.0 0 0 1062.1235 860.3064
  L 1056.1788 859.8803
  A 0.99 0.99 0.0 0 0 1055.1205 860.7970
  L 1052.8398 892.6153
  A 0.99 0.99 0.0 0 0 1053.7565 893.6736
  L 1059.7012 894.0997
  A 0.99 0.99 0.0 0 0 1060.7595 893.1830
  L 1063.0402 861.3647
  Z
  M 1071.05 864.20
  Q 1069.98 867.68 1070.09 871.00
  Q 1070.24 875.77 1070.90 884.14
  C 1071.28 888.97 1072.61 892.57 1077.24 893.86
  C 1084.39 895.87 1098.34 895.26 1098.53 884.28
  C 1098.64 878.09 1098.43 870.22 1095.93 864.62
  C 1094.62 861.69 1090.68 861.06 1087.76 860.82
  C 1082.13 860.37 1076.57 860.40 1071.80 863.25
  A 1.67 1.67 0.0 0 0 1071.05 864.20
  Z"
/>
<path fill="#ffffff" d="
  M 1084.23 550.67
  A 0.25 0.25 0.0 0 1 1084.51 550.44
  C 1089.69 551.13 1094.39 550.85 1099.09 551.44
  Q 1105.61 552.25 1117.20 553.99
  A 0.85 0.84 -82.6 0 1 1117.91 554.92
  L 1117.15 561.51
  A 0.81 0.80 -84.1 0 1 1116.28 562.22
  L 1105.99 561.26
  A 1.04 1.03 -84.3 0 0 1104.87 562.18
  L 1101.77 589.14
  A 0.90 0.90 0.0 0 1 1100.78 589.93
  L 1092.37 588.96
  A 0.81 0.80 6.4 0 1 1091.65 588.07
  L 1094.76 560.99
  A 0.74 0.73 -83.4 0 0 1094.11 560.17
  L 1084.01 559.01
  A 0.56 0.56 0.0 0 1 1083.51 558.40
  L 1084.23 550.67
  Z"
/>
<path fill="#ffffff" d="
  M 1065.47 584.02
  Q 1062.42 588.22 1058.04 589.28
  C 1050.73 591.04 1041.68 591.97 1036.21 585.70
  Q 1033.90 583.05 1032.87 576.00
  Q 1031.49 566.49 1031.20 563.53
  Q 1030.53 556.62 1036.32 553.89
  C 1044.21 550.18 1058.41 548.83 1063.72 557.74
  C 1066.25 561.98 1066.64 571.79 1066.88 577.51
  C 1066.97 579.93 1066.87 582.09 1065.47 584.02
  Z
  M 1042.01 563.29
  Q 1042.02 566.68 1043.02 574.17
  C 1043.53 578.01 1043.44 581.55 1048.20 581.28
  C 1051.87 581.07 1057.44 581.76 1056.90 576.50
  C 1056.33 571.03 1056.21 564.57 1054.42 562.30
  A 2.60 2.33 84.3 0 0 1053.82 561.75
  Q 1049.54 558.96 1043.19 561.53
  A 1.89 1.88 -11.2 0 0 1042.01 563.29
  Z"
/>
<path fill="#ffffff" d="
  M 1141.46 584.20
  A 1.18 1.17 22.5 0 0 1139.92 584.83
  L 1138.24 588.87
  A 1.25 1.25 0.0 0 0 1138.96 590.52
  L 1152.69 595.55
  A 1.62 1.62 0.0 0 1 1153.69 597.53
  L 1152.13 602.84
  A 1.64 1.64 0.0 0 1 1150.10 603.95
  Q 1138.25 600.42 1126.64 595.42
  A 1.12 1.12 0.0 0 1 1126.03 594.01
  L 1138.70 559.43
  A 0.77 0.76 11.2 0 1 1139.46 558.93
  Q 1141.84 559.06 1144.25 560.00
  Q 1152.17 563.10 1162.80 567.10
  A 1.66 1.65 -71.5 0 1 1163.80 569.12
  L 1162.14 574.76
  A 1.29 1.29 0.0 0 1 1160.45 575.61
  L 1146.84 570.63
  A 1.30 1.29 -71.8 0 0 1145.15 571.49
  Q 1144.50 573.69 1143.74 574.98
  A 0.97 0.97 0.0 0 0 1144.24 576.39
  L 1153.94 579.94
  A 1.42 1.42 0.0 0 1 1154.78 581.76
  L 1152.87 586.99
  A 1.74 1.73 21.3 0 1 1150.57 587.99
  L 1141.46 584.20
  Z"
/>
<path fill="#000000" d="
  M 1042.01 563.29
  A 1.89 1.88 -11.2 0 1 1043.19 561.53
  Q 1049.54 558.96 1053.82 561.75
  A 2.60 2.33 84.3 0 1 1054.42 562.30
  C 1056.21 564.57 1056.33 571.03 1056.90 576.50
  C 1057.44 581.76 1051.87 581.07 1048.20 581.28
  C 1043.44 581.55 1043.53 578.01 1043.02 574.17
  Q 1042.02 566.68 1042.01 563.29
  Z"
/>
<path fill="#ffffff" d="
  M 1004.33 562.22
  C 1011.03 563.08 1015.64 576.50 1017.93 582.55
  Q 1022.46 594.51 1010.88 600.18
  C 1005.47 602.82 997.08 605.37 991.88 601.37
  Q 990.17 600.06 986.37 593.05
  Q 982.24 585.42 980.82 581.76
  Q 979.15 577.42 981.20 572.20
  Q 982.41 569.11 987.20 566.62
  C 992.36 563.93 998.61 561.48 1004.33 562.22
  Z
  M 1006.21 592.23
  A 4.66 4.66 0.0 0 0 1008.71 586.13
  L 1003.91 574.66
  A 4.66 4.66 0.0 0 0 998.19 572.02
  L 993.49 573.51
  A 4.66 4.66 0.0 0 0 990.87 580.28
  L 997.36 591.52
  A 4.66 4.66 0.0 0 0 1003.19 593.49
  L 1006.21 592.23
  Z"
/>
<path fill="#000000" d="
  M 1006.21 592.23
  L 1003.19 593.49
  A 4.66 4.66 0.0 0 1 997.36 591.52
  L 990.87 580.28
  A 4.66 4.66 0.0 0 1 993.49 573.51
  L 998.19 572.02
  A 4.66 4.66 0.0 0 1 1003.91 574.66
  L 1008.71 586.13
  A 4.66 4.66 0.0 0 1 1006.21 592.23
  Z"
/>
<path fill="#ffffff" d="
  M 1187.41 583.36
  A 1.41 1.41 0.0 0 1 1189.11 583.28
  Q 1191.09 584.64 1203.07 593.43
  C 1207.23 596.48 1210.60 600.88 1209.19 605.97
  C 1208.01 610.28 1202.27 616.40 1198.90 620.33
  Q 1195.35 624.46 1192.75 625.01
  C 1188.75 625.85 1186.35 626.09 1182.51 623.98
  Q 1173.91 619.24 1167.87 613.74
  A 2.43 2.43 0.0 0 1 1167.34 610.83
  Q 1168.62 608.34 1171.46 604.47
  Q 1172.67 602.82 1184.22 587.96
  C 1185.30 586.57 1186.22 584.34 1187.41 583.36
  Z
  M 1191.37 595.38
  L 1179.41 610.30
  A 0.30 0.30 0.0 0 0 1179.46 610.72
  L 1185.16 615.29
  A 4.38 4.24 -51.3 0 0 1191.20 614.52
  L 1198.06 605.96
  A 4.38 4.24 -51.3 0 0 1197.49 599.90
  L 1191.79 595.33
  A 0.30 0.30 0.0 0 0 1191.37 595.38
  Z"
/>
<path fill="#ffffff" d="
  M 965.79 606.79
  Q 973.26 608.50 979.86 611.65
  A 1.34 1.33 37.6 0 1 980.15 613.87
  L 975.38 617.91
  A 3.44 3.43 -54.6 0 1 971.94 618.50
  Q 963.77 615.41 961.28 614.47
  C 959.14 613.66 957.76 613.93 956.33 615.56
  Q 955.53 616.46 956.55 617.58
  Q 959.35 620.66 963.76 625.08
  A 1.21 1.20 -44.2 0 1 963.73 626.82
  L 957.47 632.63
  A 0.86 0.85 48.4 0 1 956.24 632.55
  L 932.05 604.00
  A 1.04 1.03 48.8 0 1 932.14 602.56
  C 937.41 597.71 946.02 589.12 952.95 588.99
  C 959.34 588.87 965.35 593.88 966.67 600.03
  C 967.20 602.49 966.43 603.76 965.50 606.26
  A 0.40 0.40 0.0 0 0 965.79 606.79
  Z
  M 945.51 605.02
  L 949.84 609.59
  A 1.56 1.56 0.0 0 0 952.05 609.65
  L 955.50 606.37
  A 4.42 4.01 -43.5 0 0 955.95 600.42
  L 954.98 599.41
  A 4.42 4.01 -43.5 0 0 949.02 599.54
  L 945.56 602.82
  A 1.56 1.56 0.0 0 0 945.51 605.02
  Z"
/>
<path fill="#000000" d="
  M 1191.37 595.38
  A 0.30 0.30 0.0 0 1 1191.79 595.33
  L 1197.49 599.90
  A 4.38 4.24 -51.3 0 1 1198.06 605.96
  L 1191.20 614.52
  A 4.38 4.24 -51.3 0 1 1185.16 615.29
  L 1179.46 610.72
  A 0.30 0.30 0.0 0 1 1179.41 610.30
  L 1191.37 595.38
  Z"
/>
<path fill="#000000" d="
  M 945.51 605.02
  A 1.56 1.56 0.0 0 1 945.56 602.82
  L 949.02 599.54
  A 4.42 4.01 -43.5 0 1 954.98 599.41
  L 955.95 600.42
  A 4.42 4.01 -43.5 0 1 955.50 606.37
  L 952.05 609.65
  A 1.56 1.56 0.0 0 1 949.84 609.59
  L 945.51 605.02
  Z"
/>
<path fill="#ffffff" d="
  M 1107.25 652.84
  L 1108.14 668.69
  A 3.85 3.83 57.7 0 1 1107.69 670.72
  Q 1107.05 671.90 1104.37 673.86
  Q 1089.96 684.39 1075.05 696.55
  A 1.22 1.21 -45.4 0 1 1073.53 696.57
  L 1041.71 671.44
  A 0.70 0.68 20.5 0 1 1041.46 670.91
  L 1041.46 653.89
  A 0.30 0.29 19.3 0 1 1041.94 653.66
  L 1067.04 673.48
  A 0.37 0.37 0.0 0 0 1067.64 673.19
  L 1067.64 657.90
  A 2.83 2.82 19.3 0 0 1066.57 655.69
  L 1042.36 636.57
  A 3.30 3.27 -71.6 0 1 1041.11 634.05
  L 1040.81 618.42
  A 0.51 0.48 67.8 0 1 1040.94 618.08
  Q 1041.39 617.58 1042.24 618.26
  Q 1052.28 626.25 1066.27 637.95
  A 0.51 0.51 0.0 0 0 1067.10 637.56
  L 1067.10 611.65
  A 0.61 0.61 0.0 0 1 1067.71 611.04
  L 1081.69 611.04
  A 0.67 0.66 -0.0 0 1 1082.36 611.70
  L 1082.36 637.14
  A 0.18 0.18 0.0 0 0 1082.66 637.28
  L 1101.22 622.26
  Q 1101.23 622.25 1101.25 622.23
  L 1106.09 617.94
  A 0.57 0.57 0.0 0 1 1107.04 618.37
  L 1107.04 634.99
  A 2.97 2.94 -19.2 0 1 1105.91 637.31
  L 1082.90 655.60
  A 2.33 2.32 -19.3 0 0 1082.02 657.42
  L 1082.02 671.80
  A 0.23 0.23 0.0 0 0 1082.40 671.98
  L 1106.77 652.62
  A 0.30 0.30 0.0 0 1 1107.25 652.84
  Z"
/>
<path fill="#ffffff" d="
  M 1138.80 751.18
  A 0.52 0.52 0.0 0 1 1138.39 752.03
  L 1121.82 752.03
  A 2.78 2.77 -17.7 0 1 1119.56 750.87
  Q 1110.76 738.48 1097.95 721.07
  C 1096.94 719.71 1096.72 718.05 1097.86 716.42
  C 1099.56 713.99 1101.80 711.58 1103.51 709.33
  Q 1111.94 698.18 1119.50 687.16
  A 2.72 2.72 0.0 0 1 1121.74 685.98
  L 1137.28 685.98
  A 0.57 0.57 0.0 0 1 1137.74 686.88
  L 1120.14 711.44
  A 0.34 0.34 0.0 0 0 1120.41 711.98
  Q 1128.20 712.20 1134.18 711.82
  Q 1135.72 711.73 1137.09 709.85
  Q 1148.73 693.91 1154.28 687.28
  Q 1155.29 686.07 1157.52 685.98
  Q 1164.01 685.71 1171.35 686.11
  A 0.10 0.09 -71.2 0 1 1171.42 686.26
  L 1153.28 711.57
  A 0.29 0.28 -72.2 0 0 1153.51 712.02
  L 1175.53 712.02
  A 0.57 0.56 -90.0 0 1 1176.09 712.59
  L 1176.09 725.25
  A 0.76 0.76 0.0 0 1 1175.33 726.01
  L 1152.52 726.01
  A 0.43 0.42 66.9 0 0 1152.23 726.74
  Q 1154.69 729.15 1156.33 731.23
  Q 1165.39 742.73 1171.83 751.48
  A 0.35 0.35 0.0 0 1 1171.55 752.04
  L 1155.71 752.04
  A 2.65 2.64 -17.9 0 1 1153.57 750.95
  L 1136.15 727.05
  A 0.84 0.84 0.0 0 0 1135.47 726.70
  L 1120.33 726.70
  A 0.47 0.46 70.5 0 0 1119.97 727.46
  L 1138.80 751.18
  Z"
/>
<path fill="#ffffff" d="
  M 1011.08 685.96
  L 1027.46 685.96
  A 1.75 1.75 0.0 0 1 1028.91 686.73
  Q 1034.78 695.56 1045.16 708.45
  C 1047.50 711.35 1050.78 713.93 1052.39 716.90
  C 1053.46 718.86 1053.17 719.76 1051.75 721.57
  Q 1040.80 735.58 1029.86 750.88
  A 2.84 2.83 -72.1 0 1 1027.56 752.06
  L 1009.68 752.06
  A 0.32 0.32 0.0 0 1 1009.43 751.54
  L 1029.60 727.36
  A 0.46 0.46 0.0 0 0 1029.25 726.61
  L 1015.75 726.61
  A 3.00 2.98 17.4 0 0 1013.30 727.88
  Q 1005.04 739.68 996.05 751.37
  C 995.05 752.67 992.46 752.22 990.79 752.20
  Q 979.88 752.08 977.43 751.99
  A 0.42 0.42 0.0 0 1 977.12 751.31
  L 996.07 727.32
  A 0.70 0.69 19.0 0 0 995.52 726.20
  L 972.90 726.20
  A 0.50 0.50 0.0 0 1 972.40 725.70
  L 972.40 712.23
  A 0.30 0.30 0.0 0 1 972.70 711.93
  L 995.51 711.93
  A 0.17 0.17 0.0 0 0 995.65 711.66
  L 977.17 686.30
  A 0.22 0.22 0.0 0 1 977.35 685.95
  L 994.02 685.95
  A 2.47 2.46 71.9 0 1 996.01 686.96
  L 1013.69 711.22
  A 2.07 2.07 0.0 0 0 1015.36 712.07
  L 1028.71 712.07
  A 0.37 0.37 0.0 0 0 1029.01 711.48
  L 1010.80 686.51
  A 0.35 0.35 0.0 0 1 1011.08 685.96
  Z"
/>
<path fill="#ffffff" d="
  M 912.58 705.94
  L 907.54 707.54
  A 1.53 1.52 -20.2 0 1 905.66 706.68
  C 904.03 702.86 895.64 705.35 898.66 709.19
  C 900.52 711.57 905.96 712.32 907.43 712.79
  Q 914.36 715.00 914.79 721.43
  C 915.71 735.37 893.54 737.81 888.95 726.00
  A 1.46 1.45 73.8 0 1 890.02 724.05
  L 894.78 723.08
  A 1.52 1.51 62.6 0 1 896.19 723.53
  C 896.94 724.32 898.24 726.07 899.45 726.53
  C 904.95 728.58 909.58 721.39 903.49 719.23
  C 900.81 718.28 894.53 717.30 891.65 714.15
  C 889.05 711.30 889.63 706.66 890.97 703.45
  C 892.89 698.86 900.55 697.57 904.68 698.18
  Q 909.94 698.97 913.25 704.03
  A 1.27 1.27 0.0 0 1 912.58 705.94
  Z"
/>
<path fill="#ffffff" d="
  M 932.38 698.96
  Q 934.68 698.97 936.64 699.20
  A 0.45 0.44 -4.6 0 1 937.02 699.52
  L 946.58 731.97
  A 0.81 0.81 0.0 0 1 945.80 733.01
  L 940.21 733.01
  A 1.46 1.46 0.0 0 1 938.81 731.96
  L 937.06 726.01
  A 1.24 1.23 87.7 0 0 936.14 725.16
  Q 934.97 724.90 932.30 724.89
  Q 929.63 724.88 928.45 725.13
  A 1.24 1.23 -87.3 0 0 927.53 725.98
  L 925.74 731.92
  A 1.46 1.46 0.0 0 1 924.33 732.96
  L 918.74 732.92
  A 0.81 0.81 0.0 0 1 917.97 731.88
  L 927.74 699.49
  A 0.45 0.44 5.0 0 1 928.13 699.17
  Q 930.09 698.95 932.38 698.96
  Z
  M 929.24 718.41
  A 0.49 0.49 0.0 0 0 929.73 719.01
  L 934.99 718.94
  A 0.49 0.49 0.0 0 0 935.46 718.32
  L 932.68 708.24
  A 0.49 0.49 0.0 0 0 931.73 708.25
  L 929.24 718.41
  Z"
/>
<path fill="#ffffff" d="
  M 1212.81 732.89
  Q 1209.48 732.87 1209.22 732.80
  A 0.37 0.37 0.0 0 1 1208.94 732.44
  L 1209.11 706.17
  A 0.56 0.55 0.6 0 0 1208.55 705.62
  L 1201.44 705.55
  A 0.62 0.62 0.0 0 1 1200.82 704.92
  L 1200.88 699.67
  A 0.73 0.73 0.0 0 1 1201.60 698.94
  Q 1207.21 698.90 1213.05 698.99
  Q 1218.90 698.99 1224.51 699.11
  A 0.73 0.73 0.0 0 1 1225.22 699.85
  L 1225.20 705.10
  A 0.62 0.62 0.0 0 1 1224.57 705.72
  L 1217.46 705.69
  A 0.56 0.55 0.3 0 0 1216.90 706.23
  L 1216.68 732.50
  A 0.37 0.37 0.0 0 1 1216.39 732.85
  Q 1216.13 732.91 1212.81 732.89
  Z"
/>
<path fill="#ffffff" d="
  M 1237.99 699.25
  L 1243.48 708.78
  A 0.46 0.46 0.0 0 0 1244.29 708.75
  L 1248.98 699.28
  A 0.46 0.46 0.0 0 1 1249.40 699.02
  L 1257.37 699.02
  A 0.46 0.46 0.0 0 1 1257.76 699.72
  L 1248.37 714.85
  A 0.46 0.46 0.0 0 0 1248.37 715.33
  L 1259.07 732.25
  A 0.46 0.46 0.0 0 1 1258.68 732.96
  L 1250.61 732.96
  A 0.46 0.46 0.0 0 1 1250.22 732.75
  L 1243.82 722.62
  A 0.46 0.46 0.0 0 0 1243.02 722.66
  L 1238.04 732.72
  A 0.46 0.46 0.0 0 1 1237.62 732.98
  L 1229.37 732.98
  A 0.46 0.46 0.0 0 1 1228.98 732.28
  L 1239.16 715.87
  A 0.46 0.46 0.0 0 0 1239.16 715.39
  L 1229.26 699.73
  A 0.46 0.46 0.0 0 1 1229.64 699.02
  L 1237.59 699.02
  A 0.46 0.46 0.0 0 1 1237.99 699.25
  Z"
/>
<path fill="#ffffff" d="
  M 1092.45 712.63
  L 1083.59 720.86
  A 1.93 1.91 62.9 0 0 1083.01 722.68
  L 1085.01 732.24
  A 0.78 0.77 82.2 0 1 1084.31 733.17
  Q 1083.90 733.19 1082.65 732.36
  Q 1078.41 729.55 1075.29 726.89
  A 1.30 1.29 -47.5 0 0 1073.52 726.97
  Q 1069.70 730.87 1064.30 733.59
  A 0.77 0.77 0.0 0 1 1063.22 732.69
  L 1066.22 722.48
  A 1.26 1.26 0.0 0 0 1065.59 721.01
  Q 1060.17 718.18 1055.23 713.35
  A 0.75 0.74 -22.9 0 1 1055.75 712.07
  L 1068.38 712.07
  A 2.16 2.15 -79.9 0 0 1070.40 710.66
  L 1074.23 700.20
  A 0.82 0.82 0.0 0 1 1075.78 700.23
  L 1079.27 711.18
  A 1.18 1.18 0.0 0 0 1080.40 712.01
  L 1092.21 712.01
  A 0.36 0.36 0.0 0 1 1092.45 712.63
  Z"
/>
<path fill="#000000" d="
  M 929.24 718.41
  L 931.73 708.25
  A 0.49 0.49 0.0 0 1 932.68 708.24
  L 935.46 718.32
  A 0.49 0.49 0.0 0 1 934.99 718.94
  L 929.73 719.01
  A 0.49 0.49 0.0 0 1 929.24 718.41
  Z"
/>
<path fill="#ffffff" d="
  M 1109.05 785.53
  A 0.16 0.16 0.0 0 1 1108.79 785.66
  L 1082.70 765.05
  A 0.38 0.38 0.0 0 0 1082.08 765.35
  L 1082.08 778.34
  A 2.60 2.59 19.3 0 0 1083.06 780.37
  L 1107.69 799.82
  A 3.93 3.93 0.0 0 1 1109.19 802.91
  L 1109.19 819.52
  A 0.40 0.40 0.0 0 1 1108.53 819.83
  Q 1094.86 808.61 1086.16 801.58
  Q 1084.76 800.46 1082.65 798.16
  A 0.42 0.41 23.7 0 0 1081.93 798.44
  L 1081.93 823.31
  A 0.46 0.46 0.0 0 1 1081.47 823.77
  L 1067.97 823.77
  A 0.98 0.98 0.0 0 1 1066.99 822.79
  L 1066.99 800.05
  A 0.44 0.44 0.0 0 0 1066.27 799.71
  L 1042.50 818.59
  A 0.33 0.32 -19.4 0 1 1041.97 818.34
  L 1041.97 801.54
  A 2.67 2.66 -19.5 0 1 1042.96 799.47
  Q 1060.53 785.28 1064.79 782.04
  Q 1067.15 780.24 1067.09 777.24
  Q 1066.95 769.98 1067.28 765.51
  A 0.17 0.17 0.0 0 0 1067.00 765.37
  L 1042.42 784.89
  A 0.27 0.27 0.0 0 1 1041.98 784.68
  L 1041.98 768.39
  A 3.04 3.03 71.3 0 1 1043.17 765.98
  Q 1059.34 753.66 1073.02 741.94
  C 1075.81 739.55 1076.48 741.11 1078.55 742.77
  Q 1100.01 760.00 1106.63 765.38
  Q 1108.28 766.72 1108.80 768.23
  A 1.15 1.11 35.8 0 1 1108.87 768.62
  L 1109.05 785.53
  Z"
/>
<path fill="#ffffff" d="
  M 935.26 820.04
  Q 934.96 820.38 934.90 820.48
  Q 934.89 820.51 934.33 820.68
  Q 925.01 823.49 919.05 814.73
  C 915.65 809.73 915.27 804.24 919.52 799.88
  Q 924.86 794.41 932.25 789.73
  Q 933.67 788.82 936.00 789.28
  Q 944.54 790.94 948.79 798.72
  C 951.05 802.86 950.10 805.96 947.10 809.40
  A 1.76 1.76 0.0 0 1 944.91 809.78
  Q 942.58 808.48 941.12 806.32
  A 1.15 1.11 -52.7 0 1 941.00 805.30
  L 941.67 803.46
  A 2.98 2.98 0.0 0 0 941.15 800.52
  Q 937.63 796.32 933.87 799.12
  C 930.81 801.39 927.76 803.58 925.68 805.82
  Q 924.19 807.43 925.68 809.95
  Q 928.50 814.70 933.03 814.04
  A 2.03 2.02 58.9 0 1 934.52 814.41
  Q 936.58 815.93 937.31 816.99
  A 2.50 2.09 -43.7 0 1 937.00 819.75
  Q 936.67 820.15 936.18 819.88
  A 0.75 0.74 -54.5 0 0 935.26 820.04
  Z"
/>
<path fill="#ffffff" d="
  M 1223.79 796.70
  Q 1230.23 801.86 1231.86 804.21
  Q 1236.45 810.84 1231.53 817.78
  Q 1223.82 828.69 1211.81 822.16
  Q 1210.52 821.45 1207.20 818.80
  Q 1200.76 813.64 1199.13 811.28
  Q 1194.54 804.66 1199.46 797.72
  Q 1207.17 786.81 1219.18 793.34
  Q 1220.48 794.05 1223.79 796.70
  Z
  M 1210.73 799.53
  C 1207.50 800.72 1204.33 803.52 1207.38 806.82
  Q 1210.54 810.23 1216.64 814.87
  C 1221.41 818.50 1227.38 812.54 1223.79 808.24
  Q 1219.16 802.66 1212.05 799.57
  A 1.81 1.79 -43.0 0 0 1210.73 799.53
  Z"
/>
<path fill="#000000" d="
  M 1207.38 806.82
  C 1204.33 803.52 1207.50 800.72 1210.73 799.53
  A 1.81 1.79 -43.0 0 1 1212.05 799.57
  Q 1219.16 802.66 1223.79 808.24
  C 1227.38 812.54 1221.41 818.50 1216.64 814.87
  Q 1210.54 810.23 1207.38 806.82
  Z"
/>
<path fill="#ffffff" d="
  M 938.52 837.54
  L 934.23 833.96
  A 1.18 1.18 0.0 0 1 934.03 832.36
  Q 936.62 828.78 939.85 826.04
  C 945.57 821.21 950.96 815.71 955.79 810.48
  A 1.05 1.05 0.0 0 1 957.13 810.31
  C 962.74 813.97 976.24 823.00 970.84 831.29
  C 968.12 835.46 962.41 840.22 957.38 837.93
  A 1.00 0.99 20.4 0 0 956.01 838.55
  L 953.05 848.61
  A 2.81 2.80 -61.9 0 1 948.56 849.98
  L 947.24 848.88
  A 4.60 4.59 -57.8 0 1 946.01 843.43
  C 947.35 840.52 950.81 833.85 949.73 831.31
  A 1.66 1.66 0.0 0 0 947.08 830.75
  L 939.80 837.50
  A 0.98 0.97 -46.4 0 1 938.52 837.54
  Z
  M 957.10 821.36
  L 953.74 824.59
  A 1.86 1.86 0.0 0 0 953.69 827.22
  L 956.10 829.73
  A 3.86 3.78 46.1 0 0 961.50 829.89
  L 962.10 829.32
  A 3.86 3.78 46.1 0 0 962.14 823.92
  L 959.73 821.41
  A 1.86 1.86 0.0 0 0 957.10 821.36
  Z"
/>
<path fill="#ffffff" d="
  M 1199.14 833.64
  A 2.03 2.02 -20.5 0 1 1200.57 830.50
  L 1204.16 830.05
  A 3.53 3.52 74.3 0 1 1207.82 832.11
  C 1210.94 839.08 1206.47 845.96 1200.29 849.26
  C 1191.67 853.88 1185.06 848.93 1179.47 842.58
  Q 1175.63 838.22 1174.72 836.73
  C 1167.39 824.81 1186.49 810.09 1196.16 819.55
  A 1.50 1.49 45.6 0 1 1196.14 821.72
  L 1192.29 825.29
  A 1.32 1.31 32.3 0 1 1191.00 825.58
  Q 1184.25 823.49 1182.07 829.78
  A 3.43 3.42 33.9 0 0 1182.74 833.16
  Q 1187.48 838.54 1190.59 841.64
  C 1192.79 843.83 1195.56 843.76 1198.02 841.68
  Q 1202.17 838.15 1199.14 833.64
  Z"
/>
<path fill="#000000" d="
  M 957.10 821.36
  A 1.86 1.86 0.0 0 1 959.73 821.41
  L 962.14 823.92
  A 3.86 3.78 46.1 0 1 962.10 829.32
  L 961.50 829.89
  A 3.86 3.78 46.1 0 1 956.10 829.73
  L 953.69 827.22
  A 1.86 1.86 0.0 0 1 953.74 824.59
  L 957.10 821.36
  Z"
/>
<path fill="#ffffff" d="
  M 997.37 843.19
  L 995.06 845.50
  A 1.87 1.87 0.0 0 1 992.65 845.70
  L 983.44 839.10
  A 0.85 0.84 35.6 0 0 982.26 839.29
  L 979.51 843.13
  A 0.81 0.79 -54.6 0 0 979.69 844.25
  L 987.60 849.92
  A 1.08 1.08 0.0 0 1 987.85 851.43
  L 985.09 855.29
  A 0.82 0.82 0.0 0 1 983.96 855.48
  L 975.52 849.43
  A 0.78 0.77 35.4 0 0 974.43 849.61
  L 972.14 852.81
  A 1.64 1.64 0.0 0 0 972.51 855.10
  L 981.38 861.45
  A 0.57 0.56 -53.2 0 1 981.49 862.26
  L 977.95 866.74
  A 0.90 0.90 0.0 0 1 976.72 866.92
  L 961.76 856.20
  A 1.38 1.37 36.7 0 1 961.47 854.25
  Q 969.95 843.22 976.04 834.54
  Q 977.77 832.07 980.04 829.94
  A 1.09 1.07 37.2 0 1 981.29 829.78
  Q 986.93 832.79 997.25 841.10
  A 1.42 1.40 42.0 0 1 997.37 843.19
  Z"
/>
<path fill="#ffffff" d="
  M 1157.81 847.44
  C 1155.27 850.61 1150.07 849.59 1146.76 849.96
  A 3.16 3.16 0.0 0 0 1143.98 853.52
  L 1144.02 853.86
  A 2.99 2.99 0.0 0 0 1147.49 856.41
  Q 1150.28 855.92 1152.17 855.28
  C 1159.31 852.87 1165.15 855.39 1168.07 862.65
  Q 1169.51 866.21 1168.00 868.77
  C 1163.52 876.36 1151.54 880.99 1144.44 873.73
  A 1.34 1.34 0.0 0 1 1144.64 871.68
  L 1148.41 869.14
  A 1.70 1.68 -52.3 0 1 1149.90 868.94
  C 1153.75 870.25 1156.29 870.61 1158.95 867.68
  C 1161.88 864.45 1157.34 861.46 1154.34 862.01
  C 1151.39 862.54 1145.61 865.61 1141.95 863.74
  C 1137.23 861.32 1133.47 853.82 1137.21 849.07
  Q 1143.03 841.68 1152.24 842.96
  Q 1155.37 843.40 1157.62 845.33
  A 1.52 1.52 0.0 0 1 1157.81 847.44
  Z"
/>
<path fill="#ffffff" d="
  M 1005.24 873.33
  L 998.46 870.85
  A 1.63 1.63 0.0 0 0 996.65 871.33
  L 993.22 875.45
  A 1.63 1.63 0.0 0 1 991.34 875.91
  L 987.09 874.14
  A 1.63 1.63 0.0 0 1 986.47 871.59
  L 1006.50 847.56
  A 1.63 1.63 0.0 0 1 1008.38 847.10
  L 1015.83 850.21
  A 1.63 1.63 0.0 0 1 1016.83 851.86
  L 1014.01 882.24
  A 1.63 1.63 0.0 0 1 1011.76 883.60
  L 1007.06 881.64
  A 1.63 1.63 0.0 0 1 1006.06 880.06
  L 1006.30 874.94
  A 1.63 1.63 0.0 0 0 1005.24 873.33
  Z
  M 1009.22 856.83
  A 0.39 0.39 0.0 0 0 1008.53 856.56
  L 1002.26 864.49
  A 0.65 0.65 0.0 0 0 1002.55 865.50
  L 1007.70 867.39
  A 0.61 0.60 12.1 0 0 1008.51 866.87
  L 1009.22 856.83
  Z"
/>
<path fill="#ffffff" d="
  M 1113.57 870.76
  A 0.10 0.09 -23.6 0 0 1113.52 870.87
  L 1118.47 888.20
  A 1.27 1.26 70.9 0 1 1117.74 889.72
  Q 1115.07 890.83 1112.09 890.97
  A 1.84 1.83 -8.8 0 1 1110.23 889.61
  L 1102.33 859.90
  A 0.93 0.92 66.8 0 1 1102.74 858.87
  Q 1104.93 857.53 1108.07 857.20
  A 3.04 3.03 -25.6 0 1 1110.52 858.06
  L 1124.99 872.54
  A 0.11 0.10 -77.2 0 0 1125.16 872.43
  L 1119.61 855.00
  A 0.54 0.54 0.0 0 1 1119.98 854.32
  L 1125.97 852.73
  A 1.24 1.24 0.0 0 1 1127.48 853.58
  L 1136.66 884.73
  A 0.72 0.71 75.0 0 1 1136.15 885.62
  L 1130.73 887.06
  A 1.73 1.73 0.0 0 1 1128.98 886.53
  Q 1121.45 877.88 1114.50 871.01
  Q 1113.99 870.50 1113.57 870.76
  Z"
/>
<path fill="#ffffff" d="
  M 1026.47 852.90
  L 1049.68 858.90
  A 1.01 1.01 0.0 0 1 1050.42 860.10
  L 1049.43 864.46
  A 1.01 1.01 0.0 0 1 1048.22 865.23
  L 1041.26 863.66
  A 1.01 1.01 0.0 0 0 1040.05 864.43
  L 1034.37 889.77
  A 1.01 1.01 0.0 0 1 1033.13 890.53
  L 1026.99 888.94
  A 1.01 1.01 0.0 0 1 1026.26 887.71
  L 1032.70 862.75
  A 1.01 1.01 0.0 0 0 1031.94 861.51
  L 1024.70 859.89
  A 1.01 1.01 0.0 0 1 1023.94 858.65
  L 1025.24 853.63
  A 1.01 1.01 0.0 0 1 1026.47 852.90
  Z"
/>
<path fill="#000000" d="
  M 1009.22 856.83
  L 1008.51 866.87
  A 0.61 0.60 12.1 0 1 1007.70 867.39
  L 1002.55 865.50
  A 0.65 0.65 0.0 0 1 1002.26 864.49
  L 1008.53 856.56
  A 0.39 0.39 0.0 0 1 1009.22 856.83
  Z"
/>
<path fill="#ffffff" d="
  M 1071.80 863.25
  C 1076.57 860.40 1082.13 860.37 1087.76 860.82
  C 1090.68 861.06 1094.62 861.69 1095.93 864.62
  C 1098.43 870.22 1098.64 878.09 1098.53 884.28
  C 1098.34 895.26 1084.39 895.87 1077.24 893.86
  C 1072.61 892.57 1071.28 888.97 1070.90 884.14
  Q 1070.24 875.77 1070.09 871.00
  Q 1069.98 867.68 1071.05 864.20
  A 1.67 1.67 0.0 0 1 1071.80 863.25
  Z
  M 1089.4747 871.1648
  A 4.34 4.34 0.0 0 0 1084.8495 867.1300
  L 1081.8166 867.3368
  A 4.34 4.34 0.0 0 0 1077.7818 871.9619
  L 1078.5653 883.4552
  A 4.34 4.34 0.0 0 0 1083.1905 887.4900
  L 1086.2234 887.2832
  A 4.34 4.34 0.0 0 0 1090.2582 882.6581
  L 1089.4747 871.1648
  Z"
/>
</g>
</svg>
