<?xml version="1.0" encoding="UTF-8" standalone="no"?>
<svg xmlns="http://www.w3.org/2000/svg" version="1.1" viewBox="768 0 768 512">
<g stroke-width="2.00" fill="none" stroke-linecap="butt">
<path stroke="#ffa3c4" vector-effect="non-scaling-stroke" d="
  M 1032.68 79.94
  A 12.15 12.15 0.0 0 0 1045.77 90.35
  L 1054.85 89.55
  A 12.15 12.15 0.0 0 0 1065.82 75.76
  L 1063.63 60.07
  A 12.15 12.15 0.0 0 0 1049.42 49.80
  L 1040.44 51.43
  A 12.15 12.15 0.0 0 0 1030.58 65.09
  L 1032.68 79.94"
/>
<path stroke="#ffa3c4" vector-effect="non-scaling-stroke" d="
  M 1103.73 61.78
  L 1112.98 62.84
  A 1.97 1.97 0.0 0 0 1115.17 61.10
  L 1115.81 55.57
  A 1.71 1.70 -83.6 0 0 1114.31 53.68
  L 1083.51 50.14
  A 0.60 0.60 0.0 0 0 1082.84 50.67
  L 1082.01 57.91
  A 0.94 0.94 0.0 0 0 1082.65 58.91
  Q 1086.86 60.30 1091.84 60.17
  A 0.83 0.82 2.7 0 1 1092.68 61.09
  L 1089.56 88.26
  A 1.16 1.15 -83.5 0 0 1090.57 89.54
  L 1098.84 90.49
  A 1.05 1.04 -83.4 0 0 1099.99 89.57
  L 1103.13 62.26
  A 0.54 0.54 0.0 0 1 1103.73 61.78"
/>
<path stroke="#ffa3c4" vector-effect="non-scaling-stroke" d="
  M 1142.88 78.37
  L 1144.55 73.82
  A 0.61 0.61 0.0 0 1 1145.35 73.47
  L 1158.19 78.81
  A 2.78 2.78 0.0 0 0 1161.63 77.71
  L 1163.51 74.67
  A 2.61 2.61 0.0 0 0 1162.53 70.99
  Q 1151.78 65.17 1140.39 61.15
  A 1.38 1.37 -68.2 0 0 1138.68 61.89
  Q 1135.72 68.61 1125.08 93.81
  Q 1123.83 96.76 1123.90 97.74
  A 1.05 1.03 13.8 0 0 1124.40 98.55
  Q 1126.10 99.54 1128.08 100.40
  Q 1132.01 102.09 1144.06 106.95
  Q 1145.31 107.45 1148.35 108.28
  A 2.04 2.04 0.0 0 0 1150.80 107.01
  L 1152.54 102.26
  A 2.09 2.09 0.0 0 0 1151.38 99.61
  L 1136.78 93.53
  A 0.77 0.76 27.3 0 1 1136.42 92.42
  L 1139.31 87.76
  A 0.73 0.73 0.0 0 1 1140.21 87.47
  L 1149.64 91.40
  A 1.58 1.57 27.0 0 0 1151.58 90.78
  L 1154.66 85.82
  A 1.56 1.56 0.0 0 0 1153.93 83.56
  L 1143.19 79.08
  A 0.57 0.56 -69.2 0 1 1142.88 78.37"
/>
<path stroke="#ffa3c4" vector-effect="non-scaling-stroke" d="
  M 1015.74 98.49
  C 1020.22 94.94 1020.12 90.14 1018.37 85.13
  Q 1014.89 75.20 1012.94 70.84
  Q 1010.56 65.52 1005.82 63.77
  C 999.88 61.56 988.76 65.78 984.03 69.48
  Q 978.42 73.86 980.78 80.23
  Q 982.10 83.78 987.80 97.02
  C 990.59 103.50 995.72 105.44 1002.34 103.89
  C 1008.19 102.53 1011.64 101.76 1015.74 98.49"
/>
<path stroke="#ffa3c4" vector-effect="non-scaling-stroke" d="
  M 1163.60 118.23
  C 1170.09 123.03 1175.38 127.97 1182.16 130.34
  Q 1187.86 132.33 1191.87 127.88
  Q 1198.06 121.00 1204.86 113.47
  C 1209.01 108.87 1206.46 101.98 1202.31 98.43
  Q 1194.90 92.09 1186.81 88.17
  A 2.93 2.93 0.0 0 0 1183.50 88.70
  Q 1182.10 90.04 1181.32 91.08
  Q 1174.21 100.60 1166.03 111.29
  Q 1164.29 113.55 1163.13 116.68
  A 1.35 1.34 28.2 0 0 1163.60 118.23"
/>
<path stroke="#ffa3c4" vector-effect="non-scaling-stroke" d="
  M 967.12 109.41
  A 0.23 0.23 0.0 0 1 966.83 109.09
  Q 967.87 106.94 968.45 105.04
  C 970.30 98.92 965.33 94.22 960.23 91.45
  C 955.40 88.84 950.55 89.87 946.37 92.90
  Q 938.78 98.39 932.52 105.48
  A 1.72 1.72 0.0 0 0 932.61 107.85
  Q 945.73 120.58 957.20 135.31
  A 1.83 1.82 -40.3 0 0 959.88 135.53
  L 966.37 129.50
  A 0.74 0.74 0.0 0 0 966.41 128.45
  L 958.38 119.80
  A 1.31 1.30 54.2 0 1 958.70 117.78
  Q 960.37 116.86 961.89 116.84
  A 3.86 3.79 -34.7 0 1 963.28 117.08
  L 972.92 120.51
  A 7.13 7.11 35.5 0 0 979.76 119.38
  L 982.15 117.48
  A 2.50 2.49 -52.4 0 0 981.60 113.24
  Q 978.13 111.72 971.73 109.48
  Q 969.35 108.65 967.12 109.41"
/>
<path stroke="#ffa3c4" vector-effect="non-scaling-stroke" d="
  M 1064.08 178.30
  A 0.59 0.59 0.0 0 1 1063.12 178.78
  L 1037.87 157.72
  A 0.53 0.53 0.0 0 0 1037.00 158.13
  L 1037.00 175.99
  A 2.33 2.33 0.0 0 0 1037.89 177.82
  L 1070.51 203.58
  A 0.91 0.91 0.0 0 0 1071.65 203.58
  Q 1087.81 190.39 1102.55 179.05
  Q 1103.96 177.97 1104.59 176.38
  A 2.03 2.01 55.3 0 0 1104.73 175.59
  L 1103.98 159.54
  A 0.58 0.58 0.0 0 0 1103.03 159.12
  Q 1094.06 166.64 1085.04 173.81
  Q 1082.78 175.60 1079.53 178.92
  A 0.59 0.59 0.0 0 1 1078.52 178.49
  Q 1078.67 170.54 1078.75 166.13
  Q 1078.78 164.70 1079.23 163.71
  C 1080.52 160.90 1085.35 157.95 1089.36 155.10
  Q 1095.88 150.47 1101.18 146.10
  C 1102.40 145.10 1103.85 144.36 1103.90 142.68
  Q 1104.17 134.01 1103.61 126.02
  A 0.94 0.94 0.0 0 0 1102.07 125.37
  L 1079.49 144.50
  A 0.37 0.36 69.7 0 1 1078.89 144.22
  L 1078.89 118.96
  A 0.58 0.58 0.0 0 0 1078.31 118.38
  L 1063.59 118.38
  A 0.47 0.47 0.0 0 0 1063.16 119.05
  L 1063.80 120.42
  A 0.86 0.84 32.1 0 1 1063.89 120.80
  L 1063.89 144.79
  A 0.40 0.40 0.0 0 1 1063.22 145.08
  Q 1052.73 135.17 1040.81 126.18
  Q 1039.60 125.27 1038.20 124.92
  A 0.90 0.89 7.5 0 0 1037.09 125.77
  Q 1036.96 133.57 1037.09 141.33
  C 1037.12 143.37 1037.59 144.19 1039.20 145.32
  Q 1046.33 150.31 1056.65 158.92
  Q 1058.73 160.66 1062.38 163.12
  A 2.44 2.42 15.9 0 1 1063.46 165.04
  L 1064.08 178.30"
/>
<path stroke="#ffa3c4" vector-effect="non-scaling-stroke" d="
  M 972.23 255.64
  L 990.71 255.64
  A 2.54 2.54 0.0 0 0 992.78 254.57
  L 1008.70 232.35
  A 2.65 2.64 17.8 0 1 1010.85 231.25
  L 1024.47 231.25
  A 0.31 0.31 0.0 0 1 1024.71 231.75
  L 1006.59 254.69
  A 0.59 0.59 0.0 0 0 1007.05 255.65
  L 1023.33 255.65
  A 3.55 3.54 17.7 0 0 1026.22 254.16
  L 1048.50 223.06
  A 1.48 1.47 43.6 0 0 1048.45 221.27
  Q 1036.88 206.95 1026.85 192.40
  Q 1025.15 189.92 1022.07 189.90
  Q 1013.92 189.85 1008.42 190.08
  A 1.03 1.03 0.0 0 0 1007.63 191.72
  L 1024.78 215.26
  A 0.32 0.32 0.0 0 1 1024.52 215.77
  L 1010.69 215.77
  A 2.07 2.07 0.0 0 1 1009.01 214.91
  Q 1002.43 205.73 994.06 194.43
  C 991.86 191.47 991.51 189.99 987.28 189.95
  Q 980.42 189.89 975.70 190.10
  A 1.26 1.26 0.0 0 0 974.73 192.09
  Q 983.97 204.91 989.40 212.80
  Q 989.89 213.51 990.42 213.92
  Q 991.45 214.73 990.97 215.46
  A 0.41 0.40 -73.5 0 1 990.63 215.65
  L 968.43 215.65
  A 0.31 0.31 0.0 0 0 968.12 215.96
  L 968.12 230.33
  A 0.72 0.72 0.0 0 0 968.84 231.05
  L 990.11 231.05
  A 0.38 0.38 0.0 0 1 990.41 231.66
  C 989.88 232.37 988.62 233.13 987.91 234.12
  Q 980.78 243.96 971.91 254.96
  A 0.42 0.41 -70.4 0 0 972.23 255.64"
/>
<path stroke="#ffa3c4" vector-effect="non-scaling-stroke" d="
  M 1166.63 255.40
  A 0.43 0.43 0.0 0 0 1166.98 254.71
  L 1150.14 231.61
  A 0.39 0.39 0.0 0 1 1150.46 230.99
  L 1173.11 230.99
  A 0.72 0.71 90.0 0 0 1173.82 230.27
  L 1173.82 216.31
  A 0.54 0.53 -90.0 0 0 1173.29 215.77
  L 1150.79 215.77
  A 0.29 0.28 -72.2 0 1 1150.56 215.32
  L 1167.91 191.10
  A 0.70 0.70 0.0 0 0 1167.34 189.99
  L 1152.43 189.99
  A 1.08 0.99 -56.7 0 0 1151.95 190.11
  Q 1150.10 191.07 1148.80 192.81
  Q 1143.01 200.55 1133.08 214.55
  A 2.84 2.84 0.0 0 1 1130.76 215.75
  L 1117.95 215.75
  A 0.42 0.42 0.0 0 1 1117.61 215.08
  Q 1129.40 199.35 1134.57 191.32
  Q 1134.82 190.93 1134.90 190.51
  A 0.48 0.48 0.0 0 0 1134.43 189.95
  Q 1123.26 190.02 1119.70 189.87
  Q 1117.16 189.77 1115.47 192.22
  Q 1105.53 206.62 1093.48 222.00
  A 1.83 1.82 -44.1 0 0 1093.44 224.20
  L 1116.04 255.22
  A 1.08 1.07 -18.2 0 0 1116.90 255.65
  L 1134.00 255.65
  A 0.41 0.40 -17.8 0 0 1134.33 255.01
  L 1117.08 231.35
  A 0.09 0.09 0.0 0 1 1117.15 231.20
  L 1132.02 231.20
  A 0.98 0.98 0.0 0 1 1132.84 231.64
  L 1148.44 254.75
  A 1.49 1.48 -16.9 0 0 1149.67 255.40
  L 1166.63 255.40"
/>
<path stroke="#ffa3c4" vector-effect="non-scaling-stroke" d="
  M 903.54 211.83
  L 909.72 209.84
  A 0.66 0.65 -18.6 0 0 910.14 209.01
  C 908.66 204.75 905.36 202.11 900.63 202.00
  Q 896.14 201.89 894.90 202.16
  Q 885.53 204.21 886.90 214.39
  C 887.73 220.56 895.13 221.70 900.48 223.18
  A 2.93 2.93 0.0 0 1 902.62 225.88
  C 902.86 231.63 895.00 231.61 893.79 226.82
  A 1.68 1.67 73.9 0 0 891.65 225.63
  L 886.88 227.15
  A 1.72 1.71 72.7 0 0 885.76 229.29
  C 887.99 236.56 895.23 237.82 901.63 236.59
  C 913.18 234.36 916.04 220.38 903.77 216.00
  Q 902.76 215.64 896.24 213.68
  A 2.27 2.23 19.5 0 1 894.78 210.68
  C 895.77 208.29 899.27 208.75 901.46 209.22
  A 1.40 1.40 0.0 0 1 902.37 209.85
  Q 903.13 211.08 903.07 211.43
  A 0.36 0.36 0.0 0 0 903.54 211.83"
/>
<path stroke="#ffa3c4" vector-effect="non-scaling-stroke" d="
  M 915.28 235.98
  L 920.90 236.13
  A 1.69 1.69 0.0 0 0 922.58 234.82
  L 923.93 228.79
  A 1.02 1.02 0.0 0 1 924.92 228.00
  L 931.80 228.00
  A 1.19 1.18 -8.2 0 1 932.94 228.85
  L 934.79 235.11
  A 1.38 1.37 81.8 0 0 936.11 236.10
  L 942.08 236.10
  A 0.93 0.92 81.2 0 0 942.96 234.89
  L 932.78 202.93
  A 1.25 1.24 80.9 0 0 931.60 202.07
  L 925.49 202.07
  A 2.32 2.32 0.0 0 0 923.27 203.72
  Q 917.66 222.26 915.91 228.21
  Q 915.31 230.25 915.15 231.32
  Q 914.67 234.66 914.59 234.80
  A 0.81 0.81 0.0 0 0 915.28 235.98"
/>
<path stroke="#ffa3c4" vector-effect="non-scaling-stroke" d="
  M 1210.99 236.16
  Q 1214.32 236.17 1214.59 236.11
  A 0.37 0.37 0.0 0 0 1214.87 235.75
  L 1214.97 209.40
  A 0.56 0.55 0.0 0 1 1215.53 208.85
  L 1222.67 208.85
  A 0.62 0.62 0.0 0 0 1223.29 208.23
  L 1223.29 202.96
  A 0.74 0.73 -89.4 0 0 1222.57 202.22
  Q 1216.95 202.13 1211.08 202.15
  Q 1205.22 202.09 1199.59 202.16
  A 0.74 0.73 89.7 0 0 1198.87 202.89
  L 1198.84 208.16
  A 0.62 0.62 0.0 0 0 1199.46 208.79
  L 1206.60 208.83
  A 0.56 0.55 0.3 0 1 1207.16 209.38
  L 1207.11 235.73
  A 0.37 0.37 0.0 0 0 1207.39 236.09
  Q 1207.66 236.15 1210.99 236.16"
/>
<path stroke="#ffa3c4" vector-effect="non-scaling-stroke" d="
  M 1225.21 236.12
  L 1232.16 236.12
  A 1.99 1.97 12.9 0 0 1233.94 235.02
  L 1238.26 226.29
  A 0.25 0.24 45.7 0 1 1238.70 226.30
  L 1243.39 235.89
  A 0.59 0.58 77.2 0 0 1243.92 236.23
  L 1252.82 236.23
  A 0.31 0.31 0.0 0 0 1253.08 235.76
  L 1243.36 220.39
  A 2.11 2.10 44.9 0 1 1243.35 218.15
  L 1252.39 203.59
  A 0.99 0.98 15.8 0 0 1251.55 202.09
  L 1245.75 202.09
  A 3.05 3.04 -76.8 0 0 1243.02 203.79
  L 1238.94 212.04
  A 0.38 0.38 0.0 0 1 1238.25 212.03
  L 1234.32 203.24
  A 1.98 1.96 -12.0 0 0 1232.52 202.08
  L 1225.62 202.08
  A 0.82 0.82 0.0 0 0 1224.91 203.31
  L 1233.52 218.22
  A 2.43 2.43 0.0 0 1 1233.30 220.97
  Q 1227.89 227.67 1224.53 235.06
  A 0.75 0.75 0.0 0 0 1225.21 236.12"
/>
<path stroke="#ffa3c4" vector-effect="non-scaling-stroke" d="
  M 1060.71 238.11
  A 0.70 0.70 0.0 0 0 1061.83 238.81
  L 1070.91 231.60
  A 0.96 0.95 -46.4 0 1 1072.05 231.57
  L 1081.76 238.53
  A 1.04 1.04 0.0 0 0 1083.37 237.42
  L 1080.52 226.69
  A 0.94 0.93 -25.2 0 1 1080.89 225.67
  Q 1085.06 222.75 1088.31 220.05
  Q 1090.00 218.64 1090.66 217.26
  A 0.70 0.70 0.0 0 0 1090.00 216.26
  L 1078.02 216.82
  A 1.40 1.39 77.2 0 1 1076.66 215.96
  L 1072.84 206.85
  A 1.12 1.12 0.0 0 0 1070.77 206.85
  L 1066.92 216.08
  A 0.79 0.79 0.0 0 1 1066.19 216.57
  L 1054.74 216.57
  A 0.96 0.95 76.0 0 0 1053.90 217.98
  C 1055.39 220.83 1059.11 223.19 1062.29 225.59
  A 2.03 2.03 0.0 0 1 1063.05 227.66
  L 1060.71 238.11"
/>
<path stroke="#ffa3c4" vector-effect="non-scaling-stroke" d="
  M 1104.97 290.09
  Q 1105.53 284.51 1105.18 276.87
  C 1105.09 274.91 1105.29 272.99 1104.08 271.65
  Q 1103.06 270.54 1101.09 268.91
  Q 1078.54 250.26 1076.52 248.75
  Q 1073.72 246.66 1071.38 244.65
  A 1.22 1.22 0.0 0 0 1069.88 244.58
  Q 1065.26 247.84 1061.34 251.35
  Q 1052.22 259.52 1039.62 269.62
  C 1036.39 272.21 1036.84 274.62 1036.86 279.08
  Q 1036.90 284.52 1037.05 289.18
  A 0.98 0.98 0.0 0 0 1038.62 289.94
  Q 1052.51 279.57 1062.34 270.51
  A 0.49 0.49 0.0 0 1 1063.17 270.88
  Q 1062.99 280.00 1063.00 284.26
  Q 1063.01 286.07 1061.33 287.36
  Q 1049.48 296.53 1037.18 307.74
  A 3.18 3.16 68.9 0 0 1036.15 310.08
  L 1036.15 326.42
  A 0.70 0.70 0.0 0 0 1037.25 327.00
  Q 1045.53 321.33 1053.47 313.50
  C 1056.53 310.47 1059.71 307.80 1062.64 305.58
  A 0.71 0.70 71.5 0 1 1063.77 306.15
  L 1063.77 328.16
  A 0.73 0.73 0.0 0 0 1064.50 328.89
  L 1077.94 328.89
  A 0.58 0.58 0.0 0 0 1078.52 328.31
  C 1078.59 320.19 1079.03 312.22 1077.90 305.35
  A 0.26 0.26 0.0 0 1 1078.32 305.10
  L 1105.21 326.34
  A 0.50 0.50 0.0 0 0 1106.02 325.94
  L 1106.02 309.83
  A 2.97 2.96 -70.9 0 0 1104.89 307.50
  Q 1092.76 297.98 1080.17 288.21
  Q 1078.61 287.00 1078.65 284.50
  Q 1078.77 276.11 1078.17 271.23
  A 0.59 0.59 0.0 0 1 1079.05 270.65
  C 1080.11 271.26 1080.68 272.25 1081.52 272.90
  Q 1092.14 281.02 1102.10 289.39
  Q 1102.95 290.11 1104.36 290.51
  A 0.49 0.48 10.1 0 0 1104.97 290.09"
/>
<path stroke="#ffa3c4" vector-effect="non-scaling-stroke" d="
  M 937.09 313.64
  L 941.26 315.70
  A 0.98 0.97 37.9 0 0 942.33 315.57
  L 944.90 313.39
  A 1.01 0.98 77.9 0 0 945.24 312.85
  Q 946.70 307.09 944.04 302.74
  C 941.16 298.02 934.35 293.19 928.63 296.13
  Q 920.24 300.44 914.49 307.45
  Q 912.32 310.09 911.93 314.46
  C 911.49 319.41 914.76 323.41 918.55 326.47
  Q 923.46 330.43 929.76 328.32
  C 932.38 327.44 932.46 324.49 932.19 322.15
  A 1.34 1.32 -75.7 0 0 931.65 321.23
  Q 929.34 319.57 927.63 320.39
  Q 926.04 321.15 925.19 320.85
  C 920.36 319.08 919.04 315.83 922.71 311.66
  Q 926.54 307.31 930.30 304.38
  A 2.54 2.53 34.2 0 1 932.56 303.95
  Q 935.63 304.85 937.71 307.66
  A 1.02 1.01 -55.1 0 1 937.86 308.54
  L 936.66 312.64
  A 0.84 0.84 0.0 0 0 937.09 313.64"
/>
<path stroke="#ffa3c4" vector-effect="non-scaling-stroke" d="
  M 1220.47 331.47
  C 1226.15 327.78 1232.31 319.26 1227.25 312.80
  Q 1223.67 308.23 1217.58 303.29
  C 1213.50 299.97 1209.71 297.00 1204.81 298.63
  C 1197.15 301.17 1190.25 308.63 1192.25 317.24
  C 1193.42 322.28 1201.46 327.76 1205.81 330.67
  C 1210.59 333.87 1215.92 334.43 1220.47 331.47"
/>
<path stroke="#ffa3c4" vector-effect="non-scaling-stroke" d="
  M 1241.6869 302.9225
  A 5.51 5.20 -22.6 0 0 1234.6017 300.2393
  A 5.51 5.20 -22.6 0 0 1231.5131 307.1575
  A 5.51 5.20 -22.6 0 0 1238.5983 309.8407
  A 5.51 5.20 -22.6 0 0 1241.6869 302.9225"
/>
<path stroke="#ffa3c4" vector-effect="non-scaling-stroke" d="
  M 952.78 344.71
  Q 958.36 345.64 963.57 341.03
  C 973.82 331.97 960.55 321.54 953.93 316.57
  A 1.05 1.04 -41.6 0 0 952.78 316.51
  Q 951.59 317.22 950.87 317.87
  Q 946.83 321.57 931.03 337.34
  A 3.87 3.87 0.0 0 0 930.73 342.49
  L 931.85 343.99
  A 2.42 2.42 0.0 0 0 935.57 344.17
  L 941.23 337.98
  A 0.93 0.93 0.0 0 1 942.54 337.92
  L 944.85 340.03
  A 0.91 0.89 -66.8 0 1 945.13 340.75
  C 944.79 344.99 942.74 349.44 942.88 354.76
  A 1.14 1.14 0.0 0 0 943.42 355.69
  L 945.64 357.07
  A 2.02 2.01 32.6 0 0 948.39 356.47
  Q 952.00 350.95 952.00 345.37
  A 0.68 0.67 4.4 0 1 952.78 344.71"
/>
<path stroke="#ffa3c4" vector-effect="non-scaling-stroke" d="
  M 1194.46 341.80
  C 1195.55 346.01 1194.84 350.48 1189.45 350.52
  Q 1187.99 350.54 1185.93 348.61
  C 1182.54 345.44 1178.22 341.08 1178.83 336.51
  C 1179.56 331.00 1189.34 335.27 1190.17 328.02
  A 2.52 2.25 11.4 0 0 1188.30 325.53
  C 1181.73 323.74 1172.27 326.32 1169.83 333.44
  C 1167.20 341.15 1172.24 347.68 1177.53 353.24
  C 1181.55 357.47 1183.86 359.47 1189.76 359.11
  C 1195.82 358.75 1201.32 353.38 1203.21 348.02
  C 1204.12 345.46 1204.31 340.51 1200.95 340.15
  Q 1198.02 339.84 1194.70 341.30
  A 0.42 0.41 71.1 0 0 1194.46 341.80"
/>
<path stroke="#ffa3c4" vector-effect="non-scaling-stroke" d="
  M 988.98 353.30
  L 992.51 350.61
  A 1.04 1.04 0.0 0 0 992.58 349.02
  Q 986.89 343.85 977.87 337.84
  Q 975.97 336.57 974.51 338.45
  Q 963.97 352.05 956.43 362.43
  A 0.50 0.49 -53.1 0 0 956.52 363.11
  L 971.82 375.20
  A 2.18 2.17 32.3 0 0 975.12 374.46
  L 976.61 371.46
  A 2.54 2.53 -59.1 0 0 975.82 368.28
  L 967.35 362.21
  A 0.68 0.68 0.0 0 1 967.21 361.24
  L 969.88 357.86
  A 0.93 0.92 38.2 0 1 971.18 357.71
  L 977.28 362.53
  A 2.11 2.10 41.6 0 0 980.07 362.37
  L 982.55 359.89
  A 1.63 1.63 0.0 0 0 982.44 357.48
  L 976.72 352.71
  A 1.42 1.41 33.3 0 1 976.36 350.99
  L 977.73 348.22
  A 1.08 1.08 0.0 0 1 979.33 347.82
  L 987.01 353.32
  A 1.66 1.65 -45.5 0 0 988.98 353.30"
/>
<path stroke="#ffa3c4" vector-effect="non-scaling-stroke" d="
  M 1154.32 356.07
  C 1152.27 351.62 1149.14 350.50 1144.46 351.41
  C 1137.01 352.88 1128.33 358.26 1132.18 367.22
  Q 1135.02 373.82 1143.40 372.90
  C 1145.76 372.63 1152.40 368.89 1154.07 373.17
  C 1155.44 376.67 1151.81 378.90 1148.87 379.57
  A 1.92 1.87 -39.3 0 1 1147.73 379.47
  L 1145.18 378.40
  A 1.03 1.01 39.6 0 0 1144.25 378.48
  L 1139.73 381.34
  A 0.78 0.78 0.0 0 0 1139.44 382.34
  Q 1142.87 389.50 1150.22 387.52
  C 1155.22 386.17 1162.21 381.70 1163.18 376.21
  C 1164.19 370.48 1160.10 364.62 1154.45 363.58
  C 1151.02 362.95 1145.40 364.99 1142.94 365.41
  C 1138.57 366.16 1138.65 361.40 1141.00 359.33
  A 1.63 1.61 21.3 0 1 1141.91 358.94
  Q 1144.70 358.69 1146.89 359.63
  A 1.67 1.66 -45.2 0 0 1148.19 359.62
  L 1153.93 357.10
  A 0.77 0.77 0.0 0 0 1154.32 356.07"
/>
<path stroke="#ffa3c4" vector-effect="non-scaling-stroke" d="
  M 983.25 381.95
  L 987.12 383.87
  A 2.00 2.00 0.0 0 0 989.64 383.24
  L 992.47 379.29
  A 1.08 1.07 -61.8 0 1 993.71 378.91
  L 1001.69 381.83
  A 0.78 0.77 12.0 0 1 1002.20 382.61
  L 1001.84 387.56
  A 1.66 1.66 0.0 0 0 1002.88 389.21
  L 1007.50 391.05
  A 1.30 1.30 0.0 0 0 1009.27 389.99
  L 1012.80 359.33
  A 1.11 1.10 -76.2 0 0 1012.11 358.18
  L 1004.15 355.01
  A 1.62 1.62 0.0 0 0 1002.26 355.53
  C 996.26 363.39 988.81 371.37 982.73 379.89
  A 1.40 1.39 31.0 0 0 983.25 381.95"
/>
<path stroke="#ffa3c4" vector-effect="non-scaling-stroke" d="
  M 1120.47 380.84
  L 1105.34 364.55
  A 1.29 1.28 -31.4 0 0 1103.95 364.22
  L 1098.94 366.08
  A 2.32 2.32 0.0 0 0 1097.52 368.91
  L 1106.33 398.82
  A 1.01 1.01 0.0 0 0 1107.56 399.51
  L 1113.67 397.88
  A 0.98 0.98 0.0 0 0 1114.36 396.64
  Q 1112.62 390.89 1110.97 384.11
  C 1110.55 382.40 1109.54 380.49 1108.98 379.46
  A 0.38 0.38 0.0 0 1 1109.55 378.98
  Q 1110.85 380.02 1112.57 382.16
  A 4.27 4.21 -89.6 0 0 1113.25 382.86
  Q 1120.39 388.89 1125.02 395.33
  A 1.13 1.11 63.5 0 0 1126.25 395.75
  L 1132.15 394.01
  A 1.24 1.24 0.0 0 0 1132.99 392.47
  L 1123.85 361.43
  A 1.87 1.87 0.0 0 0 1121.52 360.17
  L 1116.05 361.78
  A 1.56 1.56 0.0 0 0 1115.02 363.82
  L 1121.18 380.40
  A 0.43 0.42 -76.7 0 1 1120.47 380.84"
/>
<path stroke="#ffa3c4" vector-effect="non-scaling-stroke" d="
  M 1027.25 370.30
  L 1022.07 393.36
  A 1.79 1.79 0.0 0 0 1023.43 395.50
  L 1027.84 396.49
  A 1.85 1.84 12.6 0 0 1030.04 395.10
  L 1035.14 372.39
  A 0.56 0.56 0.0 0 1 1035.79 371.96
  L 1043.62 373.40
  A 1.46 1.46 0.0 0 0 1044.72 373.16
  Q 1045.21 372.86 1045.41 371.97
  C 1045.63 370.98 1045.94 369.05 1045.51 367.98
  A 1.08 1.05 -0.9 0 0 1044.85 367.36
  Q 1034.60 364.10 1022.54 361.86
  A 1.51 1.49 -78.4 0 0 1020.81 363.01
  L 1019.92 366.98
  A 1.60 1.60 0.0 0 0 1021.29 368.92
  L 1026.71 369.54
  A 0.63 0.63 0.0 0 1 1027.25 370.30"
/>
<path stroke="#ffa3c4" vector-effect="non-scaling-stroke" d="
  M 1066.71 371.92
  Q 1065.85 373.58 1065.84 377.02
  Q 1065.83 383.30 1066.07 392.52
  Q 1066.30 401.91 1075.53 402.85
  Q 1082.22 403.53 1088.45 401.03
  C 1094.51 398.59 1094.06 393.07 1094.01 387.56
  Q 1093.96 381.66 1092.63 375.34
  Q 1091.22 368.61 1084.40 368.14
  C 1079.05 367.76 1071.95 367.72 1067.44 371.07
  A 2.55 2.50 86.2 0 0 1066.71 371.92"
/>
<path stroke="#ffa3c4" vector-effect="non-scaling-stroke" d="
  M 1052.20 368.53
  A 1.21 1.21 0.0 0 0 1050.88 369.63
  L 1048.11 399.47
  A 1.21 1.21 0.0 0 0 1049.32 400.79
  L 1055.33 400.79
  A 1.21 1.21 0.0 0 0 1056.53 399.69
  L 1059.24 370.40
  A 1.21 1.21 0.0 0 0 1058.15 369.09
  L 1052.20 368.53"
/>
<path stroke="#ffa3c4" vector-effect="non-scaling-stroke" d="
  M 1053.3937 63.3766
  A 4.31 4.31 0.0 0 0 1048.4315 59.8371
  L 1044.5258 60.4907
  A 4.31 4.31 0.0 0 0 1040.9863 65.4529
  L 1043.0263 77.6434
  A 4.31 4.31 0.0 0 0 1047.9885 81.1829
  L 1051.8942 80.5293
  A 4.31 4.31 0.0 0 0 1055.4337 75.5671
  L 1053.3937 63.3766"
/>
<path stroke="#ffa3c4" vector-effect="non-scaling-stroke" d="
  M 993.93 74.45
  A 3.72 3.72 0.0 0 0 991.63 79.43
  L 996.95 92.15
  A 3.72 3.72 0.0 0 0 1001.52 94.25
  L 1005.97 92.83
  A 3.72 3.72 0.0 0 0 1008.27 87.85
  L 1002.95 75.14
  A 3.72 3.72 0.0 0 0 998.39 73.03
  L 993.93 74.45"
/>
<path stroke="#ffa3c4" vector-effect="non-scaling-stroke" d="
  M 1175.97 116.56
  C 1179.18 118.54 1183.04 122.29 1186.10 119.07
  Q 1189.87 115.12 1194.22 109.71
  Q 1196.02 107.48 1195.29 106.04
  C 1194.15 103.82 1191.92 101.56 1189.49 100.26
  A 1.43 1.43 0.0 0 0 1187.70 100.63
  L 1175.81 115.68
  A 0.60 0.60 0.0 0 0 1175.97 116.56"
/>
<path stroke="#ffa3c4" vector-effect="non-scaling-stroke" d="
  M 946.39 106.40
  L 950.78 111.28
  A 1.41 1.41 0.0 0 0 952.77 111.38
  L 956.07 108.41
  A 4.85 3.50 -42.0 0 0 957.33 102.56
  L 955.74 100.80
  A 4.85 3.50 -42.0 0 0 949.79 101.44
  L 946.49 104.41
  A 1.41 1.41 0.0 0 0 946.39 106.40"
/>
<path stroke="#ffa3c4" vector-effect="non-scaling-stroke" d="
  M 926.11 221.20
  L 930.58 220.99
  A 0.28 0.28 0.0 0 0 930.83 220.64
  L 928.64 212.37
  A 0.27 0.27 0.0 0 0 928.13 212.32
  Q 926.30 216.02 925.80 220.88
  A 0.30 0.29 1.7 0 0 926.11 221.20"
/>
<path stroke="#ffa3c4" vector-effect="non-scaling-stroke" d="
  M 1218.8078 322.2235
  A 4.73 4.73 0.0 0 0 1218.1085 315.5709
  L 1209.4978 308.5981
  A 4.73 4.73 0.0 0 0 1202.8452 309.2973
  L 1202.0522 310.2765
  A 4.73 4.73 0.0 0 0 1202.7515 316.9291
  L 1211.3622 323.9019
  A 4.73 4.73 0.0 0 0 1218.0148 323.2027
  L 1218.8078 322.2235"
/>
<path stroke="#ffa3c4" vector-effect="non-scaling-stroke" d="
  M 958.1968 334.5591
  A 3.10 3.10 0.0 0 0 958.0209 330.1786
  L 956.0513 328.3611
  A 3.10 3.10 0.0 0 0 951.6708 328.5371
  L 950.0432 330.3009
  A 3.10 3.10 0.0 0 0 950.2191 334.6814
  L 952.1887 336.4989
  A 3.10 3.10 0.0 0 0 956.5692 336.3229
  L 958.1968 334.5591"
/>
<path stroke="#ffa3c4" vector-effect="non-scaling-stroke" d="
  M 1004.92 363.78
  L 997.86 372.71
  A 0.61 0.58 63.4 0 0 997.74 373.10
  Q 997.75 373.60 998.10 373.78
  Q 998.48 373.97 998.70 373.98
  Q 1001.20 374.06 1002.78 375.23
  A 0.47 0.47 0.0 0 0 1003.52 374.92
  L 1005.25 363.92
  A 0.19 0.18 -21.7 0 0 1004.92 363.78"
/>
<path stroke="#ffa3c4" vector-effect="non-scaling-stroke" d="
  M 1084.9991 378.9397
  A 3.90 3.90 0.0 0 0 1080.8939 375.2563
  L 1077.6386 375.4326
  A 3.90 3.90 0.0 0 0 1073.9552 379.5378
  L 1074.6009 391.4603
  A 3.90 3.90 0.0 0 0 1078.7061 395.1437
  L 1081.9614 394.9674
  A 3.90 3.90 0.0 0 0 1085.6448 390.8622
  L 1084.9991 378.9397"
/>
<path fill="#ff4788" d="
  M 1040.50 16.65
  Q 1041.33 16.60 1041.97 16.39
  A 5.81 5.77 38.6 0 1 1044.39 16.13
  Q 1045.08 16.21 1055.00 15.38
  Q 1062.72 14.74 1081.23 15.18
  C 1083.00 15.23 1085.98 15.61 1088.28 15.65
  Q 1094.80 15.76 1105.61 17.44
  Q 1121.43 19.89 1137.36 24.68
  Q 1190.44 40.63 1229.98 80.28
  Q 1277.56 127.99 1290.62 193.91
  Q 1292.05 201.17 1292.65 208.28
  C 1293.25 215.54 1294.02 220.75 1294.06 227.59
  Q 1294.11 239.92 1293.95 246.46
  A 7.71 7.47 52.8 0 1 1293.78 247.86
  C 1292.99 251.49 1293.06 254.70 1292.62 258.69
  Q 1289.96 282.77 1279.07 309.78
  Q 1260.60 355.58 1223.61 388.60
  Q 1201.03 408.77 1176.00 420.74
  C 1157.03 429.81 1136.30 437.22 1115.52 440.45
  Q 1106.65 441.83 1105.14 442.04
  Q 1098.36 442.96 1096.21 443.00
  C 1091.66 443.09 1088.54 443.90 1084.25 443.94
  Q 1067.20 444.11 1061.01 443.85
  Q 1037.91 442.88 1015.53 437.91
  Q 996.95 433.78 975.44 424.45
  Q 956.62 416.30 938.78 403.44
  Q 902.08 376.98 878.79 338.75
  Q 856.92 302.85 849.37 259.22
  C 848.95 256.82 848.86 254.06 848.51 251.28
  Q 846.25 233.27 847.59 213.23
  Q 848.44 200.35 849.98 192.00
  C 852.34 179.17 855.38 166.43 860.07 154.38
  Q 879.53 104.31 919.25 69.52
  C 936.04 54.82 955.49 42.24 976.69 33.33
  Q 1000.73 23.24 1025.46 18.51
  Q 1032.83 17.10 1040.50 16.65
  Z
  M 881.26 134.47
  Q 871.50 153.24 866.44 170.16
  Q 862.12 184.59 860.11 198.01
  Q 859.52 201.92 858.70 209.51
  C 857.63 219.32 857.63 232.09 858.09 239.01
  Q 859.43 259.06 864.77 279.48
  C 869.12 296.11 875.81 311.14 884.09 326.81
  Q 889.94 337.88 897.29 347.78
  Q 920.89 379.57 954.06 400.88
  C 979.85 417.45 1010.22 427.80 1040.75 431.75
  C 1043.87 432.16 1048.09 431.96 1051.73 432.50
  Q 1063.50 434.24 1075.50 433.80
  Q 1091.04 433.22 1106.63 431.14
  Q 1122.31 429.05 1137.09 424.42
  Q 1157.89 417.92 1173.34 410.10
  C 1220.55 386.21 1255.90 344.97 1273.15 294.69
  Q 1287.56 252.69 1281.84 207.31
  C 1281.59 205.34 1280.93 202.80 1280.91 200.37
  A 5.11 5.04 39.4 0 0 1280.80 199.32
  Q 1277.86 185.40 1276.99 182.27
  Q 1263.72 134.19 1231.44 97.31
  Q 1190.36 50.38 1129.80 33.54
  Q 1124.83 32.16 1117.66 30.62
  Q 1108.50 28.65 1105.42 28.15
  Q 1093.98 26.29 1088.50 26.09
  C 1080.91 25.81 1072.47 24.96 1065.16 25.51
  C 1059.27 25.95 1052.95 25.77 1046.64 26.56
  Q 1044.64 26.81 1026.23 29.65
  Q 1018.50 30.85 1011.49 32.68
  Q 971.89 43.05 940.87 66.16
  C 916.00 84.69 895.49 107.07 881.26 134.47
  Z"
/>
<path fill="#ff4788" d="
  M 1088.50 33.57
  C 1091.68 33.84 1094.61 33.80 1097.49 34.30
  Q 1115.46 37.41 1123.33 39.46
  Q 1137.61 43.17 1155.00 50.65
  Q 1171.78 57.87 1184.65 66.40
  Q 1205.72 80.38 1223.01 99.75
  Q 1237.54 116.03 1248.62 134.36
  Q 1251.03 138.36 1256.44 149.68
  Q 1260.79 158.80 1263.25 165.43
  Q 1272.23 189.68 1274.57 215.51
  Q 1274.72 217.16 1274.73 217.25
  C 1275.15 225.44 1275.81 232.26 1275.41 240.24
  Q 1274.57 257.01 1271.96 269.77
  Q 1267.59 291.03 1257.27 313.03
  Q 1248.40 331.94 1237.08 346.82
  Q 1211.60 380.32 1175.09 400.28
  C 1168.00 404.16 1158.14 408.43 1149.98 411.70
  Q 1138.42 416.35 1121.19 420.37
  Q 1095.08 426.47 1062.25 425.93
  Q 1059.35 425.89 1056.00 425.54
  Q 1047.60 424.66 1044.33 424.40
  Q 1037.75 423.87 1032.72 422.96
  Q 1018.71 420.44 1006.16 416.20
  Q 990.59 410.95 978.51 405.34
  C 962.30 397.80 947.76 387.35 933.44 375.46
  Q 921.71 365.73 909.69 350.74
  Q 871.41 302.97 866.10 241.72
  Q 865.45 234.18 865.72 223.25
  Q 865.97 213.26 867.12 204.88
  Q 875.19 146.32 913.58 101.39
  Q 927.69 84.87 944.42 72.94
  Q 950.56 68.56 953.22 66.72
  Q 956.87 64.18 962.35 60.98
  Q 976.93 52.45 990.89 46.94
  Q 1003.92 41.79 1019.27 38.03
  Q 1022.99 37.12 1024.39 37.03
  C 1027.66 36.83 1029.68 35.73 1032.74 35.97
  A 4.90 4.68 41.5 0 0 1033.81 35.93
  Q 1048.45 33.54 1053.26 33.31
  Q 1073.61 32.33 1088.50 33.57
  Z
  M 1032.68 79.94
  A 12.15 12.15 0.0 0 0 1045.77 90.35
  L 1054.85 89.55
  A 12.15 12.15 0.0 0 0 1065.82 75.76
  L 1063.63 60.07
  A 12.15 12.15 0.0 0 0 1049.42 49.80
  L 1040.44 51.43
  A 12.15 12.15 0.0 0 0 1030.58 65.09
  L 1032.68 79.94
  Z
  M 1103.73 61.78
  L 1112.98 62.84
  A 1.97 1.97 0.0 0 0 1115.17 61.10
  L 1115.81 55.57
  A 1.71 1.70 -83.6 0 0 1114.31 53.68
  L 1083.51 50.14
  A 0.60 0.60 0.0 0 0 1082.84 50.67
  L 1082.01 57.91
  A 0.94 0.94 0.0 0 0 1082.65 58.91
  Q 1086.86 60.30 1091.84 60.17
  A 0.83 0.82 2.7 0 1 1092.68 61.09
  L 1089.56 88.26
  A 1.16 1.15 -83.5 0 0 1090.57 89.54
  L 1098.84 90.49
  A 1.05 1.04 -83.4 0 0 1099.99 89.57
  L 1103.13 62.26
  A 0.54 0.54 0.0 0 1 1103.73 61.78
  Z
  M 1142.88 78.37
  L 1144.55 73.82
  A 0.61 0.61 0.0 0 1 1145.35 73.47
  L 1158.19 78.81
  A 2.78 2.78 0.0 0 0 1161.63 77.71
  L 1163.51 74.67
  A 2.61 2.61 0.0 0 0 1162.53 70.99
  Q 1151.78 65.17 1140.39 61.15
  A 1.38 1.37 -68.2 0 0 1138.68 61.89
  Q 1135.72 68.61 1125.08 93.81
  Q 1123.83 96.76 1123.90 97.74
  A 1.05 1.03 13.8 0 0 1124.40 98.55
  Q 1126.10 99.54 1128.08 100.40
  Q 1132.01 102.09 1144.06 106.95
  Q 1145.31 107.45 1148.35 108.28
  A 2.04 2.04 0.0 0 0 1150.80 107.01
  L 1152.54 102.26
  A 2.09 2.09 0.0 0 0 1151.38 99.61
  L 1136.78 93.53
  A 0.77 0.76 27.3 0 1 1136.42 92.42
  L 1139.31 87.76
  A 0.73 0.73 0.0 0 1 1140.21 87.47
  L 1149.64 91.40
  A 1.58 1.57 27.0 0 0 1151.58 90.78
  L 1154.66 85.82
  A 1.56 1.56 0.0 0 0 1153.93 83.56
  L 1143.19 79.08
  A 0.57 0.56 -69.2 0 1 1142.88 78.37
  Z
  M 1015.74 98.49
  C 1020.22 94.94 1020.12 90.14 1018.37 85.13
  Q 1014.89 75.20 1012.94 70.84
  Q 1010.56 65.52 1005.82 63.77
  C 999.88 61.56 988.76 65.78 984.03 69.48
  Q 978.42 73.86 980.78 80.23
  Q 982.10 83.78 987.80 97.02
  C 990.59 103.50 995.72 105.44 1002.34 103.89
  C 1008.19 102.53 1011.64 101.76 1015.74 98.49
  Z
  M 1163.60 118.23
  C 1170.09 123.03 1175.38 127.97 1182.16 130.34
  Q 1187.86 132.33 1191.87 127.88
  Q 1198.06 121.00 1204.86 113.47
  C 1209.01 108.87 1206.46 101.98 1202.31 98.43
  Q 1194.90 92.09 1186.81 88.17
  A 2.93 2.93 0.0 0 0 1183.50 88.70
  Q 1182.10 90.04 1181.32 91.08
  Q 1174.21 100.60 1166.03 111.29
  Q 1164.29 113.55 1163.13 116.68
  A 1.35 1.34 28.2 0 0 1163.60 118.23
  Z
  M 967.12 109.41
  A 0.23 0.23 0.0 0 1 966.83 109.09
  Q 967.87 106.94 968.45 105.04
  C 970.30 98.92 965.33 94.22 960.23 91.45
  C 955.40 88.84 950.55 89.87 946.37 92.90
  Q 938.78 98.39 932.52 105.48
  A 1.72 1.72 0.0 0 0 932.61 107.85
  Q 945.73 120.58 957.20 135.31
  A 1.83 1.82 -40.3 0 0 959.88 135.53
  L 966.37 129.50
  A 0.74 0.74 0.0 0 0 966.41 128.45
  L 958.38 119.80
  A 1.31 1.30 54.2 0 1 958.70 117.78
  Q 960.37 116.86 961.89 116.84
  A 3.86 3.79 -34.7 0 1 963.28 117.08
  L 972.92 120.51
  A 7.13 7.11 35.5 0 0 979.76 119.38
  L 982.15 117.48
  A 2.50 2.49 -52.4 0 0 981.60 113.24
  Q 978.13 111.72 971.73 109.48
  Q 969.35 108.65 967.12 109.41
  Z
  M 1064.08 178.30
  A 0.59 0.59 0.0 0 1 1063.12 178.78
  L 1037.87 157.72
  A 0.53 0.53 0.0 0 0 1037.00 158.13
  L 1037.00 175.99
  A 2.33 2.33 0.0 0 0 1037.89 177.82
  L 1070.51 203.58
  A 0.91 0.91 0.0 0 0 1071.65 203.58
  Q 1087.81 190.39 1102.55 179.05
  Q 1103.96 177.97 1104.59 176.38
  A 2.03 2.01 55.3 0 0 1104.73 175.59
  L 1103.98 159.54
  A 0.58 0.58 0.0 0 0 1103.03 159.12
  Q 1094.06 166.64 1085.04 173.81
  Q 1082.78 175.60 1079.53 178.92
  A 0.59 0.59 0.0 0 1 1078.52 178.49
  Q 1078.67 170.54 1078.75 166.13
  Q 1078.78 164.70 1079.23 163.71
  C 1080.52 160.90 1085.35 157.95 1089.36 155.10
  Q 1095.88 150.47 1101.18 146.10
  C 1102.40 145.10 1103.85 144.36 1103.90 142.68
  Q 1104.17 134.01 1103.61 126.02
  A 0.94 0.94 0.0 0 0 1102.07 125.37
  L 1079.49 144.50
  A 0.37 0.36 69.7 0 1 1078.89 144.22
  L 1078.89 118.96
  A 0.58 0.58 0.0 0 0 1078.31 118.38
  L 1063.59 118.38
  A 0.47 0.47 0.0 0 0 1063.16 119.05
  L 1063.80 120.42
  A 0.86 0.84 32.1 0 1 1063.89 120.80
  L 1063.89 144.79
  A 0.40 0.40 0.0 0 1 1063.22 145.08
  Q 1052.73 135.17 1040.81 126.18
  Q 1039.60 125.27 1038.20 124.92
  A 0.90 0.89 7.5 0 0 1037.09 125.77
  Q 1036.96 133.57 1037.09 141.33
  C 1037.12 143.37 1037.59 144.19 1039.20 145.32
  Q 1046.33 150.31 1056.65 158.92
  Q 1058.73 160.66 1062.38 163.12
  A 2.44 2.42 15.9 0 1 1063.46 165.04
  L 1064.08 178.30
  Z
  M 972.23 255.64
  L 990.71 255.64
  A 2.54 2.54 0.0 0 0 992.78 254.57
  L 1008.70 232.35
  A 2.65 2.64 17.8 0 1 1010.85 231.25
  L 1024.47 231.25
  A 0.31 0.31 0.0 0 1 1024.71 231.75
  L 1006.59 254.69
  A 0.59 0.59 0.0 0 0 1007.05 255.65
  L 1023.33 255.65
  A 3.55 3.54 17.7 0 0 1026.22 254.16
  L 1048.50 223.06
  A 1.48 1.47 43.6 0 0 1048.45 221.27
  Q 1036.88 206.95 1026.85 192.40
  Q 1025.15 189.92 1022.07 189.90
  Q 1013.92 189.85 1008.42 190.08
  A 1.03 1.03 0.0 0 0 1007.63 191.72
  L 1024.78 215.26
  A 0.32 0.32 0.0 0 1 1024.52 215.77
  L 1010.69 215.77
  A 2.07 2.07 0.0 0 1 1009.01 214.91
  Q 1002.43 205.73 994.06 194.43
  C 991.86 191.47 991.51 189.99 987.28 189.95
  Q 980.42 189.89 975.70 190.10
  A 1.26 1.26 0.0 0 0 974.73 192.09
  Q 983.97 204.91 989.40 212.80
  Q 989.89 213.51 990.42 213.92
  Q 991.45 214.73 990.97 215.46
  A 0.41 0.40 -73.5 0 1 990.63 215.65
  L 968.43 215.65
  A 0.31 0.31 0.0 0 0 968.12 215.96
  L 968.12 230.33
  A 0.72 0.72 0.0 0 0 968.84 231.05
  L 990.11 231.05
  A 0.38 0.38 0.0 0 1 990.41 231.66
  C 989.88 232.37 988.62 233.13 987.91 234.12
  Q 980.78 243.96 971.91 254.96
  A 0.42 0.41 -70.4 0 0 972.23 255.64
  Z
  M 1166.63 255.40
  A 0.43 0.43 0.0 0 0 1166.98 254.71
  L 1150.14 231.61
  A 0.39 0.39 0.0 0 1 1150.46 230.99
  L 1173.11 230.99
  A 0.72 0.71 90.0 0 0 1173.82 230.27
  L 1173.82 216.31
  A 0.54 0.53 -90.0 0 0 1173.29 215.77
  L 1150.79 215.77
  A 0.29 0.28 -72.2 0 1 1150.56 215.32
  L 1167.91 191.10
  A 0.70 0.70 0.0 0 0 1167.34 189.99
  L 1152.43 189.99
  A 1.08 0.99 -56.7 0 0 1151.95 190.11
  Q 1150.10 191.07 1148.80 192.81
  Q 1143.01 200.55 1133.08 214.55
  A 2.84 2.84 0.0 0 1 1130.76 215.75
  L 1117.95 215.75
  A 0.42 0.42 0.0 0 1 1117.61 215.08
  Q 1129.40 199.35 1134.57 191.32
  Q 1134.82 190.93 1134.90 190.51
  A 0.48 0.48 0.0 0 0 1134.43 189.95
  Q 1123.26 190.02 1119.70 189.87
  Q 1117.16 189.77 1115.47 192.22
  Q 1105.53 206.62 1093.48 222.00
  A 1.83 1.82 -44.1 0 0 1093.44 224.20
  L 1116.04 255.22
  A 1.08 1.07 -18.2 0 0 1116.90 255.65
  L 1134.00 255.65
  A 0.41 0.40 -17.8 0 0 1134.33 255.01
  L 1117.08 231.35
  A 0.09 0.09 0.0 0 1 1117.15 231.20
  L 1132.02 231.20
  A 0.98 0.98 0.0 0 1 1132.84 231.64
  L 1148.44 254.75
  A 1.49 1.48 -16.9 0 0 1149.67 255.40
  L 1166.63 255.40
  Z
  M 903.54 211.83
  L 909.72 209.84
  A 0.66 0.65 -18.6 0 0 910.14 209.01
  C 908.66 204.75 905.36 202.11 900.63 202.00
  Q 896.14 201.89 894.90 202.16
  Q 885.53 204.21 886.90 214.39
  C 887.73 220.56 895.13 221.70 900.48 223.18
  A 2.93 2.93 0.0 0 1 902.62 225.88
  C 902.86 231.63 895.00 231.61 893.79 226.82
  A 1.68 1.67 73.9 0 0 891.65 225.63
  L 886.88 227.15
  A 1.72 1.71 72.7 0 0 885.76 229.29
  C 887.99 236.56 895.23 237.82 901.63 236.59
  C 913.18 234.36 916.04 220.38 903.77 216.00
  Q 902.76 215.64 896.24 213.68
  A 2.27 2.23 19.5 0 1 894.78 210.68
  C 895.77 208.29 899.27 208.75 901.46 209.22
  A 1.40 1.40 0.0 0 1 902.37 209.85
  Q 903.13 211.08 903.07 211.43
  A 0.36 0.36 0.0 0 0 903.54 211.83
  Z
  M 915.28 235.98
  L 920.90 236.13
  A 1.69 1.69 0.0 0 0 922.58 234.82
  L 923.93 228.79
  A 1.02 1.02 0.0 0 1 924.92 228.00
  L 931.80 228.00
  A 1.19 1.18 -8.2 0 1 932.94 228.85
  L 934.79 235.11
  A 1.38 1.37 81.8 0 0 936.11 236.10
  L 942.08 236.10
  A 0.93 0.92 81.2 0 0 942.96 234.89
  L 932.78 202.93
  A 1.25 1.24 80.9 0 0 931.60 202.07
  L 925.49 202.07
  A 2.32 2.32 0.0 0 0 923.27 203.72
  Q 917.66 222.26 915.91 228.21
  Q 915.31 230.25 915.15 231.32
  Q 914.67 234.66 914.59 234.80
  A 0.81 0.81 0.0 0 0 915.28 235.98
  Z
  M 1210.99 236.16
  Q 1214.32 236.17 1214.59 236.11
  A 0.37 0.37 0.0 0 0 1214.87 235.75
  L 1214.97 209.40
  A 0.56 0.55 0.0 0 1 1215.53 208.85
  L 1222.67 208.85
  A 0.62 0.62 0.0 0 0 1223.29 208.23
  L 1223.29 202.96
  A 0.74 0.73 -89.4 0 0 1222.57 202.22
  Q 1216.95 202.13 1211.08 202.15
  Q 1205.22 202.09 1199.59 202.16
  A 0.74 0.73 89.7 0 0 1198.87 202.89
  L 1198.84 208.16
  A 0.62 0.62 0.0 0 0 1199.46 208.79
  L 1206.60 208.83
  A 0.56 0.55 0.3 0 1 1207.16 209.38
  L 1207.11 235.73
  A 0.37 0.37 0.0 0 0 1207.39 236.09
  Q 1207.66 236.15 1210.99 236.16
  Z
  M 1225.21 236.12
  L 1232.16 236.12
  A 1.99 1.97 12.9 0 0 1233.94 235.02
  L 1238.26 226.29
  A 0.25 0.24 45.7 0 1 1238.70 226.30
  L 1243.39 235.89
  A 0.59 0.58 77.2 0 0 1243.92 236.23
  L 1252.82 236.23
  A 0.31 0.31 0.0 0 0 1253.08 235.76
  L 1243.36 220.39
  A 2.11 2.10 44.9 0 1 1243.35 218.15
  L 1252.39 203.59
  A 0.99 0.98 15.8 0 0 1251.55 202.09
  L 1245.75 202.09
  A 3.05 3.04 -76.8 0 0 1243.02 203.79
  L 1238.94 212.04
  A 0.38 0.38 0.0 0 1 1238.25 212.03
  L 1234.32 203.24
  A 1.98 1.96 -12.0 0 0 1232.52 202.08
  L 1225.62 202.08
  A 0.82 0.82 0.0 0 0 1224.91 203.31
  L 1233.52 218.22
  A 2.43 2.43 0.0 0 1 1233.30 220.97
  Q 1227.89 227.67 1224.53 235.06
  A 0.75 0.75 0.0 0 0 1225.21 236.12
  Z
  M 1060.71 238.11
  A 0.70 0.70 0.0 0 0 1061.83 238.81
  L 1070.91 231.60
  A 0.96 0.95 -46.4 0 1 1072.05 231.57
  L 1081.76 238.53
  A 1.04 1.04 0.0 0 0 1083.37 237.42
  L 1080.52 226.69
  A 0.94 0.93 -25.2 0 1 1080.89 225.67
  Q 1085.06 222.75 1088.31 220.05
  Q 1090.00 218.64 1090.66 217.26
  A 0.70 0.70 0.0 0 0 1090.00 216.26
  L 1078.02 216.82
  A 1.40 1.39 77.2 0 1 1076.66 215.96
  L 1072.84 206.85
  A 1.12 1.12 0.0 0 0 1070.77 206.85
  L 1066.92 216.08
  A 0.79 0.79 0.0 0 1 1066.19 216.57
  L 1054.74 216.57
  A 0.96 0.95 76.0 0 0 1053.90 217.98
  C 1055.39 220.83 1059.11 223.19 1062.29 225.59
  A 2.03 2.03 0.0 0 1 1063.05 227.66
  L 1060.71 238.11
  Z
  M 1104.97 290.09
  Q 1105.53 284.51 1105.18 276.87
  C 1105.09 274.91 1105.29 272.99 1104.08 271.65
  Q 1103.06 270.54 1101.09 268.91
  Q 1078.54 250.26 1076.52 248.75
  Q 1073.72 246.66 1071.38 244.65
  A 1.22 1.22 0.0 0 0 1069.88 244.58
  Q 1065.26 247.84 1061.34 251.35
  Q 1052.22 259.52 1039.62 269.62
  C 1036.39 272.21 1036.84 274.62 1036.86 279.08
  Q 1036.90 284.52 1037.05 289.18
  A 0.98 0.98 0.0 0 0 1038.62 289.94
  Q 1052.51 279.57 1062.34 270.51
  A 0.49 0.49 0.0 0 1 1063.17 270.88
  Q 1062.99 280.00 1063.00 284.26
  Q 1063.01 286.07 1061.33 287.36
  Q 1049.48 296.53 1037.18 307.74
  A 3.18 3.16 68.9 0 0 1036.15 310.08
  L 1036.15 326.42
  A 0.70 0.70 0.0 0 0 1037.25 327.00
  Q 1045.53 321.33 1053.47 313.50
  C 1056.53 310.47 1059.71 307.80 1062.64 305.58
  A 0.71 0.70 71.5 0 1 1063.77 306.15
  L 1063.77 328.16
  A 0.73 0.73 0.0 0 0 1064.50 328.89
  L 1077.94 328.89
  A 0.58 0.58 0.0 0 0 1078.52 328.31
  C 1078.59 320.19 1079.03 312.22 1077.90 305.35
  A 0.26 0.26 0.0 0 1 1078.32 305.10
  L 1105.21 326.34
  A 0.50 0.50 0.0 0 0 1106.02 325.94
  L 1106.02 309.83
  A 2.97 2.96 -70.9 0 0 1104.89 307.50
  Q 1092.76 297.98 1080.17 288.21
  Q 1078.61 287.00 1078.65 284.50
  Q 1078.77 276.11 1078.17 271.23
  A 0.59 0.59 0.0 0 1 1079.05 270.65
  C 1080.11 271.26 1080.68 272.25 1081.52 272.90
  Q 1092.14 281.02 1102.10 289.39
  Q 1102.95 290.11 1104.36 290.51
  A 0.49 0.48 10.1 0 0 1104.97 290.09
  Z
  M 937.09 313.64
  L 941.26 315.70
  A 0.98 0.97 37.9 0 0 942.33 315.57
  L 944.90 313.39
  A 1.01 0.98 77.9 0 0 945.24 312.85
  Q 946.70 307.09 944.04 302.74
  C 941.16 298.02 934.35 293.19 928.63 296.13
  Q 920.24 300.44 914.49 307.45
  Q 912.32 310.09 911.93 314.46
  C 911.49 319.41 914.76 323.41 918.55 326.47
  Q 923.46 330.43 929.76 328.32
  C 932.38 327.44 932.46 324.49 932.19 322.15
  A 1.34 1.32 -75.7 0 0 931.65 321.23
  Q 929.34 319.57 927.63 320.39
  Q 926.04 321.15 925.19 320.85
  C 920.36 319.08 919.04 315.83 922.71 311.66
  Q 926.54 307.31 930.30 304.38
  A 2.54 2.53 34.2 0 1 932.56 303.95
  Q 935.63 304.85 937.71 307.66
  A 1.02 1.01 -55.1 0 1 937.86 308.54
  L 936.66 312.64
  A 0.84 0.84 0.0 0 0 937.09 313.64
  Z
  M 1220.47 331.47
  C 1226.15 327.78 1232.31 319.26 1227.25 312.80
  Q 1223.67 308.23 1217.58 303.29
  C 1213.50 299.97 1209.71 297.00 1204.81 298.63
  C 1197.15 301.17 1190.25 308.63 1192.25 317.24
  C 1193.42 322.28 1201.46 327.76 1205.81 330.67
  C 1210.59 333.87 1215.92 334.43 1220.47 331.47
  Z
  M 1241.6869 302.9225
  A 5.51 5.20 -22.6 0 0 1234.6017 300.2393
  A 5.51 5.20 -22.6 0 0 1231.5131 307.1575
  A 5.51 5.20 -22.6 0 0 1238.5983 309.8407
  A 5.51 5.20 -22.6 0 0 1241.6869 302.9225
  Z
  M 952.78 344.71
  Q 958.36 345.64 963.57 341.03
  C 973.82 331.97 960.55 321.54 953.93 316.57
  A 1.05 1.04 -41.6 0 0 952.78 316.51
  Q 951.59 317.22 950.87 317.87
  Q 946.83 321.57 931.03 337.34
  A 3.87 3.87 0.0 0 0 930.73 342.49
  L 931.85 343.99
  A 2.42 2.42 0.0 0 0 935.57 344.17
  L 941.23 337.98
  A 0.93 0.93 0.0 0 1 942.54 337.92
  L 944.85 340.03
  A 0.91 0.89 -66.8 0 1 945.13 340.75
  C 944.79 344.99 942.74 349.44 942.88 354.76
  A 1.14 1.14 0.0 0 0 943.42 355.69
  L 945.64 357.07
  A 2.02 2.01 32.6 0 0 948.39 356.47
  Q 952.00 350.95 952.00 345.37
  A 0.68 0.67 4.4 0 1 952.78 344.71
  Z
  M 1194.46 341.80
  C 1195.55 346.01 1194.84 350.48 1189.45 350.52
  Q 1187.99 350.54 1185.93 348.61
  C 1182.54 345.44 1178.22 341.08 1178.83 336.51
  C 1179.56 331.00 1189.34 335.27 1190.17 328.02
  A 2.52 2.25 11.4 0 0 1188.30 325.53
  C 1181.73 323.74 1172.27 326.32 1169.83 333.44
  C 1167.20 341.15 1172.24 347.68 1177.53 353.24
  C 1181.55 357.47 1183.86 359.47 1189.76 359.11
  C 1195.82 358.75 1201.32 353.38 1203.21 348.02
  C 1204.12 345.46 1204.31 340.51 1200.95 340.15
  Q 1198.02 339.84 1194.70 341.30
  A 0.42 0.41 71.1 0 0 1194.46 341.80
  Z
  M 988.98 353.30
  L 992.51 350.61
  A 1.04 1.04 0.0 0 0 992.58 349.02
  Q 986.89 343.85 977.87 337.84
  Q 975.97 336.57 974.51 338.45
  Q 963.97 352.05 956.43 362.43
  A 0.50 0.49 -53.1 0 0 956.52 363.11
  L 971.82 375.20
  A 2.18 2.17 32.3 0 0 975.12 374.46
  L 976.61 371.46
  A 2.54 2.53 -59.1 0 0 975.82 368.28
  L 967.35 362.21
  A 0.68 0.68 0.0 0 1 967.21 361.24
  L 969.88 357.86
  A 0.93 0.92 38.2 0 1 971.18 357.71
  L 977.28 362.53
  A 2.11 2.10 41.6 0 0 980.07 362.37
  L 982.55 359.89
  A 1.63 1.63 0.0 0 0 982.44 357.48
  L 976.72 352.71
  A 1.42 1.41 33.3 0 1 976.36 350.99
  L 977.73 348.22
  A 1.08 1.08 0.0 0 1 979.33 347.82
  L 987.01 353.32
  A 1.66 1.65 -45.5 0 0 988.98 353.30
  Z
  M 1154.32 356.07
  C 1152.27 351.62 1149.14 350.50 1144.46 351.41
  C 1137.01 352.88 1128.33 358.26 1132.18 367.22
  Q 1135.02 373.82 1143.40 372.90
  C 1145.76 372.63 1152.40 368.89 1154.07 373.17
  C 1155.44 376.67 1151.81 378.90 1148.87 379.57
  A 1.92 1.87 -39.3 0 1 1147.73 379.47
  L 1145.18 378.40
  A 1.03 1.01 39.6 0 0 1144.25 378.48
  L 1139.73 381.34
  A 0.78 0.78 0.0 0 0 1139.44 382.34
  Q 1142.87 389.50 1150.22 387.52
  C 1155.22 386.17 1162.21 381.70 1163.18 376.21
  C 1164.19 370.48 1160.10 364.62 1154.45 363.58
  C 1151.02 362.95 1145.40 364.99 1142.94 365.41
  C 1138.57 366.16 1138.65 361.40 1141.00 359.33
  A 1.63 1.61 21.3 0 1 1141.91 358.94
  Q 1144.70 358.69 1146.89 359.63
  A 1.67 1.66 -45.2 0 0 1148.19 359.62
  L 1153.93 357.10
  A 0.77 0.77 0.0 0 0 1154.32 356.07
  Z
  M 983.25 381.95
  L 987.12 383.87
  A 2.00 2.00 0.0 0 0 989.64 383.24
  L 992.47 379.29
  A 1.08 1.07 -61.8 0 1 993.71 378.91
  L 1001.69 381.83
  A 0.78 0.77 12.0 0 1 1002.20 382.61
  L 1001.84 387.56
  A 1.66 1.66 0.0 0 0 1002.88 389.21
  L 1007.50 391.05
  A 1.30 1.30 0.0 0 0 1009.27 389.99
  L 1012.80 359.33
  A 1.11 1.10 -76.2 0 0 1012.11 358.18
  L 1004.15 355.01
  A 1.62 1.62 0.0 0 0 1002.26 355.53
  C 996.26 363.39 988.81 371.37 982.73 379.89
  A 1.40 1.39 31.0 0 0 983.25 381.95
  Z
  M 1120.47 380.84
  L 1105.34 364.55
  A 1.29 1.28 -31.4 0 0 1103.95 364.22
  L 1098.94 366.08
  A 2.32 2.32 0.0 0 0 1097.52 368.91
  L 1106.33 398.82
  A 1.01 1.01 0.0 0 0 1107.56 399.51
  L 1113.67 397.88
  A 0.98 0.98 0.0 0 0 1114.36 396.64
  Q 1112.62 390.89 1110.97 384.11
  C 1110.55 382.40 1109.54 380.49 1108.98 379.46
  A 0.38 0.38 0.0 0 1 1109.55 378.98
  Q 1110.85 380.02 1112.57 382.16
  A 4.27 4.21 -89.6 0 0 1113.25 382.86
  Q 1120.39 388.89 1125.02 395.33
  A 1.13 1.11 63.5 0 0 1126.25 395.75
  L 1132.15 394.01
  A 1.24 1.24 0.0 0 0 1132.99 392.47
  L 1123.85 361.43
  A 1.87 1.87 0.0 0 0 1121.52 360.17
  L 1116.05 361.78
  A 1.56 1.56 0.0 0 0 1115.02 363.82
  L 1121.18 380.40
  A 0.43 0.42 -76.7 0 1 1120.47 380.84
  Z
  M 1027.25 370.30
  L 1022.07 393.36
  A 1.79 1.79 0.0 0 0 1023.43 395.50
  L 1027.84 396.49
  A 1.85 1.84 12.6 0 0 1030.04 395.10
  L 1035.14 372.39
  A 0.56 0.56 0.0 0 1 1035.79 371.96
  L 1043.62 373.40
  A 1.46 1.46 0.0 0 0 1044.72 373.16
  Q 1045.21 372.86 1045.41 371.97
  C 1045.63 370.98 1045.94 369.05 1045.51 367.98
  A 1.08 1.05 -0.9 0 0 1044.85 367.36
  Q 1034.60 364.10 1022.54 361.86
  A 1.51 1.49 -78.4 0 0 1020.81 363.01
  L 1019.92 366.98
  A 1.60 1.60 0.0 0 0 1021.29 368.92
  L 1026.71 369.54
  A 0.63 0.63 0.0 0 1 1027.25 370.30
  Z
  M 1066.71 371.92
  Q 1065.85 373.58 1065.84 377.02
  Q 1065.83 383.30 1066.07 392.52
  Q 1066.30 401.91 1075.53 402.85
  Q 1082.22 403.53 1088.45 401.03
  C 1094.51 398.59 1094.06 393.07 1094.01 387.56
  Q 1093.96 381.66 1092.63 375.34
  Q 1091.22 368.61 1084.40 368.14
  C 1079.05 367.76 1071.95 367.72 1067.44 371.07
  A 2.55 2.50 86.2 0 0 1066.71 371.92
  Z
  M 1052.20 368.53
  A 1.21 1.21 0.0 0 0 1050.88 369.63
  L 1048.11 399.47
  A 1.21 1.21 0.0 0 0 1049.32 400.79
  L 1055.33 400.79
  A 1.21 1.21 0.0 0 0 1056.53 399.69
  L 1059.24 370.40
  A 1.21 1.21 0.0 0 0 1058.15 369.09
  L 1052.20 368.53
  Z"
/>
<path fill="#ffffff" d="
  M 1032.68 79.94
  L 1030.58 65.09
  A 12.15 12.15 0.0 0 1 1040.44 51.43
  L 1049.42 49.80
  A 12.15 12.15 0.0 0 1 1063.63 60.07
  L 1065.82 75.76
  A 12.15 12.15 0.0 0 1 1054.85 89.55
  L 1045.77 90.35
  A 12.15 12.15 0.0 0 1 1032.68 79.94
  Z
  M 1053.3937 63.3766
  A 4.31 4.31 0.0 0 0 1048.4315 59.8371
  L 1044.5258 60.4907
  A 4.31 4.31 0.0 0 0 1040.9863 65.4529
  L 1043.0263 77.6434
  A 4.31 4.31 0.0 0 0 1047.9885 81.1829
  L 1051.8942 80.5293
  A 4.31 4.31 0.0 0 0 1055.4337 75.5671
  L 1053.3937 63.3766
  Z"
/>
<path fill="#ffffff" d="
  M 1103.13 62.26
  L 1099.99 89.57
  A 1.05 1.04 -83.4 0 1 1098.84 90.49
  L 1090.57 89.54
  A 1.16 1.15 -83.5 0 1 1089.56 88.26
  L 1092.68 61.09
  A 0.83 0.82 2.7 0 0 1091.84 60.17
  Q 1086.86 60.30 1082.65 58.91
  A 0.94 0.94 0.0 0 1 1082.01 57.91
  L 1082.84 50.67
  A 0.60 0.60 0.0 0 1 1083.51 50.14
  L 1114.31 53.68
  A 1.71 1.70 -83.6 0 1 1115.81 55.57
  L 1115.17 61.10
  A 1.97 1.97 0.0 0 1 1112.98 62.84
  L 1103.73 61.78
  A 0.54 0.54 0.0 0 0 1103.13 62.26
  Z"
/>
<path fill="#ffffff" d="
  M 1142.88 78.37
  A 0.57 0.56 -69.2 0 0 1143.19 79.08
  L 1153.93 83.56
  A 1.56 1.56 0.0 0 1 1154.66 85.82
  L 1151.58 90.78
  A 1.58 1.57 27.0 0 1 1149.64 91.40
  L 1140.21 87.47
  A 0.73 0.73 0.0 0 0 1139.31 87.76
  L 1136.42 92.42
  A 0.77 0.76 27.3 0 0 1136.78 93.53
  L 1151.38 99.61
  A 2.09 2.09 0.0 0 1 1152.54 102.26
  L 1150.80 107.01
  A 2.04 2.04 0.0 0 1 1148.35 108.28
  Q 1145.31 107.45 1144.06 106.95
  Q 1132.01 102.09 1128.08 100.40
  Q 1126.10 99.54 1124.40 98.55
  A 1.05 1.03 13.8 0 1 1123.90 97.74
  Q 1123.83 96.76 1125.08 93.81
  Q 1135.72 68.61 1138.68 61.89
  A 1.38 1.37 -68.2 0 1 1140.39 61.15
  Q 1151.78 65.17 1162.53 70.99
  A 2.61 2.61 0.0 0 1 1163.51 74.67
  L 1161.63 77.71
  A 2.78 2.78 0.0 0 1 1158.19 78.81
  L 1145.35 73.47
  A 0.61 0.61 0.0 0 0 1144.55 73.82
  L 1142.88 78.37
  Z"
/>
<path fill="#ffffff" d="
  M 1018.37 85.13
  C 1020.12 90.14 1020.22 94.94 1015.74 98.49
  C 1011.64 101.76 1008.19 102.53 1002.34 103.89
  C 995.72 105.44 990.59 103.50 987.80 97.02
  Q 982.10 83.78 980.78 80.23
  Q 978.42 73.86 984.03 69.48
  C 988.76 65.78 999.88 61.56 1005.82 63.77
  Q 1010.56 65.52 1012.94 70.84
  Q 1014.89 75.20 1018.37 85.13
  Z
  M 993.93 74.45
  A 3.72 3.72 0.0 0 0 991.63 79.43
  L 996.95 92.15
  A 3.72 3.72 0.0 0 0 1001.52 94.25
  L 1005.97 92.83
  A 3.72 3.72 0.0 0 0 1008.27 87.85
  L 1002.95 75.14
  A 3.72 3.72 0.0 0 0 998.39 73.03
  L 993.93 74.45
  Z"
/>
<path fill="#ff4788" d="
  M 993.93 74.45
  L 998.39 73.03
  A 3.72 3.72 0.0 0 1 1002.95 75.14
  L 1008.27 87.85
  A 3.72 3.72 0.0 0 1 1005.97 92.83
  L 1001.52 94.25
  A 3.72 3.72 0.0 0 1 996.95 92.15
  L 991.63 79.43
  A 3.72 3.72 0.0 0 1 993.93 74.45
  Z"
/>
<path fill="#ffffff" d="
  M 1163.60 118.23
  A 1.35 1.34 28.2 0 1 1163.13 116.68
  Q 1164.29 113.55 1166.03 111.29
  Q 1174.21 100.60 1181.32 91.08
  Q 1182.10 90.04 1183.50 88.70
  A 2.93 2.93 0.0 0 1 1186.81 88.17
  Q 1194.90 92.09 1202.31 98.43
  C 1206.46 101.98 1209.01 108.87 1204.86 113.47
  Q 1198.06 121.00 1191.87 127.88
  Q 1187.86 132.33 1182.16 130.34
  C 1175.38 127.97 1170.09 123.03 1163.60 118.23
  Z
  M 1175.97 116.56
  C 1179.18 118.54 1183.04 122.29 1186.10 119.07
  Q 1189.87 115.12 1194.22 109.71
  Q 1196.02 107.48 1195.29 106.04
  C 1194.15 103.82 1191.92 101.56 1189.49 100.26
  A 1.43 1.43 0.0 0 0 1187.70 100.63
  L 1175.81 115.68
  A 0.60 0.60 0.0 0 0 1175.97 116.56
  Z"
/>
<path fill="#ffffff" d="
  M 967.12 109.41
  Q 969.35 108.65 971.73 109.48
  Q 978.13 111.72 981.60 113.24
  A 2.50 2.49 -52.4 0 1 982.15 117.48
  L 979.76 119.38
  A 7.13 7.11 35.5 0 1 972.92 120.51
  L 963.28 117.08
  A 3.86 3.79 -34.7 0 0 961.89 116.84
  Q 960.37 116.86 958.70 117.78
  A 1.31 1.30 54.2 0 0 958.38 119.80
  L 966.41 128.45
  A 0.74 0.74 0.0 0 1 966.37 129.50
  L 959.88 135.53
  A 1.83 1.82 -40.3 0 1 957.20 135.31
  Q 945.73 120.58 932.61 107.85
  A 1.72 1.72 0.0 0 1 932.52 105.48
  Q 938.78 98.39 946.37 92.90
  C 950.55 89.87 955.40 88.84 960.23 91.45
  C 965.33 94.22 970.30 98.92 968.45 105.04
  Q 967.87 106.94 966.83 109.09
  A 0.23 0.23 0.0 0 0 967.12 109.41
  Z
  M 946.39 106.40
  L 950.78 111.28
  A 1.41 1.41 0.0 0 0 952.77 111.38
  L 956.07 108.41
  A 4.85 3.50 -42.0 0 0 957.33 102.56
  L 955.74 100.80
  A 4.85 3.50 -42.0 0 0 949.79 101.44
  L 946.49 104.41
  A 1.41 1.41 0.0 0 0 946.39 106.40
  Z"
/>
<path fill="#ff4788" d="
  M 946.39 106.40
  A 1.41 1.41 0.0 0 1 946.49 104.41
  L 949.79 101.44
  A 4.85 3.50 -42.0 0 1 955.74 100.80
  L 957.33 102.56
  A 4.85 3.50 -42.0 0 1 956.07 108.41
  L 952.77 111.38
  A 1.41 1.41 0.0 0 1 950.78 111.28
  L 946.39 106.40
  Z"
/>
<path fill="#ff4788" d="
  M 1175.97 116.56
  A 0.60 0.60 0.0 0 1 1175.81 115.68
  L 1187.70 100.63
  A 1.43 1.43 0.0 0 1 1189.49 100.26
  C 1191.92 101.56 1194.15 103.82 1195.29 106.04
  Q 1196.02 107.48 1194.22 109.71
  Q 1189.87 115.12 1186.10 119.07
  C 1183.04 122.29 1179.18 118.54 1175.97 116.56
  Z"
/>
<path fill="#ffffff" d="
  M 1064.08 178.30
  L 1063.46 165.04
  A 2.44 2.42 15.9 0 0 1062.38 163.12
  Q 1058.73 160.66 1056.65 158.92
  Q 1046.33 150.31 1039.20 145.32
  C 1037.59 144.19 1037.12 143.37 1037.09 141.33
  Q 1036.96 133.57 1037.09 125.77
  A 0.90 0.89 7.5 0 1 1038.20 124.92
  Q 1039.60 125.27 1040.81 126.18
  Q 1052.73 135.17 1063.22 145.08
  A 0.40 0.40 0.0 0 0 1063.89 144.79
  L 1063.89 120.80
  A 0.86 0.84 32.1 0 0 1063.80 120.42
  L 1063.16 119.05
  A 0.47 0.47 0.0 0 1 1063.59 118.38
  L 1078.31 118.38
  A 0.58 0.58 0.0 0 1 1078.89 118.96
  L 1078.89 144.22
  A 0.37 0.36 69.7 0 0 1079.49 144.50
  L 1102.07 125.37
  A 0.94 0.94 0.0 0 1 1103.61 126.02
  Q 1104.17 134.01 1103.90 142.68
  C 1103.85 144.36 1102.40 145.10 1101.18 146.10
  Q 1095.88 150.47 1089.36 155.10
  C 1085.35 157.95 1080.52 160.90 1079.23 163.71
  Q 1078.78 164.70 1078.75 166.13
  Q 1078.67 170.54 1078.52 178.49
  A 0.59 0.59 0.0 0 0 1079.53 178.92
  Q 1082.78 175.60 1085.04 173.81
  Q 1094.06 166.64 1103.03 159.12
  A 0.58 0.58 0.0 0 1 1103.98 159.54
  L 1104.73 175.59
  A 2.03 2.01 55.3 0 1 1104.59 176.38
  Q 1103.96 177.97 1102.55 179.05
  Q 1087.81 190.39 1071.65 203.58
  A 0.91 0.91 0.0 0 1 1070.51 203.58
  L 1037.89 177.82
  A 2.33 2.33 0.0 0 1 1037.00 175.99
  L 1037.00 158.13
  A 0.53 0.53 0.0 0 1 1037.87 157.72
  L 1063.12 178.78
  A 0.59 0.59 0.0 0 0 1064.08 178.30
  Z"
/>
<path fill="#ffffff" d="
  M 972.23 255.64
  A 0.42 0.41 -70.4 0 1 971.91 254.96
  Q 980.78 243.96 987.91 234.12
  C 988.62 233.13 989.88 232.37 990.41 231.66
  A 0.38 0.38 0.0 0 0 990.11 231.05
  L 968.84 231.05
  A 0.72 0.72 0.0 0 1 968.12 230.33
  L 968.12 215.96
  A 0.31 0.31 0.0 0 1 968.43 215.65
  L 990.63 215.65
  A 0.41 0.40 -73.5 0 0 990.97 215.46
  Q 991.45 214.73 990.42 213.92
  Q 989.89 213.51 989.40 212.80
  Q 983.97 204.91 974.73 192.09
  A 1.26 1.26 0.0 0 1 975.70 190.10
  Q 980.42 189.89 987.28 189.95
  C 991.51 189.99 991.86 191.47 994.06 194.43
  Q 1002.43 205.73 1009.01 214.91
  A 2.07 2.07 0.0 0 0 1010.69 215.77
  L 1024.52 215.77
  A 0.32 0.32 0.0 0 0 1024.78 215.26
  L 1007.63 191.72
  A 1.03 1.03 0.0 0 1 1008.42 190.08
  Q 1013.92 189.85 1022.07 189.90
  Q 1025.15 189.92 1026.85 192.40
  Q 1036.88 206.95 1048.45 221.27
  A 1.48 1.47 43.6 0 1 1048.50 223.06
  L 1026.22 254.16
  A 3.55 3.54 17.7 0 1 1023.33 255.65
  L 1007.05 255.65
  A 0.59 0.59 0.0 0 1 1006.59 254.69
  L 1024.71 231.75
  A 0.31 0.31 0.0 0 0 1024.47 231.25
  L 1010.85 231.25
  A 2.65 2.64 17.8 0 0 1008.70 232.35
  L 992.78 254.57
  A 2.54 2.54 0.0 0 1 990.71 255.64
  L 972.23 255.64
  Z"
/>
<path fill="#ffffff" d="
  M 1166.63 255.40
  L 1149.67 255.40
  A 1.49 1.48 -16.9 0 1 1148.44 254.75
  L 1132.84 231.64
  A 0.98 0.98 0.0 0 0 1132.02 231.20
  L 1117.15 231.20
  A 0.09 0.09 0.0 0 0 1117.08 231.35
  L 1134.33 255.01
  A 0.41 0.40 -17.8 0 1 1134.00 255.65
  L 1116.90 255.65
  A 1.08 1.07 -18.2 0 1 1116.04 255.22
  L 1093.44 224.20
  A 1.83 1.82 -44.1 0 1 1093.48 222.00
  Q 1105.53 206.62 1115.47 192.22
  Q 1117.16 189.77 1119.70 189.87
  Q 1123.26 190.02 1134.43 189.95
  A 0.48 0.48 0.0 0 1 1134.90 190.51
  Q 1134.82 190.93 1134.57 191.32
  Q 1129.40 199.35 1117.61 215.08
  A 0.42 0.42 0.0 0 0 1117.95 215.75
  L 1130.76 215.75
  A 2.84 2.84 0.0 0 0 1133.08 214.55
  Q 1143.01 200.55 1148.80 192.81
  Q 1150.10 191.07 1151.95 190.11
  A 1.08 0.99 -56.7 0 1 1152.43 189.99
  L 1167.34 189.99
  A 0.70 0.70 0.0 0 1 1167.91 191.10
  L 1150.56 215.32
  A 0.29 0.28 -72.2 0 0 1150.79 215.77
  L 1173.29 215.77
  A 0.54 0.53 90.0 0 1 1173.82 216.31
  L 1173.82 230.27
  A 0.72 0.71 -90.0 0 1 1173.11 230.99
  L 1150.46 230.99
  A 0.39 0.39 0.0 0 0 1150.14 231.61
  L 1166.98 254.71
  A 0.43 0.43 0.0 0 1 1166.63 255.40
  Z"
/>
<path fill="#ffffff" d="
  M 903.07 211.43
  Q 903.13 211.08 902.37 209.85
  A 1.40 1.40 0.0 0 0 901.46 209.22
  C 899.27 208.75 895.77 208.29 894.78 210.68
  A 2.27 2.23 19.5 0 0 896.24 213.68
  Q 902.76 215.64 903.77 216.00
  C 916.04 220.38 913.18 234.36 901.63 236.59
  C 895.23 237.82 887.99 236.56 885.76 229.29
  A 1.72 1.71 72.7 0 1 886.88 227.15
  L 891.65 225.63
  A 1.68 1.67 73.9 0 1 893.79 226.82
  C 895.00 231.61 902.86 231.63 902.62 225.88
  A 2.93 2.93 0.0 0 0 900.48 223.18
  C 895.13 221.70 887.73 220.56 886.90 214.39
  Q 885.53 204.21 894.90 202.16
  Q 896.14 201.89 900.63 202.00
  C 905.36 202.11 908.66 204.75 910.14 209.01
  A 0.66 0.65 -18.6 0 1 909.72 209.84
  L 903.54 211.83
  A 0.36 0.36 0.0 0 1 903.07 211.43
  Z"
/>
<path fill="#ffffff" d="
  M 914.59 234.80
  Q 914.67 234.66 915.15 231.32
  Q 915.31 230.25 915.91 228.21
  Q 917.66 222.26 923.27 203.72
  A 2.32 2.32 0.0 0 1 925.49 202.07
  L 931.60 202.07
  A 1.25 1.24 80.9 0 1 932.78 202.93
  L 942.96 234.89
  A 0.93 0.92 81.2 0 1 942.08 236.10
  L 936.11 236.10
  A 1.38 1.37 81.8 0 1 934.79 235.11
  L 932.94 228.85
  A 1.19 1.18 -8.2 0 0 931.80 228.00
  L 924.92 228.00
  A 1.02 1.02 0.0 0 0 923.93 228.79
  L 922.58 234.82
  A 1.69 1.69 0.0 0 1 920.90 236.13
  L 915.28 235.98
  A 0.81 0.81 0.0 0 1 914.59 234.80
  Z
  M 926.11 221.20
  L 930.58 220.99
  A 0.28 0.28 0.0 0 0 930.83 220.64
  L 928.64 212.37
  A 0.27 0.27 0.0 0 0 928.13 212.32
  Q 926.30 216.02 925.80 220.88
  A 0.30 0.29 1.7 0 0 926.11 221.20
  Z"
/>
<path fill="#ffffff" d="
  M 1211.08 202.15
  Q 1216.95 202.13 1222.57 202.22
  A 0.74 0.73 -89.4 0 1 1223.29 202.96
  L 1223.29 208.23
  A 0.62 0.62 0.0 0 1 1222.67 208.85
  L 1215.53 208.85
  A 0.56 0.55 -0.0 0 0 1214.97 209.40
  L 1214.87 235.75
  A 0.37 0.37 0.0 0 1 1214.59 236.11
  Q 1214.32 236.17 1210.99 236.16
  Q 1207.66 236.15 1207.39 236.09
  A 0.37 0.37 0.0 0 1 1207.11 235.73
  L 1207.16 209.38
  A 0.56 0.55 0.3 0 0 1206.60 208.83
  L 1199.46 208.79
  A 0.62 0.62 0.0 0 1 1198.84 208.16
  L 1198.87 202.89
  A 0.74 0.73 89.7 0 1 1199.59 202.16
  Q 1205.22 202.09 1211.08 202.15
  Z"
/>
<path fill="#ffffff" d="
  M 1225.21 236.12
  A 0.75 0.75 0.0 0 1 1224.53 235.06
  Q 1227.89 227.67 1233.30 220.97
  A 2.43 2.43 0.0 0 0 1233.52 218.22
  L 1224.91 203.31
  A 0.82 0.82 0.0 0 1 1225.62 202.08
  L 1232.52 202.08
  A 1.98 1.96 -12.0 0 1 1234.32 203.24
  L 1238.25 212.03
  A 0.38 0.38 0.0 0 0 1238.94 212.04
  L 1243.02 203.79
  A 3.05 3.04 -76.8 0 1 1245.75 202.09
  L 1251.55 202.09
  A 0.99 0.98 15.8 0 1 1252.39 203.59
  L 1243.35 218.15
  A 2.11 2.10 44.9 0 0 1243.36 220.39
  L 1253.08 235.76
  A 0.31 0.31 0.0 0 1 1252.82 236.23
  L 1243.92 236.23
  A 0.59 0.58 77.2 0 1 1243.39 235.89
  L 1238.70 226.30
  A 0.25 0.24 45.7 0 0 1238.26 226.29
  L 1233.94 235.02
  A 1.99 1.97 12.9 0 1 1232.16 236.12
  L 1225.21 236.12
  Z"
/>
<path fill="#ffffff" d="
  M 1060.71 238.11
  L 1063.05 227.66
  A 2.03 2.03 0.0 0 0 1062.29 225.59
  C 1059.11 223.19 1055.39 220.83 1053.90 217.98
  A 0.96 0.95 76.0 0 1 1054.74 216.57
  L 1066.19 216.57
  A 0.79 0.79 0.0 0 0 1066.92 216.08
  L 1070.77 206.85
  A 1.12 1.12 0.0 0 1 1072.84 206.85
  L 1076.66 215.96
  A 1.40 1.39 77.2 0 0 1078.02 216.82
  L 1090.00 216.26
  A 0.70 0.70 0.0 0 1 1090.66 217.26
  Q 1090.00 218.64 1088.31 220.05
  Q 1085.06 222.75 1080.89 225.67
  A 0.94 0.93 -25.2 0 0 1080.52 226.69
  L 1083.37 237.42
  A 1.04 1.04 0.0 0 1 1081.76 238.53
  L 1072.05 231.57
  A 0.96 0.95 -46.4 0 0 1070.91 231.60
  L 1061.83 238.81
  A 0.70 0.70 0.0 0 1 1060.71 238.11
  Z"
/>
<path fill="#ff4788" d="
  M 925.80 220.88
  Q 926.30 216.02 928.13 212.32
  A 0.27 0.27 0.0 0 1 928.64 212.37
  L 930.83 220.64
  A 0.28 0.28 0.0 0 1 930.58 220.99
  L 926.11 221.20
  A 0.30 0.29 1.7 0 1 925.80 220.88
  Z"
/>
<path fill="#ffffff" d="
  M 1104.36 290.51
  Q 1102.95 290.11 1102.10 289.39
  Q 1092.14 281.02 1081.52 272.90
  C 1080.68 272.25 1080.11 271.26 1079.05 270.65
  A 0.59 0.59 0.0 0 0 1078.17 271.23
  Q 1078.77 276.11 1078.65 284.50
  Q 1078.61 287.00 1080.17 288.21
  Q 1092.76 297.98 1104.89 307.50
  A 2.97 2.96 -70.9 0 1 1106.02 309.83
  L 1106.02 325.94
  A 0.50 0.50 0.0 0 1 1105.21 326.34
  L 1078.32 305.10
  A 0.26 0.26 0.0 0 0 1077.90 305.35
  C 1079.03 312.22 1078.59 320.19 1078.52 328.31
  A 0.58 0.58 0.0 0 1 1077.94 328.89
  L 1064.50 328.89
  A 0.73 0.73 0.0 0 1 1063.77 328.16
  L 1063.77 306.15
  A 0.71 0.70 71.5 0 0 1062.64 305.58
  C 1059.71 307.80 1056.53 310.47 1053.47 313.50
  Q 1045.53 321.33 1037.25 327.00
  A 0.70 0.70 0.0 0 1 1036.15 326.42
  L 1036.15 310.08
  A 3.18 3.16 68.9 0 1 1037.18 307.74
  Q 1049.48 296.53 1061.33 287.36
  Q 1063.01 286.07 1063.00 284.26
  Q 1062.99 280.00 1063.17 270.88
  A 0.49 0.49 0.0 0 0 1062.34 270.51
  Q 1052.51 279.57 1038.62 289.94
  A 0.98 0.98 0.0 0 1 1037.05 289.18
  Q 1036.90 284.52 1036.86 279.08
  C 1036.84 274.62 1036.39 272.21 1039.62 269.62
  Q 1052.22 259.52 1061.34 251.35
  Q 1065.26 247.84 1069.88 244.58
  A 1.22 1.22 0.0 0 1 1071.38 244.65
  Q 1073.72 246.66 1076.52 248.75
  Q 1078.54 250.26 1101.09 268.91
  Q 1103.06 270.54 1104.08 271.65
  C 1105.29 272.99 1105.09 274.91 1105.18 276.87
  Q 1105.53 284.51 1104.97 290.09
  A 0.49 0.48 10.1 0 1 1104.36 290.51
  Z"
/>
<path fill="#ffffff" d="
  M 936.66 312.64
  L 937.86 308.54
  A 1.02 1.01 -55.1 0 0 937.71 307.66
  Q 935.63 304.85 932.56 303.95
  A 2.54 2.53 34.2 0 0 930.30 304.38
  Q 926.54 307.31 922.71 311.66
  C 919.04 315.83 920.36 319.08 925.19 320.85
  Q 926.04 321.15 927.63 320.39
  Q 929.34 319.57 931.65 321.23
  A 1.34 1.32 -75.7 0 1 932.19 322.15
  C 932.46 324.49 932.38 327.44 929.76 328.32
  Q 923.46 330.43 918.55 326.47
  C 914.76 323.41 911.49 319.41 911.93 314.46
  Q 912.32 310.09 914.49 307.45
  Q 920.24 300.44 928.63 296.13
  C 934.35 293.19 941.16 298.02 944.04 302.74
  Q 946.70 307.09 945.24 312.85
  A 1.01 0.98 77.9 0 1 944.90 313.39
  L 942.33 315.57
  A 0.98 0.97 37.9 0 1 941.26 315.70
  L 937.09 313.64
  A 0.84 0.84 0.0 0 1 936.66 312.64
  Z"
/>
<path fill="#ffffff" d="
  M 1227.25 312.80
  C 1232.31 319.26 1226.15 327.78 1220.47 331.47
  C 1215.92 334.43 1210.59 333.87 1205.81 330.67
  C 1201.46 327.76 1193.42 322.28 1192.25 317.24
  C 1190.25 308.63 1197.15 301.17 1204.81 298.63
  C 1209.71 297.00 1213.50 299.97 1217.58 303.29
  Q 1223.67 308.23 1227.25 312.80
  Z
  M 1218.8078 322.2235
  A 4.73 4.73 0.0 0 0 1218.1085 315.5709
  L 1209.4978 308.5981
  A 4.73 4.73 0.0 0 0 1202.8452 309.2973
  L 1202.0522 310.2765
  A 4.73 4.73 0.0 0 0 1202.7515 316.9291
  L 1211.3622 323.9019
  A 4.73 4.73 0.0 0 0 1218.0148 323.2027
  L 1218.8078 322.2235
  Z"
/>
<path fill="#ffffff" d="
  M 952.00 345.37
  Q 952.00 350.95 948.39 356.47
  A 2.02 2.01 32.6 0 1 945.64 357.07
  L 943.42 355.69
  A 1.14 1.14 0.0 0 1 942.88 354.76
  C 942.74 349.44 944.79 344.99 945.13 340.75
  A 0.91 0.89 -66.8 0 0 944.85 340.03
  L 942.54 337.92
  A 0.93 0.93 0.0 0 0 941.23 337.98
  L 935.57 344.17
  A 2.42 2.42 0.0 0 1 931.85 343.99
  L 930.73 342.49
  A 3.87 3.87 0.0 0 1 931.03 337.34
  Q 946.83 321.57 950.87 317.87
  Q 951.59 317.22 952.78 316.51
  A 1.05 1.04 -41.6 0 1 953.93 316.57
  C 960.55 321.54 973.82 331.97 963.57 341.03
  Q 958.36 345.64 952.78 344.71
  A 0.68 0.67 4.4 0 0 952.00 345.37
  Z
  M 958.1968 334.5591
  A 3.10 3.10 0.0 0 0 958.0209 330.1786
  L 956.0513 328.3611
  A 3.10 3.10 0.0 0 0 951.6708 328.5371
  L 950.0432 330.3009
  A 3.10 3.10 0.0 0 0 950.2191 334.6814
  L 952.1887 336.4989
  A 3.10 3.10 0.0 0 0 956.5692 336.3229
  L 958.1968 334.5591
  Z"
/>
<path fill="#ffffff" d="
  M 1194.46 341.80
  A 0.42 0.41 71.1 0 1 1194.70 341.30
  Q 1198.02 339.84 1200.95 340.15
  C 1204.31 340.51 1204.12 345.46 1203.21 348.02
  C 1201.32 353.38 1195.82 358.75 1189.76 359.11
  C 1183.86 359.47 1181.55 357.47 1177.53 353.24
  C 1172.24 347.68 1167.20 341.15 1169.83 333.44
  C 1172.27 326.32 1181.73 323.74 1188.30 325.53
  A 2.52 2.25 11.4 0 1 1190.17 328.02
  C 1189.34 335.27 1179.56 331.00 1178.83 336.51
  C 1178.22 341.08 1182.54 345.44 1185.93 348.61
  Q 1187.99 350.54 1189.45 350.52
  C 1194.84 350.48 1195.55 346.01 1194.46 341.80
  Z"
/>
<path fill="#ffffff" d="
  M 988.98 353.30
  A 1.66 1.65 -45.5 0 1 987.01 353.32
  L 979.33 347.82
  A 1.08 1.08 0.0 0 0 977.73 348.22
  L 976.36 350.99
  A 1.42 1.41 33.3 0 0 976.72 352.71
  L 982.44 357.48
  A 1.63 1.63 0.0 0 1 982.55 359.89
  L 980.07 362.37
  A 2.11 2.10 41.6 0 1 977.28 362.53
  L 971.18 357.71
  A 0.93 0.92 38.2 0 0 969.88 357.86
  L 967.21 361.24
  A 0.68 0.68 0.0 0 0 967.35 362.21
  L 975.82 368.28
  A 2.54 2.53 -59.1 0 1 976.61 371.46
  L 975.12 374.46
  A 2.18 2.17 32.3 0 1 971.82 375.20
  L 956.52 363.11
  A 0.50 0.49 -53.1 0 1 956.43 362.43
  Q 963.97 352.05 974.51 338.45
  Q 975.97 336.57 977.87 337.84
  Q 986.89 343.85 992.58 349.02
  A 1.04 1.04 0.0 0 1 992.51 350.61
  L 988.98 353.30
  Z"
/>
<path fill="#ffffff" d="
  M 1154.32 356.07
  A 0.77 0.77 0.0 0 1 1153.93 357.10
  L 1148.19 359.62
  A 1.67 1.66 -45.2 0 1 1146.89 359.63
  Q 1144.70 358.69 1141.91 358.94
  A 1.63 1.61 21.3 0 0 1141.00 359.33
  C 1138.65 361.40 1138.57 366.16 1142.94 365.41
  C 1145.40 364.99 1151.02 362.95 1154.45 363.58
  C 1160.10 364.62 1164.19 370.48 1163.18 376.21
  C 1162.21 381.70 1155.22 386.17 1150.22 387.52
  Q 1142.87 389.50 1139.44 382.34
  A 0.78 0.78 0.0 0 1 1139.73 381.34
  L 1144.25 378.48
  A 1.03 1.01 39.6 0 1 1145.18 378.40
  L 1147.73 379.47
  A 1.92 1.87 -39.3 0 0 1148.87 379.57
  C 1151.81 378.90 1155.44 376.67 1154.07 373.17
  C 1152.40 368.89 1145.76 372.63 1143.40 372.90
  Q 1135.02 373.82 1132.18 367.22
  C 1128.33 358.26 1137.01 352.88 1144.46 351.41
  C 1149.14 350.50 1152.27 351.62 1154.32 356.07
  Z"
/>
<path fill="#ffffff" d="
  M 983.25 381.95
  A 1.40 1.39 31.0 0 1 982.73 379.89
  C 988.81 371.37 996.26 363.39 1002.26 355.53
  A 1.62 1.62 0.0 0 1 1004.15 355.01
  L 1012.11 358.18
  A 1.11 1.10 -76.2 0 1 1012.80 359.33
  L 1009.27 389.99
  A 1.30 1.30 0.0 0 1 1007.50 391.05
  L 1002.88 389.21
  A 1.66 1.66 0.0 0 1 1001.84 387.56
  L 1002.20 382.61
  A 0.78 0.77 12.0 0 0 1001.69 381.83
  L 993.71 378.91
  A 1.08 1.07 -61.8 0 0 992.47 379.29
  L 989.64 383.24
  A 2.00 2.00 0.0 0 1 987.12 383.87
  L 983.25 381.95
  Z
  M 1004.92 363.78
  L 997.86 372.71
  A 0.61 0.58 63.4 0 0 997.74 373.10
  Q 997.75 373.60 998.10 373.78
  Q 998.48 373.97 998.70 373.98
  Q 1001.20 374.06 1002.78 375.23
  A 0.47 0.47 0.0 0 0 1003.52 374.92
  L 1005.25 363.92
  A 0.19 0.18 -21.7 0 0 1004.92 363.78
  Z"
/>
<path fill="#ffffff" d="
  M 1120.47 380.84
  A 0.43 0.42 -76.7 0 0 1121.18 380.40
  L 1115.02 363.82
  A 1.56 1.56 0.0 0 1 1116.05 361.78
  L 1121.52 360.17
  A 1.87 1.87 0.0 0 1 1123.85 361.43
  L 1132.99 392.47
  A 1.24 1.24 0.0 0 1 1132.15 394.01
  L 1126.25 395.75
  A 1.13 1.11 63.5 0 1 1125.02 395.33
  Q 1120.39 388.89 1113.25 382.86
  A 4.27 4.21 -89.6 0 1 1112.57 382.16
  Q 1110.85 380.02 1109.55 378.98
  A 0.38 0.38 0.0 0 0 1108.98 379.46
  C 1109.54 380.49 1110.55 382.40 1110.97 384.11
  Q 1112.62 390.89 1114.36 396.64
  A 0.98 0.98 0.0 0 1 1113.67 397.88
  L 1107.56 399.51
  A 1.01 1.01 0.0 0 1 1106.33 398.82
  L 1097.52 368.91
  A 2.32 2.32 0.0 0 1 1098.94 366.08
  L 1103.95 364.22
  A 1.29 1.28 -31.4 0 1 1105.34 364.55
  L 1120.47 380.84
  Z"
/>
<path fill="#ffffff" d="
  M 1026.71 369.54
  L 1021.29 368.92
  A 1.60 1.60 0.0 0 1 1019.92 366.98
  L 1020.81 363.01
  A 1.51 1.49 -78.4 0 1 1022.54 361.86
  Q 1034.60 364.10 1044.85 367.36
  A 1.08 1.05 -0.9 0 1 1045.51 367.98
  C 1045.94 369.05 1045.63 370.98 1045.41 371.97
  Q 1045.21 372.86 1044.72 373.16
  A 1.46 1.46 0.0 0 1 1043.62 373.40
  L 1035.79 371.96
  A 0.56 0.56 0.0 0 0 1035.14 372.39
  L 1030.04 395.10
  A 1.85 1.84 12.6 0 1 1027.84 396.49
  L 1023.43 395.50
  A 1.79 1.79 0.0 0 1 1022.07 393.36
  L 1027.25 370.30
  A 0.63 0.63 0.0 0 0 1026.71 369.54
  Z"
/>
<path fill="#ff4788" d="
  M 1005.25 363.92
  L 1003.52 374.92
  A 0.47 0.47 0.0 0 1 1002.78 375.23
  Q 1001.20 374.06 998.70 373.98
  Q 998.48 373.97 998.10 373.78
  Q 997.75 373.60 997.74 373.10
  A 0.61 0.58 63.4 0 1 997.86 372.71
  L 1004.92 363.78
  A 0.19 0.18 -21.7 0 1 1005.25 363.92
  Z"
/>
<path fill="#ffffff" d="
  M 1067.44 371.07
  C 1071.95 367.72 1079.05 367.76 1084.40 368.14
  Q 1091.22 368.61 1092.63 375.34
  Q 1093.96 381.66 1094.01 387.56
  C 1094.06 393.07 1094.51 398.59 1088.45 401.03
  Q 1082.22 403.53 1075.53 402.85
  Q 1066.30 401.91 1066.07 392.52
  Q 1065.83 383.30 1065.84 377.02
  Q 1065.85 373.58 1066.71 371.92
  A 2.55 2.50 86.2 0 1 1067.44 371.07
  Z
  M 1084.9991 378.9397
  A 3.90 3.90 0.0 0 0 1080.8939 375.2563
  L 1077.6386 375.4326
  A 3.90 3.90 0.0 0 0 1073.9552 379.5378
  L 1074.6009 391.4603
  A 3.90 3.90 0.0 0 0 1078.7061 395.1437
  L 1081.9614 394.9674
  A 3.90 3.90 0.0 0 0 1085.6448 390.8622
  L 1084.9991 378.9397
  Z"
/>
<path fill="#ffffff" d="
  M 1052.20 368.53
  L 1058.15 369.09
  A 1.21 1.21 0.0 0 1 1059.24 370.40
  L 1056.53 399.69
  A 1.21 1.21 0.0 0 1 1055.33 400.79
  L 1049.32 400.79
  A 1.21 1.21 0.0 0 1 1048.11 399.47
  L 1050.88 369.63
  A 1.21 1.21 0.0 0 1 1052.20 368.53
  Z"
/>
</g>
</svg>
