<?xml version="1.0" encoding="UTF-8" standalone="no"?>
<svg xmlns="http://www.w3.org/2000/svg" version="1.1" viewBox="0 512 768 512">
<g stroke-width="2.00" fill="none" stroke-linecap="butt">
<path fill="#ffffff" d="
  M 221.34 655.49
  C 234.57 619.75 257.17 588.59 286.48 564.50
  Q 294.34 558.03 309.36 548.68
  C 314.84 545.27 320.43 542.45 326.14 539.68
  Q 347.87 529.17 365.26 524.53
  Q 368.30 523.72 387.38 519.64
  C 390.26 519.02 393.11 519.08 395.81 518.30
  A 6.77 6.76 -52.2 0 1 397.87 518.04
  C 402.43 518.18 407.37 516.91 411.39 516.98
  C 418.86 517.12 427.19 516.21 435.01 516.61
  C 441.56 516.95 447.61 516.95 454.91 517.85
  Q 462.98 518.86 464.74 519.09
  Q 506.70 524.67 543.84 546.68
  Q 550.40 550.57 561.97 558.49
  Q 572.70 565.83 584.90 577.56
  Q 606.04 597.89 622.04 623.66
  Q 645.87 662.06 652.47 709.31
  Q 653.07 713.63 653.05 714.48
  C 652.99 717.65 653.80 719.89 653.90 723.25
  C 654.37 739.00 653.93 755.07 651.00 770.19
  Q 639.36 830.21 596.31 873.06
  Q 574.75 894.51 545.50 910.26
  Q 544.84 910.62 534.60 915.72
  Q 528.78 918.62 523.46 920.62
  Q 506.23 927.09 495.05 929.53
  Q 472.39 934.49 465.99 934.86
  C 463.68 934.99 459.91 935.81 457.96 935.90
  Q 448.57 936.38 439.58 936.70
  C 432.67 936.95 426.50 936.00 419.33 936.02
  Q 416.48 936.03 411.24 935.41
  Q 387.83 932.67 365.76 926.33
  Q 360.93 924.94 355.80 922.95
  Q 349.88 920.65 349.22 920.45
  C 344.28 919.01 341.20 917.16 335.15 914.56
  C 324.13 909.81 313.36 903.24 303.02 896.52
  Q 280.59 881.94 261.26 860.40
  Q 222.84 817.57 212.49 760.51
  Q 208.16 736.67 210.15 706.90
  Q 210.28 704.97 210.74 702.72
  C 211.09 701.02 211.00 699.24 211.31 697.13
  Q 213.46 681.98 217.86 665.63
  Q 218.60 662.91 221.34 655.49
  Z
  M 463.50 924.76
  Q 469.71 924.02 469.99 923.97
  Q 482.39 921.89 495.81 918.62
  Q 507.27 915.83 520.76 910.19
  Q 537.95 903.01 550.40 895.39
  Q 577.62 878.73 598.92 854.16
  Q 609.70 841.72 618.15 827.29
  Q 625.71 814.39 632.01 797.27
  Q 639.10 777.96 641.54 759.60
  Q 643.74 743.01 643.03 722.45
  C 642.85 717.36 642.10 713.56 641.49 708.30
  Q 640.91 703.38 639.73 697.77
  Q 623.86 622.62 565.28 573.52
  C 561.15 570.05 556.89 567.17 553.29 564.54
  Q 548.25 560.86 544.00 558.27
  Q 522.06 544.97 497.54 536.20
  Q 496.85 535.95 495.27 535.93
  A 3.83 3.78 53.5 0 1 494.25 535.77
  Q 484.40 532.82 474.05 530.45
  C 468.63 529.21 463.33 528.78 458.17 527.94
  Q 454.74 527.37 446.75 526.69
  C 440.71 526.18 436.29 526.10 427.33 526.04
  Q 421.21 525.99 417.20 526.48
  Q 415.78 526.66 407.06 527.10
  C 404.56 527.23 402.47 527.97 400.11 527.93
  Q 396.66 527.87 393.80 528.69
  A 5.85 5.79 37.5 0 1 391.98 528.92
  Q 390.94 528.88 390.26 529.03
  Q 379.64 531.24 379.50 531.27
  Q 375.61 532.16 360.24 536.69
  Q 350.23 539.64 341.43 543.49
  Q 323.90 551.15 306.70 562.36
  Q 289.99 573.26 276.25 587.47
  Q 256.89 607.48 242.79 633.29
  C 232.40 652.31 225.95 672.95 222.34 694.13
  C 221.95 696.40 222.06 698.84 221.33 701.13
  A 3.24 2.95 -37.2 0 0 221.18 701.94
  Q 220.84 707.68 220.10 716.06
  Q 219.84 719.04 220.12 732.52
  C 220.19 735.84 220.93 738.35 220.92 741.39
  Q 220.91 743.79 221.46 748.02
  Q 228.28 800.07 258.82 840.79
  Q 271.07 857.12 286.48 870.54
  Q 302.68 884.65 319.42 894.31
  Q 339.67 905.99 360.95 913.55
  Q 380.17 920.38 403.30 923.77
  C 405.60 924.11 408.54 924.11 411.24 924.83
  C 413.01 925.31 416.76 924.92 419.24 925.35
  Q 422.72 925.94 431.75 926.07
  Q 450.23 926.33 463.50 924.76
  Z"
/>
<path fill="#ffffff" d="
  M 442.80 546.98
  A 1.19 1.18 13.9 0 1 444.35 546.05
  C 447.59 547.15 450.63 546.75 453.37 547.50
  Q 454.32 547.77 459.21 548.17
  Q 467.02 548.80 475.66 550.80
  A 1.71 1.71 0.0 0 1 476.94 552.85
  L 475.79 557.97
  A 1.72 1.71 12.5 0 1 473.73 559.27
  L 464.90 557.29
  A 1.17 1.17 0.0 0 0 463.49 558.25
  L 458.87 587.74
  A 1.32 1.32 0.0 0 1 457.23 588.81
  L 450.30 587.03
  A 1.31 1.30 11.8 0 1 449.34 585.57
  L 453.72 557.68
  A 1.33 1.32 -81.3 0 0 452.62 556.17
  L 442.73 554.62
  A 1.10 1.10 0.0 0 1 441.81 553.35
  L 442.80 546.98
  Z"
/>
<path fill="#ffffff" d="
  M 393.01 584.01
  C 392.93 583.17 391.47 581.54 390.97 580.12
  Q 388.46 573.13 387.12 563.97
  Q 386.38 558.96 388.09 554.71
  A 3.71 3.65 75.4 0 1 388.55 553.91
  C 392.41 548.94 397.64 547.56 403.87 546.98
  Q 409.60 546.45 414.29 548.15
  Q 418.16 549.54 420.47 553.68
  A 2.93 2.69 25.9 0 1 420.75 554.39
  Q 422.05 559.80 424.05 571.52
  Q 425.65 580.92 418.00 585.41
  A 4.09 4.03 -67.3 0 1 417.14 585.77
  Q 408.70 588.14 401.76 588.01
  Q 397.58 587.93 393.56 584.97
  A 1.37 1.35 15.5 0 1 393.01 584.01
  Z
  M 407.63 555.61
  L 399.67 557.09
  A 3.74 3.74 0.0 0 0 396.67 561.45
  L 398.83 573.10
  A 7.45 5.50 79.5 0 0 405.60 579.42
  L 410.10 578.59
  A 7.45 5.50 79.5 0 0 414.15 570.26
  L 411.99 558.61
  A 3.74 3.74 0.0 0 0 407.63 555.61
  Z"
/>
<path fill="#ffffff" d="
  M 499.16 583.73
  L 497.40 588.53
  A 1.57 1.57 0.0 0 0 498.30 590.53
  L 512.66 596.26
  A 0.73 0.72 14.7 0 1 513.11 597.02
  Q 512.69 600.58 511.29 602.45
  A 1.15 1.12 66.8 0 0 511.06 603.04
  L 510.88 604.96
  A 1.19 1.19 0.0 0 1 509.17 605.92
  L 486.09 594.49
  A 2.17 2.17 0.0 0 1 485.04 591.74
  L 498.05 559.11
  A 2.36 2.36 0.0 0 1 500.42 557.63
  Q 501.95 557.74 503.65 558.38
  Q 506.80 559.55 511.44 561.14
  Q 516.54 562.90 525.12 567.02
  A 1.64 1.64 0.0 0 1 525.80 569.36
  L 522.84 574.13
  A 1.78 1.78 0.0 0 1 520.49 574.76
  Q 513.71 571.10 505.24 568.88
  A 0.59 0.58 18.3 0 0 504.54 569.23
  L 502.19 575.12
  A 0.41 0.40 21.4 0 0 502.42 575.64
  L 513.72 580.14
  A 1.77 1.77 0.0 0 1 514.65 582.57
  L 512.41 587.08
  A 1.61 1.61 0.0 0 1 510.26 587.81
  L 500.74 583.09
  A 1.15 1.14 -66.9 0 0 499.16 583.73
  Z"
/>
<path fill="#ffffff" d="
  M 334.69 575.29
  Q 334.81 570.22 338.98 566.51
  C 341.46 564.30 344.36 562.39 347.80 561.21
  Q 351.64 559.90 357.99 559.04
  Q 359.06 558.90 362.70 560.18
  A 3.91 3.88 -12.3 0 1 364.18 561.12
  Q 367.76 564.76 369.43 568.83
  C 371.66 574.26 373.34 577.24 374.97 582.45
  C 376.77 588.19 374.93 593.01 369.57 596.05
  Q 364.20 599.10 362.00 599.84
  Q 357.68 601.28 353.04 600.90
  C 347.81 600.47 344.36 596.57 341.84 592.18
  Q 340.07 589.11 337.39 584.03
  Q 334.61 578.76 334.69 575.29
  Z
  M 365.85 585.43
  Q 363.18 576.93 359.68 570.71
  Q 358.60 568.81 357.75 568.35
  C 354.99 566.86 349.22 569.57 346.92 571.34
  Q 344.02 573.55 345.21 577.03
  Q 347.21 582.86 351.72 589.37
  C 355.25 594.46 361.95 591.57 365.32 587.86
  A 2.51 2.50 57.4 0 0 365.85 585.43
  Z"
/>
<path fill="#ffffff" d="
  M 318.68 624.31
  A 0.38 0.38 0.0 0 1 318.84 624.95
  L 311.24 632.00
  A 1.40 1.40 0.0 0 1 309.17 631.81
  Q 298.12 616.84 294.36 611.81
  C 291.50 607.98 287.92 604.85 285.41 600.92
  A 0.85 0.84 -36.5 0 1 285.58 599.82
  Q 295.21 591.85 297.25 590.25
  Q 302.15 586.38 307.75 585.69
  C 311.80 585.19 316.21 588.97 318.88 591.85
  C 321.50 594.67 323.24 598.95 321.37 602.34
  Q 320.88 603.23 320.83 604.00
  A 0.75 0.74 11.6 0 0 321.32 604.74
  Q 328.52 607.39 330.00 608.48
  Q 332.60 610.39 334.55 611.34
  A 0.91 0.91 0.0 0 1 334.67 612.90
  L 328.12 617.45
  A 0.74 0.73 85.0 0 0 327.89 617.73
  Q 327.53 618.54 326.97 618.91
  A 0.62 0.61 -31.5 0 1 326.10 618.71
  C 325.26 617.30 322.53 616.55 321.22 614.91
  C 320.41 613.91 319.66 614.11 318.75 613.55
  Q 316.84 612.37 314.14 611.20
  A 1.08 1.04 -44.6 0 0 313.25 611.21
  Q 311.06 612.24 309.44 614.13
  A 0.83 0.83 0.0 0 0 309.43 615.20
  L 316.13 623.10
  A 2.91 2.90 77.0 0 0 317.63 624.04
  L 318.68 624.31
  Z
  M 299.21 602.90
  L 303.72 607.78
  A 1.93 1.93 0.0 0 0 306.45 607.88
  L 310.62 604.02
  A 3.99 2.97 -42.8 0 0 311.52 599.13
  L 308.43 595.79
  A 3.99 2.97 -42.8 0 0 303.48 596.32
  L 299.31 600.18
  A 1.93 1.93 0.0 0 0 299.21 602.90
  Z"
/>
<path fill="#ffffff" d="
  M 524.17 610.71
  Q 524.91 609.17 526.42 607.43
  Q 532.10 600.88 539.61 592.61
  Q 543.18 588.68 547.23 586.44
  Q 548.47 585.75 551.18 586.06
  A 2.78 2.45 -25.9 0 1 551.97 586.28
  C 557.93 589.02 568.63 596.04 569.15 603.32
  Q 569.49 608.03 566.21 612.17
  Q 560.65 619.19 555.30 624.04
  C 551.63 627.37 546.69 629.26 542.09 626.42
  Q 532.24 620.32 524.34 611.82
  A 1.01 1.00 36.5 0 1 524.17 610.71
  Z
  M 536.70 611.47
  L 543.25 616.64
  A 1.67 1.65 -22.1 0 0 544.04 616.97
  Q 544.73 617.07 544.94 617.32
  A 1.96 1.95 -39.6 0 0 547.71 617.58
  Q 553.71 612.55 558.55 605.29
  A 2.57 2.55 47.1 0 0 558.64 602.58
  Q 556.46 598.80 551.56 596.30
  A 1.98 1.97 -55.3 0 0 549.22 596.73
  L 536.62 610.50
  A 0.67 0.67 0.0 0 0 536.70 611.47
  Z"
/>
<path fill="#ffffff" d="
  M 438.90 673.34
  A 0.40 0.40 0.0 0 0 439.55 673.68
  L 463.64 653.79
  A 1.07 1.05 74.1 0 0 464.02 653.09
  Q 464.11 652.34 464.91 651.83
  A 0.65 0.65 0.0 0 1 465.91 652.38
  L 465.91 670.64
  A 1.01 1.00 70.7 0 1 465.54 671.42
  L 435.35 695.95
  Q 435.33 695.97 435.31 695.99
  Q 433.54 697.84 431.56 698.77
  A 3.52 3.52 0.0 0 1 427.81 698.28
  Q 420.48 692.14 413.53 685.97
  C 408.73 681.71 402.47 677.35 397.98 672.41
  A 2.57 2.55 -66.2 0 1 397.32 670.69
  L 397.32 654.46
  A 0.58 0.57 -69.0 0 1 398.28 654.03
  Q 398.79 654.49 399.01 654.89
  A 2.41 2.26 7.0 0 0 399.60 655.60
  L 421.71 673.50
  A 3.31 2.99 87.7 0 1 422.20 674.00
  L 423.08 675.11
  A 0.31 0.31 0.0 0 0 423.63 674.92
  L 423.63 657.55
  A 0.97 0.95 18.6 0 0 423.24 656.78
  Q 422.55 656.27 421.77 655.98
  A 3.95 3.84 73.6 0 1 420.65 655.35
  L 398.48 637.53
  A 3.28 3.26 -70.8 0 1 397.25 634.97
  L 397.25 619.27
  A 0.63 0.63 0.0 0 1 398.28 618.78
  L 422.94 639.35
  A 0.44 0.43 19.8 0 0 423.65 639.02
  L 423.65 611.49
  A 0.64 0.63 -90.0 0 1 424.28 610.85
  L 438.39 610.85
  A 0.59 0.58 0.0 0 1 438.98 611.43
  L 438.98 639.12
  A 0.34 0.34 0.0 0 0 439.54 639.38
  L 464.74 618.02
  A 0.62 0.62 0.0 0 1 465.76 618.49
  L 465.76 635.62
  A 2.90 2.89 -19.4 0 1 464.67 637.88
  Q 459.14 642.28 440.19 657.20
  Q 438.78 658.31 438.89 660.50
  Q 439.24 668.12 438.90 673.34
  Z"
/>
<path fill="#ffffff" d="
  M 353.60 712.55
  Q 340.21 695.04 336.00 689.65
  Q 335.22 688.67 333.04 686.50
  A 0.79 0.79 0.0 0 1 333.60 685.15
  L 351.13 685.15
  A 2.37 2.37 0.0 0 1 353.05 686.13
  L 371.95 712.06
  A 0.96 0.95 -16.7 0 0 372.68 712.45
  L 385.79 713.07
  A 0.31 0.30 -17.3 0 0 386.05 712.58
  L 365.83 686.03
  A 0.56 0.56 0.0 0 1 366.27 685.13
  L 383.45 685.13
  A 2.40 2.39 71.4 0 1 385.36 686.08
  Q 393.88 697.22 398.67 703.57
  Q 399.88 705.18 408.91 715.85
  Q 409.67 716.74 410.31 718.73
  A 1.73 1.68 45.8 0 1 410.31 719.78
  Q 409.43 722.53 407.62 724.87
  Q 396.56 739.19 385.70 753.30
  A 2.80 2.77 -71.1 0 1 383.49 754.40
  L 365.30 754.40
  A 0.38 0.38 0.0 0 1 365.00 753.79
  L 385.87 727.37
  A 0.30 0.30 0.0 0 0 385.58 726.89
  C 384.73 727.05 383.93 727.57 383.15 727.54
  Q 377.56 727.36 372.38 727.59
  A 0.50 0.49 17.5 0 0 372.01 727.78
  L 352.49 753.71
  A 1.40 1.39 -71.3 0 1 351.38 754.26
  L 332.38 754.26
  A 0.30 0.29 19.5 0 1 332.15 753.78
  L 353.71 727.94
  A 0.29 0.29 0.0 0 0 353.49 727.47
  L 330.31 727.47
  A 1.14 1.14 0.0 0 1 329.17 726.33
  L 329.17 713.65
  A 1.16 1.16 0.0 0 1 330.74 712.57
  L 331.23 712.75
  A 0.85 0.82 55.2 0 0 331.54 712.81
  L 353.45 712.86
  A 0.19 0.19 0.0 0 0 353.60 712.55
  Z"
/>
<path fill="#ffffff" d="
  M 477.31 727.62
  C 478.37 728.86 479.91 730.32 481.28 732.11
  Q 486.82 739.37 495.09 749.42
  Q 496.83 751.54 498.17 753.85
  A 0.39 0.39 0.0 0 1 497.83 754.44
  L 481.09 754.44
  A 3.72 3.72 0.0 0 1 477.75 752.36
  Q 477.14 751.12 476.95 750.87
  Q 472.74 745.07 458.11 726.72
  Q 456.52 724.73 455.66 723.23
  Q 453.77 719.94 453.31 719.47
  A 0.79 0.79 0.0 0 1 453.19 718.52
  Q 454.75 715.89 455.29 715.28
  Q 461.35 708.43 462.35 707.10
  Q 471.88 694.44 477.45 687.19
  Q 478.78 685.46 480.49 685.42
  Q 485.98 685.30 496.66 685.37
  A 0.86 0.86 0.0 0 1 497.33 686.76
  L 477.07 712.41
  A 0.24 0.24 0.0 0 0 477.26 712.80
  L 491.26 712.70
  A 0.51 0.50 -78.8 0 0 491.73 712.38
  C 491.96 711.81 492.08 711.06 492.65 710.32
  Q 503.05 696.91 508.97 688.71
  Q 510.30 686.88 512.23 685.52
  A 1.93 1.91 26.9 0 1 513.35 685.16
  L 529.47 685.16
  A 0.72 0.72 0.0 0 1 530.09 686.25
  C 528.80 688.41 527.57 690.56 526.08 692.36
  Q 520.11 699.58 512.92 709.51
  A 2.25 2.09 2.1 0 1 512.18 710.15
  Q 510.87 710.86 510.09 712.16
  A 0.30 0.30 0.0 0 0 510.35 712.61
  L 534.41 712.61
  A 0.47 0.47 0.0 0 1 534.88 713.08
  L 534.88 726.69
  A 0.69 0.68 -0.0 0 1 534.19 727.37
  L 511.09 727.37
  A 0.33 0.33 0.0 0 0 510.83 727.90
  Q 514.73 732.95 516.88 735.26
  C 522.09 740.88 527.12 747.25 531.18 753.09
  A 0.82 0.82 0.0 0 1 530.51 754.37
  L 514.02 754.37
  A 2.84 2.83 -19.2 0 1 511.80 753.30
  L 491.57 727.84
  A 1.37 1.36 70.8 0 0 490.50 727.32
  L 477.45 727.32
  A 0.18 0.18 0.0 0 0 477.31 727.62
  Z"
/>
<path fill="#ffffff" d="
  M 242.84 724.91
  A 0.78 0.78 0.0 0 1 243.42 724.21
  L 247.95 723.00
  A 1.69 1.69 0.0 0 1 249.95 724.00
  Q 251.50 727.82 257.12 727.02
  Q 261.13 726.44 261.08 722.94
  C 261.04 720.78 259.61 719.76 257.63 719.15
  Q 251.72 717.31 248.07 715.98
  A 3.53 3.52 73.7 0 1 247.25 715.53
  C 240.90 710.77 241.94 701.63 249.03 698.30
  Q 254.05 695.94 260.50 697.51
  Q 265.83 698.81 268.13 703.96
  A 1.12 1.12 0.0 0 1 267.42 705.48
  L 262.44 706.95
  A 1.10 1.09 62.7 0 1 261.27 706.57
  Q 259.01 703.64 254.69 703.65
  A 1.90 1.80 28.0 0 0 253.72 703.92
  Q 252.17 704.88 251.27 706.39
  A 1.09 1.08 -41.3 0 0 251.20 707.38
  Q 251.94 709.13 253.44 709.81
  Q 256.91 711.38 263.27 713.17
  A 2.66 2.64 71.8 0 1 264.13 713.61
  C 265.91 714.98 268.65 717.75 269.03 720.11
  Q 269.12 720.66 269.01 723.37
  C 268.62 733.46 257.40 735.76 249.71 732.88
  Q 247.17 731.93 246.08 730.81
  C 244.49 729.18 242.64 727.32 242.84 724.91
  Z"
/>
<path fill="#ffffff" d="
  M 283.84 697.76
  L 290.88 697.76
  A 0.89 0.89 0.0 0 1 291.73 698.38
  L 302.60 732.53
  A 0.89 0.89 0.0 0 1 301.75 733.69
  L 295.19 733.69
  A 0.89 0.89 0.0 0 1 294.34 733.07
  L 292.59 727.56
  A 0.89 0.89 0.0 0 0 291.74 726.94
  L 282.95 726.94
  A 0.89 0.89 0.0 0 0 282.07 727.69
  L 281.28 732.76
  A 0.89 0.89 0.0 0 1 280.40 733.51
  L 273.85 733.51
  A 0.89 0.89 0.0 0 1 273.00 732.37
  L 282.98 698.40
  A 0.89 0.89 0.0 0 1 283.84 697.76
  Z
  M 290.58 719.67
  L 287.46 707.94
  A 0.39 0.38 -36.8 0 0 286.76 707.84
  Q 286.43 708.38 286.36 708.82
  Q 285.34 715.12 283.90 720.20
  A 0.46 0.46 0.0 0 0 284.36 720.78
  L 289.96 720.52
  A 0.68 0.68 0.0 0 0 290.58 719.67
  Z"
/>
<path fill="#ffffff" d="
  M 618.94 732.17
  A 0.87 0.87 0.0 0 1 618.21 733.51
  L 612.13 733.51
  A 3.24 3.23 -16.0 0 1 609.39 732.00
  L 603.57 722.79
  A 0.23 0.23 0.0 0 0 603.17 722.82
  L 598.69 731.85
  A 3.17 3.16 13.1 0 1 595.85 733.61
  L 591.23 733.61
  A 1.55 1.55 0.0 0 1 589.91 731.24
  L 598.94 716.70
  A 0.95 0.94 -45.4 0 0 598.94 715.69
  L 588.72 699.53
  A 1.02 1.02 0.0 0 1 589.58 697.97
  L 597.29 697.97
  A 1.03 1.02 -13.0 0 1 598.21 698.54
  L 603.32 708.81
  A 0.78 0.78 0.0 0 0 604.72 708.81
  L 609.45 699.26
  A 2.54 2.53 -76.8 0 1 611.72 697.85
  L 617.87 697.85
  A 0.80 0.80 0.0 0 1 618.53 699.10
  Q 614.17 705.42 609.43 714.22
  Q 608.50 715.95 609.42 717.04
  Q 610.07 717.81 610.14 717.91
  Q 614.59 725.37 618.94 732.17
  Z"
/>
<path fill="#ffffff" d="
  M 573.13 733.59
  Q 569.64 733.60 569.36 733.53
  A 0.39 0.38 6.7 0 1 569.07 733.16
  L 568.98 705.55
  A 0.59 0.58 0.0 0 0 568.40 704.97
  L 560.91 704.97
  A 0.65 0.65 0.0 0 1 560.26 704.32
  L 560.27 698.80
  A 0.77 0.77 0.0 0 1 561.02 698.03
  Q 566.92 697.93 573.06 697.96
  Q 579.20 697.90 585.10 697.98
  A 0.77 0.77 0.0 0 1 585.85 698.74
  L 585.88 704.26
  A 0.65 0.65 0.0 0 1 585.23 704.92
  L 577.75 704.95
  A 0.59 0.58 -0.3 0 0 577.17 705.53
  L 577.20 733.14
  A 0.39 0.38 -7.0 0 1 576.90 733.52
  Q 576.63 733.58 573.13 733.59
  Z"
/>
<path fill="#ffffff" d="
  M 431.53 702.28
  L 435.63 713.32
  A 1.21 1.20 79.9 0 0 436.76 714.11
  L 445.88 714.11
  A 1.70 1.69 25.7 0 1 446.94 717.13
  L 440.12 722.55
  A 2.59 2.58 -27.1 0 0 439.23 725.27
  L 441.92 735.08
  A 1.15 1.12 49.0 0 1 441.88 735.80
  Q 441.70 736.24 440.89 736.51
  A 0.42 0.41 72.6 0 1 440.36 736.23
  C 440.10 735.34 439.04 735.20 438.47 734.75
  Q 435.91 732.76 432.65 730.36
  A 2.87 2.87 0.0 0 0 429.27 730.36
  L 421.93 735.71
  A 1.29 1.29 0.0 0 1 419.93 734.30
  L 422.86 724.35
  A 1.64 1.64 0.0 0 0 422.37 722.66
  L 419.71 720.29
  A 1.05 0.94 -9.5 0 0 419.41 720.10
  Q 416.58 718.72 414.00 716.00
  A 1.20 1.20 0.0 0 1 414.87 713.97
  L 424.99 713.97
  A 1.60 1.59 9.9 0 0 426.49 712.92
  L 430.39 702.28
  A 0.61 0.61 0.0 0 1 431.53 702.28
  Z"
/>
<path fill="#ffffff" d="
  M 439.08 769.32
  L 439.08 782.82
  A 1.20 1.19 19.2 0 0 439.54 783.76
  L 462.94 802.08
  A 1.41 1.35 -20.9 0 0 463.63 802.37
  Q 463.79 802.39 464.32 802.36
  A 0.72 0.71 75.2 0 1 464.99 802.76
  Q 465.79 804.40 465.77 806.26
  Q 465.72 812.54 465.82 820.93
  A 1.35 1.35 0.0 0 1 463.41 821.79
  Q 462.25 820.33 459.54 818.43
  Q 458.08 817.41 443.87 806.09
  Q 441.82 804.45 439.69 802.11
  A 0.36 0.36 0.0 0 0 439.07 802.35
  L 439.07 828.43
  A 0.78 0.77 0.0 0 1 438.29 829.20
  L 423.84 829.20
  A 0.29 0.29 0.0 0 1 423.55 828.91
  L 423.55 803.56
  A 0.29 0.29 0.0 0 0 423.08 803.34
  L 397.30 823.82
  A 0.62 0.62 0.0 0 1 396.30 823.31
  Q 396.68 815.51 396.52 808.22
  Q 396.45 805.38 398.36 804.11
  Q 408.19 797.54 419.17 788.17
  C 421.04 786.57 423.66 784.01 423.62 781.30
  Q 423.56 776.44 423.63 768.26
  A 0.51 0.51 0.0 0 0 422.77 767.88
  C 417.07 773.15 410.71 778.73 404.09 783.41
  Q 400.92 785.65 398.46 787.95
  Q 398.01 788.38 396.90 788.77
  A 0.55 0.55 0.0 0 1 396.17 788.23
  L 397.00 770.78
  A 0.82 0.81 67.4 0 1 397.21 770.26
  Q 399.15 768.16 401.26 766.94
  A 4.24 4.12 -81.9 0 0 402.10 766.29
  C 406.07 762.32 410.62 759.32 415.03 755.63
  Q 422.23 749.60 430.03 744.06
  A 2.92 2.91 45.3 0 1 433.44 744.08
  C 438.24 747.57 441.78 751.63 446.37 755.12
  Q 450.47 758.24 462.48 768.08
  Q 462.49 768.10 464.05 769.08
  Q 465.95 770.27 465.90 773.21
  Q 465.76 782.96 465.90 787.90
  Q 465.92 788.62 465.09 788.88
  Q 464.46 789.08 464.14 788.41
  Q 463.90 787.92 463.40 787.50
  Q 460.80 785.34 460.58 785.19
  Q 451.69 779.17 439.85 768.96
  A 0.47 0.47 0.0 0 0 439.08 769.32
  Z"
/>
<path fill="#ffffff" d="
  M 291.07 819.15
  Q 289.47 821.19 286.63 822.74
  A 2.18 2.17 27.7 0 1 285.75 823.01
  Q 281.72 823.37 278.09 821.06
  Q 270.19 816.04 269.44 807.95
  Q 269.14 804.71 271.24 801.91
  Q 277.07 794.12 285.32 789.47
  A 4.22 4.12 -62.1 0 1 286.94 788.95
  Q 292.19 788.41 294.67 789.35
  Q 299.03 791.01 303.30 797.30
  A 3.42 3.35 24.4 0 1 303.85 798.72
  L 304.54 803.83
  A 1.18 1.13 58.8 0 1 304.36 804.63
  Q 304.33 804.66 302.52 807.94
  Q 300.52 811.57 297.19 809.15
  Q 296.38 808.56 295.43 805.84
  A 1.31 1.31 0.0 0 1 295.52 804.78
  Q 296.48 802.96 296.72 801.38
  A 1.56 1.53 34.8 0 0 296.53 800.38
  Q 294.20 796.34 290.16 797.08
  A 2.98 2.89 21.1 0 0 288.98 797.58
  L 279.75 804.31
  A 1.61 1.61 0.0 0 0 279.45 804.61
  Q 276.33 808.79 279.63 812.80
  A 2.44 2.36 -7.8 0 0 280.57 813.49
  L 288.49 816.64
  A 0.92 0.92 0.0 0 1 288.89 816.98
  Q 289.33 817.70 290.86 818.35
  A 0.52 0.52 0.0 0 1 291.07 819.15
  Z"
/>
<path fill="#ffffff" d="
  M 583.64 797.11
  C 585.81 799.12 587.76 800.59 589.29 802.17
  Q 595.24 808.31 592.34 816.27
  A 3.69 3.33 -18.9 0 1 591.84 817.17
  Q 588.11 822.09 585.02 823.74
  Q 578.35 827.31 571.53 822.75
  Q 567.27 819.90 565.56 818.32
  C 563.39 816.31 561.44 814.84 559.91 813.26
  Q 553.96 807.12 556.86 799.16
  A 3.69 3.33 -18.9 0 1 557.36 798.26
  Q 561.09 793.34 564.18 791.69
  Q 570.85 788.12 577.67 792.68
  Q 581.93 795.53 583.64 797.11
  Z
  M 583.8598 814.5065
  A 5.13 5.13 0.0 0 0 583.0385 807.2982
  L 573.3967 799.6288
  A 5.13 5.13 0.0 0 0 566.1885 800.4501
  L 565.7402 801.0135
  A 5.13 5.13 0.0 0 0 566.5615 808.2218
  L 576.2033 815.8912
  A 5.13 5.13 0.0 0 0 583.4115 815.0699
  L 583.8598 814.5065
  Z"
/>
<path fill="#ffffff" d="
  M 313.25 838.23
  L 308.63 850.85
  A 1.03 1.03 0.0 0 1 306.90 851.20
  L 302.67 846.64
  A 2.88 2.87 -53.3 0 1 302.20 843.41
  L 306.19 835.35
  A 1.75 1.74 -61.7 0 0 305.51 833.06
  Q 304.58 832.52 304.18 831.59
  A 0.50 0.50 0.0 0 0 303.39 831.41
  L 296.13 837.56
  A 3.17 3.16 48.4 0 1 291.77 837.30
  L 289.75 835.12
  A 2.30 2.30 0.0 0 1 289.87 831.88
  L 312.99 810.43
  A 0.81 0.79 -51.1 0 1 313.94 810.32
  Q 316.60 811.89 319.01 814.49
  A 5.56 5.07 82.3 0 0 320.00 815.32
  Q 325.39 818.84 327.84 824.92
  Q 328.32 826.11 327.66 828.46
  Q 325.92 834.74 319.39 837.44
  Q 316.69 838.55 313.85 837.91
  A 0.52 0.51 16.0 0 0 313.25 838.23
  Z
  M 314.30 820.86
  L 308.60 826.06
  A 1.08 1.08 0.0 0 0 308.53 827.59
  L 310.01 829.21
  A 5.07 4.23 47.6 0 0 316.55 830.10
  L 317.60 829.14
  A 5.07 4.23 47.6 0 0 317.30 822.54
  L 315.82 820.93
  A 1.08 1.08 0.0 0 0 314.30 820.86
  Z"
/>
<path fill="#ffffff" d="
  M 550.57 825.96
  Q 546.95 823.19 543.24 826.82
  C 541.02 828.98 541.99 831.22 544.06 833.34
  Q 548.80 838.18 552.90 841.60
  C 554.19 842.67 555.82 843.10 557.59 842.62
  Q 563.72 840.98 564.33 834.58
  A 3.03 2.96 -87.1 0 1 567.28 831.85
  Q 569.05 831.85 571.37 832.90
  A 0.94 0.93 -80.9 0 1 571.92 833.67
  Q 572.27 837.35 570.90 840.09
  Q 565.45 851.04 553.39 851.04
  A 2.76 2.66 -32.6 0 1 552.34 850.83
  Q 547.51 848.74 546.23 847.56
  Q 541.28 842.99 540.20 841.57
  Q 537.49 838.03 536.98 837.55
  C 534.87 835.59 534.55 834.36 533.27 831.75
  A 1.96 1.93 -54.6 0 1 533.09 830.63
  Q 534.59 819.39 545.56 816.79
  Q 551.36 815.42 555.89 820.40
  A 0.92 0.92 0.0 0 1 555.97 821.54
  Q 554.24 824.09 551.78 825.96
  A 1.00 0.99 44.7 0 1 550.57 825.96
  Z"
/>
<path fill="#ffffff" d="
  M 340.23 855.96
  L 332.72 850.04
  A 1.13 1.13 0.0 0 0 331.11 850.26
  L 328.18 854.35
  A 1.01 1.00 -51.1 0 0 328.32 855.68
  Q 332.13 859.19 337.62 861.97
  A 2.40 2.40 0.0 0 1 338.48 865.51
  L 337.30 867.16
  A 2.47 2.46 -54.3 0 1 333.86 867.73
  L 320.64 858.26
  A 0.75 0.47 58.3 0 0 320.54 858.21
  Q 318.79 857.60 317.61 856.09
  A 1.46 1.45 44.5 0 1 317.59 854.32
  Q 323.72 846.10 330.45 838.29
  C 333.31 834.98 335.42 831.73 338.69 828.83
  A 0.47 0.47 0.0 0 1 339.29 828.81
  L 354.22 840.60
  A 1.74 1.73 -47.3 0 1 354.32 843.23
  L 351.77 845.60
  A 2.33 2.32 42.7 0 1 348.74 845.72
  L 341.20 839.76
  A 1.37 1.36 36.8 0 0 339.24 840.04
  L 336.94 843.26
  A 1.40 1.39 37.1 0 0 337.21 845.17
  L 340.27 847.58
  A 0.85 0.82 -15.0 0 0 340.54 847.73
  Q 342.46 848.36 344.59 850.34
  A 1.38 1.37 -50.6 0 1 344.76 852.14
  L 342.23 855.68
  A 1.40 1.39 37.0 0 1 340.23 855.96
  Z"
/>
<path fill="#ffffff" d="
  M 517.75 849.21
  Q 515.28 851.18 513.61 851.72
  A 1.36 1.35 -43.5 0 1 512.68 851.70
  Q 507.20 849.66 503.14 852.55
  Q 501.39 853.79 502.36 856.17
  C 503.67 859.38 508.40 858.42 511.35 857.46
  A 3.37 3.05 29.4 0 1 511.97 857.32
  Q 524.15 855.70 526.94 867.51
  Q 527.40 869.46 526.60 871.88
  C 524.94 876.90 517.05 880.46 512.48 881.00
  Q 506.26 881.75 502.55 876.47
  Q 501.60 875.13 502.29 874.40
  Q 502.89 873.77 504.11 873.72
  A 1.75 1.72 -64.9 0 0 505.13 873.34
  Q 507.53 871.43 510.45 873.30
  A 2.01 1.96 59.8 0 0 511.53 873.60
  Q 513.73 873.53 514.80 873.34
  C 517.39 872.87 519.90 870.62 518.71 867.84
  C 517.97 866.10 515.25 864.30 513.25 865.46
  Q 512.57 865.86 511.76 865.40
  C 509.79 864.27 505.60 866.22 503.34 865.86
  Q 495.92 864.68 493.76 857.30
  A 3.79 3.45 -55.3 0 1 493.63 856.33
  C 493.61 846.97 504.54 842.64 512.39 844.19
  A 1.28 1.23 68.9 0 1 512.90 844.43
  L 517.75 848.26
  A 0.61 0.60 45.2 0 1 517.75 849.21
  Z"
/>
<path fill="#ffffff" d="
  M 366.49 846.29
  L 373.29 849.12
  A 1.38 1.37 -74.5 0 1 374.12 850.61
  L 368.97 883.48
  A 1.71 1.71 0.0 0 1 366.48 884.72
  Q 364.81 883.84 362.06 882.77
  Q 361.22 882.45 361.47 881.65
  Q 361.65 881.08 361.66 880.18
  Q 361.69 877.69 362.23 875.43
  A 2.95 2.94 -72.1 0 0 360.50 872.04
  L 353.89 869.29
  A 0.73 0.72 -59.0 0 0 353.06 869.50
  L 348.46 875.00
  A 1.36 1.35 32.8 0 1 346.81 875.35
  L 342.96 873.44
  A 1.17 1.17 0.0 0 1 342.50 871.76
  C 347.91 863.48 355.12 856.27 362.92 848.16
  Q 364.16 846.88 365.75 846.27
  A 1.00 0.97 45.8 0 1 366.49 846.29
  Z
  M 360.93 865.94
  Q 362.36 866.60 363.93 866.82
  A 0.63 0.63 0.0 0 0 364.65 866.26
  Q 365.18 860.62 366.52 854.36
  Q 366.57 854.11 366.42 854.04
  Q 366.27 853.97 366.12 854.17
  Q 362.22 859.26 358.28 863.32
  A 0.63 0.63 0.0 0 0 358.32 864.24
  Q 359.51 865.28 360.93 865.94
  Z"
/>
<path fill="#ffffff" d="
  M 380.42 852.60
  A 0.31 0.31 0.0 0 1 380.94 852.40
  Q 381.34 852.77 383.76 853.01
  A 1.04 0.55 -16.8 0 1 383.91 853.04
  L 406.00 859.28
  A 1.55 1.54 -79.4 0 1 407.11 860.91
  L 406.82 864.11
  A 2.16 2.15 3.8 0 1 404.59 866.06
  Q 402.75 865.98 399.33 864.24
  A 1.66 1.66 0.0 0 0 396.97 865.33
  Q 396.76 866.18 396.39 866.92
  A 1.48 1.27 -29.2 0 0 396.26 867.27
  L 390.91 889.50
  A 1.92 1.91 13.8 0 1 388.57 890.91
  L 384.47 889.85
  A 2.08 2.08 0.0 0 1 382.98 887.32
  L 389.37 862.56
  A 0.95 0.95 0.0 0 0 388.69 861.40
  L 380.89 859.39
  A 1.32 1.31 9.8 0 1 379.91 858.00
  L 380.42 852.60
  Z"
/>
<path fill="#ffffff" d="
  M 471.43 873.03
  A 0.31 0.30 -78.5 0 0 470.95 873.35
  L 475.56 890.67
  A 1.32 1.31 -14.9 0 1 474.62 892.28
  L 469.55 893.63
  A 0.87 0.87 0.0 0 1 468.49 893.04
  L 459.57 862.74
  A 0.80 0.79 67.1 0 1 459.94 861.81
  C 462.95 860.14 465.59 858.40 468.27 859.19
  A 0.22 0.21 79.3 0 1 468.37 859.26
  L 479.84 871.61
  A 0.70 0.56 -83.5 0 1 479.94 871.77
  Q 480.75 873.63 482.79 875.04
  A 0.32 0.32 0.0 0 0 483.28 874.68
  L 477.43 856.28
  A 1.34 1.33 -16.6 0 1 478.36 854.58
  L 483.38 853.25
  A 1.67 1.66 -15.9 0 1 485.40 854.37
  Q 489.69 868.42 491.98 876.66
  C 492.82 879.70 494.01 882.22 495.34 884.87
  A 1.78 1.78 0.0 0 1 494.21 887.39
  L 489.83 888.56
  A 3.64 3.63 65.0 0 1 485.92 887.13
  C 482.73 882.60 477.98 878.88 474.21 875.49
  Q 471.78 873.30 471.43 873.03
  Z"
/>
<path fill="#ffffff" d="
  M 413.94 860.86
  L 420.49 861.47
  A 0.77 0.77 0.0 0 1 421.19 862.31
  L 418.13 895.30
  A 0.77 0.77 0.0 0 1 417.20 895.98
  L 410.72 894.53
  A 0.77 0.77 0.0 0 1 410.12 893.71
  L 413.10 861.56
  A 0.77 0.77 0.0 0 1 413.94 860.86
  Z"
/>
<path fill="#ffffff" d="
  M 440.00 897.36
  Q 439.66 897.18 436.87 896.99
  C 431.49 896.61 428.12 892.17 427.45 887.22
  Q 426.58 880.81 426.98 871.00
  C 427.17 866.37 429.87 863.79 434.59 862.73
  Q 439.06 861.72 444.76 861.94
  C 447.46 862.04 453.13 863.91 453.78 867.07
  Q 456.38 879.52 455.90 887.18
  Q 455.50 893.41 449.59 896.35
  A 3.32 3.23 27.4 0 1 448.53 896.67
  L 441.33 897.60
  A 2.26 2.23 54.8 0 1 440.00 897.36
  Z
  M 447.0157 873.1627
  A 4.78 4.78 0.0 0 0 441.8908 868.7545
  L 439.0787 868.9660
  A 4.78 4.78 0.0 0 0 434.6706 874.0909
  L 435.5643 885.9773
  A 4.78 4.78 0.0 0 0 440.6892 890.3855
  L 443.5013 890.1740
  A 4.78 4.78 0.0 0 0 447.9094 885.0491
  L 447.0157 873.1627
  Z"
/>
</g>
</svg>
