<?xml version="1.0" encoding="UTF-8" standalone="no"?>
<svg xmlns="http://www.w3.org/2000/svg" version="1.1" viewBox="0 0 768 512">
<g stroke-width="2.00" fill="none" stroke-linecap="butt">
<path stroke="#c5eafb" vector-effect="non-scaling-stroke" d="
  M 475.98 54.71
  Q 469.80 53.01 464.27 52.11
  Q 463.94 52.05 462.60 52.26
  A 1.16 1.11 -46.1 0 1 462.34 52.27
  L 444.85 49.86
  A 1.25 1.24 -81.7 0 0 443.46 50.90
  L 442.46 57.30
  A 0.94 0.94 0.0 0 0 443.09 58.33
  Q 448.67 60.13 453.51 60.34
  A 0.44 0.44 0.0 0 1 453.91 60.91
  Q 452.42 65.70 451.78 71.45
  C 451.12 77.39 450.40 80.63 449.22 87.70
  A 1.40 1.40 0.0 0 0 450.38 89.31
  L 458.63 90.60
  A 1.27 1.26 8.8 0 0 460.08 89.55
  L 464.18 63.40
  A 1.36 1.36 0.0 0 1 465.73 62.27
  L 473.40 63.47
  A 1.94 1.93 8.9 0 0 475.62 61.86
  L 476.59 55.65
  A 0.84 0.83 12.3 0 0 475.98 54.71"
/>
<path stroke="#c5eafb" vector-effect="non-scaling-stroke" d="
  M 425.64 67.46
  C 425.27 64.90 424.60 60.85 423.20 57.47
  C 418.63 46.39 401.65 49.52 394.12 53.84
  Q 389.70 56.37 389.04 62.75
  A 3.18 2.98 -51.3 0 0 389.13 63.88
  C 389.85 66.53 392.25 74.45 393.66 81.06
  C 394.44 84.73 397.04 90.57 401.02 90.92
  Q 410.13 91.73 418.88 89.14
  Q 422.17 88.16 424.54 84.87
  Q 426.85 81.68 426.93 79.52
  Q 427.03 76.89 425.64 67.46"
/>
<path stroke="#c5eafb" vector-effect="non-scaling-stroke" d="
  M 496.61 92.38
  L 498.20 88.03
  A 0.30 0.29 19.7 0 1 498.57 87.86
  L 511.75 92.69
  A 0.97 0.97 0.0 0 0 512.98 92.16
  L 515.82 85.33
  A 0.83 0.82 -68.9 0 0 515.34 84.24
  L 502.64 79.58
  A 0.58 0.57 20.2 0 1 502.29 78.84
  L 503.91 74.41
  A 1.07 1.06 -69.8 0 1 505.27 73.78
  L 518.40 78.59
  A 2.95 2.94 -68.3 0 0 522.12 76.98
  L 523.93 72.75
  A 2.61 2.61 0.0 0 0 522.43 69.27
  L 498.69 60.58
  A 0.93 0.93 0.0 0 0 497.51 61.10
  L 482.47 97.21
  A 0.86 0.85 -67.8 0 0 482.93 98.32
  L 509.08 109.21
  A 1.55 1.55 0.0 0 0 511.14 108.31
  L 513.22 102.61
  A 1.86 1.85 -66.7 0 0 512.31 100.31
  L 496.69 92.58
  A 0.16 0.16 0.0 0 1 496.61 92.38"
/>
<path stroke="#c5eafb" vector-effect="non-scaling-stroke" d="
  M 368.91 65.60
  C 365.93 64.10 362.90 62.89 359.26 63.75
  Q 351.84 65.51 346.49 68.62
  C 342.18 71.12 339.95 73.97 340.75 78.77
  Q 342.28 87.93 349.70 100.50
  Q 352.55 105.33 358.01 105.07
  C 364.78 104.74 382.96 101.09 380.02 89.95
  Q 379.07 86.37 374.39 74.50
  C 373.47 72.18 371.70 69.76 370.98 67.88
  A 4.26 4.24 2.9 0 0 368.91 65.60"
/>
<path stroke="#c5eafb" vector-effect="non-scaling-stroke" d="
  M 523.44 118.11
  Q 533.29 125.72 544.87 130.90
  C 548.66 132.59 553.46 128.56 555.67 125.92
  Q 556.01 125.51 564.50 115.22
  Q 568.61 110.25 566.57 103.45
  C 564.48 96.50 552.39 90.21 546.44 87.11
  A 2.38 2.38 0.0 0 0 543.41 87.83
  C 535.46 98.89 531.26 104.80 526.46 110.71
  Q 524.07 113.66 523.12 117.17
  A 0.88 0.88 0.0 0 0 523.44 118.11"
/>
<path stroke="#c5eafb" vector-effect="non-scaling-stroke" d="
  M 316.66 118.50
  Q 319.19 118.74 319.67 118.57
  A 1.99 1.98 -48.5 0 1 320.79 118.50
  C 325.07 119.46 329.17 121.81 334.48 121.19
  A 2.34 2.28 -65.9 0 0 335.59 120.75
  L 340.89 116.84
  A 0.60 0.60 0.0 0 0 340.80 115.82
  Q 335.06 113.03 331.24 111.56
  Q 328.49 110.51 326.10 110.54
  A 0.20 0.20 0.0 0 1 325.92 110.26
  Q 328.29 104.93 326.67 100.00
  C 325.54 96.58 320.95 92.16 317.67 91.17
  Q 311.27 89.24 305.46 92.97
  Q 298.84 97.23 291.14 103.40
  A 1.71 1.71 0.0 0 0 290.87 105.80
  L 315.42 136.70
  A 1.98 1.97 49.3 0 0 318.31 136.92
  L 324.81 130.88
  A 1.27 1.27 0.0 0 0 324.75 128.97
  Q 320.52 125.56 316.30 119.09
  A 0.39 0.38 -13.9 0 1 316.66 118.50"
/>
<path stroke="#c5eafb" vector-effect="non-scaling-stroke" d="
  M 438.54 178.22
  L 438.39 163.59
  A 0.88 0.77 -41.1 0 1 438.42 163.37
  C 438.76 162.16 440.20 162.25 441.11 161.54
  Q 455.45 150.30 464.18 143.91
  A 2.19 2.17 72.1 0 0 465.07 142.15
  L 465.07 125.49
  A 0.82 0.81 73.5 0 0 463.81 124.80
  L 453.74 131.42
  A 1.30 0.65 -61.1 0 0 453.62 131.51
  Q 451.00 133.80 449.98 134.46
  Q 444.26 138.15 439.35 142.99
  A 0.18 0.17 -22.8 0 1 439.05 142.87
  L 439.05 118.75
  A 0.77 0.77 0.0 0 0 438.28 117.98
  L 424.19 117.98
  A 1.09 1.08 -1.3 0 0 423.10 119.11
  Q 423.55 130.60 423.60 139.99
  Q 423.61 141.17 423.50 142.03
  Q 423.35 143.25 423.95 144.74
  A 0.62 0.61 -74.4 0 1 422.89 145.34
  L 421.67 143.68
  A 2.70 2.65 -89.5 0 0 421.10 143.09
  Q 416.84 139.74 415.48 137.76
  Q 413.14 134.33 409.82 131.93
  Q 402.63 126.74 401.15 125.67
  C 399.61 124.56 400.39 122.43 398.83 121.04
  A 1.06 1.06 0.0 0 0 397.07 121.84
  L 397.07 141.43
  A 2.44 2.43 -70.9 0 0 397.99 143.34
  L 423.37 163.38
  A 1.97 1.93 19.7 0 1 424.11 164.90
  L 424.11 177.83
  A 0.40 0.40 0.0 0 1 423.45 178.14
  L 399.62 158.26
  A 1.43 1.43 0.0 0 0 397.28 159.36
  L 397.28 176.13
  A 1.80 1.79 18.9 0 0 397.98 177.55
  L 430.41 203.17
  A 1.41 1.41 0.0 0 0 432.20 203.14
  Q 442.14 194.78 457.72 183.45
  C 459.65 182.05 465.63 178.21 465.85 175.22
  Q 466.15 170.94 465.36 161.86
  A 3.26 3.13 -43.8 0 1 465.40 160.92
  L 465.79 158.85
  A 0.70 0.70 0.0 0 0 464.64 158.20
  Q 454.10 167.27 441.09 176.36
  A 1.07 0.99 2.4 0 0 440.96 176.47
  L 439.16 178.45
  A 0.36 0.35 -24.2 0 1 438.54 178.22"
/>
<path stroke="#c5eafb" vector-effect="non-scaling-stroke" d="
  M 366.49 255.87
  Q 375.94 255.87 382.74 255.76
  Q 385.02 255.72 385.94 254.42
  Q 395.84 240.35 403.51 229.88
  C 405.17 227.62 407.06 224.37 408.74 221.78
  A 0.79 0.78 42.1 0 0 408.69 220.87
  C 405.93 217.38 402.55 213.94 400.02 210.79
  Q 396.20 206.03 384.74 190.98
  A 2.83 2.81 71.2 0 0 382.50 189.87
  L 367.47 189.87
  A 0.80 0.79 71.9 0 0 366.84 191.13
  L 383.98 214.64
  A 0.61 0.60 -18.0 0 1 383.49 215.60
  L 370.37 215.60
  A 0.67 0.65 70.7 0 1 369.85 215.34
  L 351.47 190.12
  A 0.71 0.70 -17.8 0 0 350.90 189.83
  L 334.87 189.83
  A 0.97 0.97 0.0 0 0 334.06 191.33
  Q 342.07 203.70 351.45 215.15
  A 0.23 0.23 0.0 0 1 351.27 215.53
  L 329.37 215.53
  A 0.34 0.34 0.0 0 0 329.03 215.87
  L 329.03 230.26
  A 1.03 1.03 0.0 0 0 330.06 231.29
  L 349.05 231.29
  A 0.75 0.74 -65.3 0 1 349.53 232.60
  Q 347.85 234.05 346.40 236.53
  A 1.11 0.61 -29.0 0 1 346.30 236.69
  L 331.94 254.90
  A 0.51 0.51 0.0 0 0 331.82 255.20
  L 331.80 255.45
  A 0.19 0.19 0.0 0 0 331.99 255.66
  L 350.26 255.66
  A 1.75 1.74 20.3 0 0 351.58 255.06
  Q 361.49 243.45 368.24 232.14
  A 1.58 1.58 0.0 0 1 369.59 231.38
  L 384.25 231.38
  A 0.18 0.18 0.0 0 1 384.39 231.68
  C 377.77 238.97 373.53 245.07 366.25 255.41
  A 0.29 0.29 0.0 0 0 366.49 255.87"
/>
<path stroke="#c5eafb" vector-effect="non-scaling-stroke" d="
  M 530.09 254.46
  C 527.34 251.44 525.38 248.23 523.20 245.35
  Q 514.96 234.49 513.82 232.85
  Q 513.64 232.59 513.14 232.29
  Q 512.52 231.91 512.48 231.58
  A 0.43 0.43 0.0 0 1 513.06 231.13
  Q 514.54 231.65 516.13 231.22
  A 1.68 1.44 -49.3 0 1 516.59 231.15
  L 532.35 231.15
  A 0.78 0.77 0.0 0 0 533.13 230.38
  L 533.13 216.44
  A 0.91 0.90 -0.0 0 0 532.22 215.54
  L 511.64 215.54
  A 0.48 0.47 -64.9 0 1 511.34 214.70
  Q 512.23 213.94 512.73 213.26
  Q 521.65 201.05 525.12 196.12
  Q 527.18 193.18 528.18 190.89
  A 0.76 0.76 0.0 0 0 527.48 189.82
  L 512.98 189.82
  A 3.08 3.07 17.8 0 0 510.48 191.10
  Q 507.58 195.13 504.67 198.82
  C 500.46 204.13 497.21 209.48 494.17 214.52
  A 2.29 2.28 -74.2 0 1 492.22 215.62
  L 478.37 215.62
  A 0.36 0.36 0.0 0 1 478.09 215.03
  Q 487.62 203.17 495.72 190.69
  A 0.59 0.59 0.0 0 0 495.22 189.78
  L 478.57 189.78
  A 1.94 1.93 16.3 0 0 476.94 190.67
  C 472.46 197.77 467.31 204.07 460.19 213.70
  Q 456.82 218.27 453.88 221.24
  A 1.32 1.32 0.0 0 0 453.69 222.85
  Q 458.72 231.17 467.00 241.05
  Q 469.48 244.01 472.15 247.86
  Q 476.67 254.37 476.92 254.86
  A 1.63 1.63 0.0 0 0 478.38 255.76
  L 496.78 255.89
  A 0.56 0.56 0.0 0 0 497.23 255.00
  C 496.50 254.02 495.46 253.61 494.53 252.39
  Q 488.15 243.98 479.63 231.78
  A 0.29 0.29 0.0 0 1 479.87 231.32
  L 493.41 231.32
  A 2.44 2.41 74.4 0 1 495.49 232.51
  C 500.25 240.53 504.78 246.07 511.88 255.22
  A 1.51 1.50 -19.0 0 0 513.06 255.79
  L 529.51 255.79
  A 0.79 0.79 0.0 0 0 530.09 254.46"
/>
<path stroke="#c5eafb" vector-effect="non-scaling-stroke" d="
  M 264.95 211.84
  L 270.72 209.70
  A 0.70 0.70 0.0 0 0 271.10 208.73
  Q 267.80 202.21 261.05 201.81
  Q 253.57 201.36 249.53 204.84
  A 3.51 3.33 84.1 0 0 248.70 205.92
  Q 243.33 216.88 254.48 221.32
  Q 255.28 221.64 261.14 223.38
  C 263.70 224.15 264.19 227.63 261.99 229.08
  Q 259.05 231.04 256.05 229.04
  A 0.95 0.86 88.3 0 1 255.77 228.75
  L 254.27 226.38
  A 1.49 1.47 65.5 0 0 252.61 225.75
  L 246.54 227.54
  A 1.09 1.09 0.0 0 0 245.84 229.00
  C 249.10 236.92 258.92 238.76 266.11 235.65
  C 269.47 234.19 270.60 232.28 272.06 229.04
  Q 273.42 226.03 272.07 222.42
  Q 270.34 217.76 265.31 216.03
  Q 260.64 214.41 257.72 213.78
  A 1.21 1.19 70.2 0 1 257.20 213.53
  L 256.16 212.66
  A 2.06 2.06 0.0 0 1 257.26 209.02
  C 259.47 208.79 263.15 208.96 264.02 211.41
  A 0.72 0.72 0.0 0 0 264.95 211.84"
/>
<path stroke="#c5eafb" vector-effect="non-scaling-stroke" d="
  M 599.46 226.67
  L 604.28 235.02
  A 2.05 2.03 76.1 0 0 605.95 236.04
  L 613.24 236.38
  A 0.87 0.86 75.2 0 0 614.01 235.05
  L 604.75 220.40
  A 1.27 1.26 -45.5 0 1 604.74 219.05
  L 614.05 204.06
  A 1.28 1.27 -72.7 0 0 613.03 202.11
  L 608.28 201.88
  A 3.69 3.67 -75.4 0 0 604.82 203.92
  L 600.72 212.20
  A 0.20 0.20 0.0 0 1 600.36 212.21
  L 594.80 202.58
  A 0.93 0.93 0.0 0 0 594.05 202.12
  L 586.86 201.78
  A 0.97 0.97 0.0 0 0 585.98 203.24
  L 593.89 216.95
  A 3.15 3.13 -44.3 0 1 593.84 220.19
  L 584.85 234.68
  A 0.90 0.90 0.0 0 0 585.57 236.05
  L 592.21 236.37
  A 2.93 2.92 -75.5 0 0 594.97 234.74
  L 598.96 226.68
  A 0.29 0.28 43.2 0 1 599.46 226.67"
/>
<path stroke="#c5eafb" vector-effect="non-scaling-stroke" d="
  M 305.30 234.55
  L 295.14 202.63
  A 1.12 1.12 0.0 0 0 294.02 201.85
  L 288.05 202.13
  A 1.80 1.78 -80.3 0 0 286.47 203.26
  Q 280.30 218.74 275.97 235.41
  A 0.78 0.77 5.8 0 0 276.76 236.37
  L 282.93 236.08
  A 1.18 1.17 8.9 0 0 283.99 235.31
  L 286.39 228.76
  A 0.64 0.63 8.1 0 1 286.96 228.34
  L 294.14 228.00
  A 0.64 0.63 79.7 0 1 294.77 228.44
  L 296.85 234.97
  A 1.85 1.84 79.8 0 0 298.70 236.26
  L 304.29 236.00
  A 1.11 1.11 0.0 0 0 305.30 234.55"
/>
<path stroke="#c5eafb" vector-effect="non-scaling-stroke" d="
  M 572.91 236.01
  Q 575.86 236.00 576.33 235.99
  A 0.41 0.41 0.0 0 0 576.74 235.58
  L 576.74 209.39
  A 0.35 0.35 0.0 0 1 577.09 209.04
  L 583.72 209.04
  A 0.82 0.81 -90.0 0 0 584.53 208.22
  L 584.53 202.63
  A 0.70 0.70 0.0 0 0 583.83 201.93
  Q 578.37 201.90 572.81 202.01
  Q 567.25 201.93 561.79 201.99
  A 0.70 0.70 0.0 0 0 561.10 202.70
  L 561.13 208.29
  A 0.82 0.81 89.7 0 0 561.94 209.10
  L 568.57 209.06
  A 0.35 0.35 0.0 0 1 568.93 209.41
  L 569.07 235.60
  A 0.41 0.41 0.0 0 0 569.48 236.01
  Q 569.95 236.01 572.91 236.01"
/>
<path stroke="#c5eafb" vector-effect="non-scaling-stroke" d="
  M 431.53 205.53
  L 429.78 208.07
  A 3.38 3.06 75.9 0 0 429.46 208.67
  L 426.79 215.59
  A 1.20 1.20 0.0 0 1 426.16 216.25
  C 424.39 217.07 422.32 216.57 420.82 216.61
  Q 413.76 216.79 412.80 216.56
  A 0.52 0.52 0.0 0 0 412.21 217.29
  Q 413.01 218.92 415.20 220.33
  C 418.08 222.20 419.06 223.18 422.61 225.90
  A 1.92 1.90 27.1 0 1 423.28 227.94
  L 420.69 236.75
  A 1.05 1.04 -6.0 0 0 422.19 237.96
  Q 425.11 236.40 429.66 232.63
  Q 431.47 231.14 433.39 232.60
  Q 437.90 236.05 442.09 237.92
  A 1.01 1.01 0.0 0 0 443.47 236.74
  L 440.74 226.47
  A 0.71 0.70 68.8 0 1 441.09 225.67
  Q 446.96 222.64 451.76 216.85
  A 0.41 0.41 0.0 0 0 451.42 216.18
  L 437.55 216.82
  A 0.67 0.65 79.0 0 1 436.89 216.36
  C 435.60 212.29 434.63 208.44 432.32 205.50
  A 0.49 0.49 0.0 0 0 431.53 205.53"
/>
<path stroke="#c5eafb" vector-effect="non-scaling-stroke" d="
  M 423.63 271.66
  A 0.72 0.72 0.0 0 1 424.77 272.24
  L 424.77 285.21
  A 2.04 2.03 74.7 0 1 423.78 286.96
  Q 422.36 287.83 421.03 289.08
  Q 411.77 297.80 399.12 305.46
  A 4.28 4.26 -15.7 0 0 397.06 309.11
  L 397.07 325.28
  A 0.92 0.91 74.7 0 0 398.45 326.07
  Q 400.25 325.01 400.39 324.88
  Q 411.37 314.77 422.10 307.80
  A 0.16 0.08 -63.4 0 0 422.14 307.77
  L 423.34 306.20
  A 0.87 0.87 0.0 0 1 424.91 306.77
  Q 424.46 315.86 424.91 324.99
  Q 424.98 326.57 424.49 328.32
  A 1.11 1.10 -82.2 0 0 425.55 329.73
  L 439.37 329.73
  A 0.74 0.73 88.5 0 0 440.10 328.95
  C 439.81 323.66 440.00 321.02 439.51 315.34
  Q 439.25 312.29 439.65 308.07
  A 1.85 1.83 -54.7 0 0 439.50 307.17
  Q 438.93 305.89 438.95 304.62
  A 0.37 0.37 0.0 0 1 439.67 304.51
  C 440.31 306.42 442.12 307.37 443.33 308.46
  Q 455.31 319.24 466.97 326.79
  A 0.69 0.69 0.0 0 0 468.04 326.24
  Q 468.28 319.52 468.08 313.46
  C 468.01 311.61 468.23 310.03 466.77 308.70
  Q 455.77 298.67 442.31 287.99
  Q 440.17 286.29 440.15 284.86
  Q 440.07 278.39 439.18 271.57
  A 0.63 0.63 0.0 0 1 440.20 271.00
  L 464.79 290.86
  A 1.41 1.41 0.0 0 0 466.90 290.47
  Q 466.90 290.46 467.04 290.15
  A 1.72 1.63 57.5 0 0 467.18 289.43
  L 466.68 274.35
  A 3.21 3.21 0.0 0 0 465.52 271.99
  Q 446.60 256.17 434.01 245.92
  Q 432.04 244.32 429.85 246.34
  Q 421.22 254.31 399.79 270.88
  C 397.63 272.55 396.99 273.39 396.98 275.99
  Q 396.95 286.47 397.10 289.51
  Q 397.12 289.94 397.32 290.37
  A 0.32 0.32 0.0 0 0 397.80 290.49
  L 423.63 271.66"
/>
<path stroke="#c5eafb" vector-effect="non-scaling-stroke" d="
  M 298.27 312.17
  C 298.99 314.21 301.19 314.98 303.20 315.37
  A 2.64 2.48 -74.0 0 0 306.03 313.68
  C 308.72 306.45 304.88 299.76 298.16 296.52
  C 292.24 293.66 287.70 296.93 282.18 300.36
  C 274.66 305.01 270.94 311.63 273.77 320.72
  A 4.02 3.78 -72.6 0 0 274.29 321.79
  C 277.06 325.79 282.24 329.32 287.50 328.83
  A 1.79 1.71 23.7 0 0 288.38 328.51
  Q 290.00 327.37 291.74 327.00
  A 3.37 2.64 -7.3 0 0 294.43 324.27
  Q 294.44 322.85 293.18 321.54
  A 1.59 1.58 70.7 0 0 292.15 321.04
  Q 290.22 320.88 288.81 320.12
  A 0.98 0.97 -47.1 0 0 287.81 320.16
  L 286.86 320.81
  A 1.01 0.99 42.9 0 1 285.81 320.84
  Q 282.93 319.16 281.50 316.75
  A 2.38 2.37 37.8 0 1 281.26 314.89
  C 282.27 311.44 285.03 307.77 288.50 306.28
  C 289.87 305.70 292.12 303.70 293.90 304.17
  Q 296.85 304.95 298.34 307.18
  Q 299.79 309.37 298.66 310.57
  Q 297.96 311.31 298.27 312.17"
/>
<path stroke="#c5eafb" vector-effect="non-scaling-stroke" d="
  M 552.16 311.93
  C 551.38 319.16 559.42 325.58 565.25 329.79
  C 567.64 331.51 570.16 333.59 573.02 333.76
  Q 579.25 334.14 584.32 330.07
  Q 589.59 325.85 589.37 318.26
  Q 589.27 315.05 586.84 311.99
  Q 580.22 303.66 571.79 299.45
  C 569.19 298.15 563.81 299.67 561.39 300.75
  A 2.60 2.01 7.2 0 0 560.95 301.01
  L 555.71 304.92
  A 3.43 3.39 86.8 0 0 554.80 305.95
  Q 552.35 310.22 552.16 311.93"
/>
<path stroke="#c5eafb" vector-effect="non-scaling-stroke" d="
  M 601.5441 307.3679
  A 4.31 4.31 0.0 0 0 600.2977 301.4015
  L 598.6241 300.3064
  A 4.31 4.31 0.0 0 0 592.6577 301.5528
  L 591.7159 302.9921
  A 4.31 4.31 0.0 0 0 592.9623 308.9585
  L 594.6359 310.0536
  A 4.31 4.31 0.0 0 0 600.6023 308.8072
  L 601.5441 307.3679"
/>
<path stroke="#c5eafb" vector-effect="non-scaling-stroke" d="
  M 303.87 337.76
  C 306.63 340.25 306.79 340.78 305.51 344.12
  Q 304.32 347.24 303.42 349.90
  A 2.59 2.57 -44.8 0 0 303.41 351.54
  C 304.30 354.30 303.54 357.26 307.55 357.66
  A 1.14 1.14 0.0 0 0 308.51 357.27
  Q 313.43 351.58 313.24 344.82
  A 0.78 0.76 2.6 0 1 314.11 344.04
  C 321.03 344.93 328.82 340.69 328.16 332.98
  A 4.05 3.67 -60.7 0 0 327.94 332.02
  C 326.00 326.98 323.57 324.70 319.03 320.23
  Q 318.14 319.36 313.94 317.01
  A 0.77 0.76 38.8 0 0 313.07 317.10
  Q 310.81 319.01 306.03 324.06
  Q 304.09 326.12 298.87 330.85
  Q 295.10 334.27 291.21 339.20
  A 1.60 1.60 0.0 0 0 291.39 341.37
  L 295.05 344.72
  A 1.14 1.14 0.0 0 0 296.66 344.65
  L 302.91 337.81
  A 0.69 0.68 -47.7 0 1 303.87 337.76"
/>
<path stroke="#c5eafb" vector-effect="non-scaling-stroke" d="
  M 550.63 332.95
  C 551.28 332.04 552.92 331.28 553.21 330.48
  Q 553.76 328.92 553.39 327.72
  A 1.74 1.73 10.6 0 0 552.79 326.85
  C 549.77 324.50 545.29 324.64 541.89 324.97
  C 534.58 325.69 530.01 330.22 529.07 337.53
  Q 528.77 339.82 529.65 341.37
  Q 531.63 344.87 535.10 350.38
  Q 538.52 355.82 543.58 358.54
  A 2.76 2.55 -22.9 0 0 544.33 358.81
  Q 555.17 360.93 561.69 352.62
  Q 562.56 351.50 563.61 346.59
  Q 563.86 345.45 563.27 343.55
  Q 562.81 342.07 563.15 340.35
  A 1.02 1.01 -88.7 0 0 562.01 339.15
  Q 558.57 339.66 555.76 338.94
  A 0.79 0.79 0.0 0 0 554.82 339.42
  Q 554.65 339.89 554.99 340.90
  A 1.06 1.05 41.2 0 1 555.03 341.47
  L 553.77 347.77
  A 2.60 2.59 88.4 0 1 551.89 349.77
  L 548.43 350.69
  A 1.46 1.44 64.3 0 1 546.88 350.14
  Q 544.96 347.48 540.73 341.24
  C 539.02 338.71 538.04 336.32 540.70 334.42
  A 2.92 2.81 19.5 0 1 541.67 333.98
  Q 545.50 333.01 549.12 333.59
  A 1.56 1.55 -67.8 0 0 550.63 332.95"
/>
<path stroke="#c5eafb" vector-effect="non-scaling-stroke" d="
  M 328.62 363.54
  A 0.57 0.57 0.0 0 1 328.49 362.75
  L 330.93 359.35
  A 0.93 0.92 -54.4 0 1 332.22 359.13
  L 338.73 363.79
  A 1.43 1.43 0.0 0 0 340.73 363.46
  L 343.71 359.31
  A 1.05 1.04 -54.6 0 0 343.47 357.86
  L 336.48 352.85
  A 0.40 0.40 0.0 0 1 336.37 352.32
  L 338.88 348.28
  A 0.36 0.35 -56.1 0 1 339.38 348.18
  L 347.96 354.33
  A 2.85 2.84 33.7 0 0 352.04 353.52
  L 352.95 352.07
  A 2.48 2.48 0.0 0 0 352.29 348.75
  L 338.38 338.79
  A 2.46 2.46 0.0 0 0 334.95 339.36
  L 317.46 363.77
  A 1.49 1.49 0.0 0 0 317.88 365.91
  L 334.22 376.05
  A 1.60 1.60 0.0 0 0 336.57 375.24
  L 338.20 370.77
  A 0.39 0.38 -62.7 0 0 338.06 370.31
  L 328.62 363.54"
/>
<path stroke="#c5eafb" vector-effect="non-scaling-stroke" d="
  M 516.05 356.70
  Q 511.18 348.88 501.89 351.73
  C 497.00 353.23 489.79 358.83 491.10 364.69
  Q 492.98 373.14 502.29 373.14
  C 504.59 373.14 507.06 372.13 509.28 372.21
  Q 511.75 372.29 513.94 373.65
  A 2.09 2.08 -62.0 0 1 514.74 376.27
  C 512.90 380.37 509.57 380.10 505.76 379.09
  Q 501.94 378.08 498.52 381.47
  A 0.69 0.69 0.0 0 0 498.48 382.41
  C 500.27 384.45 503.22 387.81 505.30 387.95
  C 513.13 388.50 524.46 384.19 524.00 374.75
  C 523.82 371.10 520.84 365.45 516.53 364.78
  C 511.86 364.06 508.73 364.71 502.99 365.80
  A 1.80 1.78 52.8 0 1 501.86 365.64
  Q 499.84 364.62 500.02 362.02
  A 1.63 1.61 -22.5 0 1 500.42 361.07
  Q 502.79 358.40 506.78 359.05
  C 508.29 359.30 508.94 361.41 510.74 360.84
  Q 514.39 359.67 516.00 357.61
  A 0.79 0.78 -42.1 0 0 516.05 356.70"
/>
<path stroke="#c5eafb" vector-effect="non-scaling-stroke" d="
  M 369.71 392.75
  A 0.16 0.15 -76.1 0 0 369.92 392.62
  L 373.63 360.32
  A 1.24 1.23 14.8 0 0 372.88 359.04
  L 364.85 355.70
  A 2.36 2.35 -59.5 0 0 362.09 356.42
  Q 354.75 365.85 347.73 373.86
  Q 346.66 375.09 345.48 376.85
  Q 343.23 380.23 343.20 380.26
  A 1.00 1.00 0.0 0 0 343.41 381.97
  L 348.07 383.98
  A 2.78 2.77 -60.6 0 0 351.42 383.04
  L 353.84 379.67
  A 0.78 0.76 28.6 0 1 354.76 379.41
  L 362.51 382.64
  A 0.72 0.72 0.0 0 1 362.95 383.36
  L 362.57 388.78
  A 1.35 1.34 -76.7 0 0 363.39 390.12
  L 369.71 392.75"
/>
<path stroke="#c5eafb" vector-effect="non-scaling-stroke" d="
  M 480.77 381.58
  L 466.68 365.89
  A 3.22 3.21 61.6 0 0 463.45 364.92
  L 458.31 366.29
  A 0.69 0.68 83.3 0 0 457.80 366.94
  Q 457.78 369.03 458.12 370.06
  Q 462.83 384.68 466.02 398.79
  A 1.86 1.85 76.0 0 0 468.31 400.17
  L 473.88 398.69
  A 1.73 1.73 0.0 0 0 475.08 396.49
  L 469.71 379.61
  A 0.25 0.25 0.0 0 1 470.11 379.34
  C 471.34 380.39 471.78 381.77 473.05 382.82
  Q 479.44 388.12 484.32 395.35
  A 2.43 2.42 -24.3 0 0 486.95 396.34
  L 492.57 394.84
  A 1.21 1.21 0.0 0 0 493.42 393.34
  Q 492.99 391.86 492.66 391.09
  Q 488.50 381.39 487.25 375.76
  Q 486.13 370.72 483.37 362.06
  A 1.84 1.83 73.7 0 0 481.15 360.84
  L 476.06 362.19
  A 1.74 1.73 69.5 0 0 474.96 364.63
  Q 478.30 371.43 478.94 376.81
  A 4.01 3.86 -61.5 0 0 479.27 378.01
  L 480.88 381.52
  A 0.07 0.06 14.2 0 1 480.77 381.58"
/>
<path stroke="#c5eafb" vector-effect="non-scaling-stroke" d="
  M 387.25 371.35
  L 383.76 393.92
  A 2.16 2.16 0.0 0 0 385.43 396.36
  L 389.46 397.27
  A 2.04 2.04 0.0 0 0 391.92 395.59
  L 395.46 373.01
  A 0.82 0.81 -79.0 0 1 396.44 372.34
  L 404.36 374.11
  A 1.15 1.15 0.0 0 0 405.76 373.09
  L 406.24 367.93
  A 0.88 0.88 0.0 0 0 405.56 366.99
  L 384.09 362.18
  A 2.67 2.66 -75.4 0 0 380.95 364.03
  L 379.59 368.67
  A 1.33 1.32 -83.3 0 0 380.93 370.37
  Q 383.00 370.27 385.18 371.01
  A 0.89 0.88 32.3 0 0 386.09 370.81
  Q 386.31 370.60 386.37 370.58
  A 0.69 0.69 0.0 0 1 387.25 371.35"
/>
<path stroke="#c5eafb" vector-effect="non-scaling-stroke" d="
  M 412.94 367.24
  A 1.40 1.40 0.0 0 0 411.33 368.52
  L 409.17 398.73
  A 1.40 1.40 0.0 0 0 410.35 400.21
  L 415.93 401.09
  A 1.40 1.40 0.0 0 0 417.54 399.77
  L 418.98 369.45
  A 1.40 1.40 0.0 0 0 417.80 368.00
  L 412.94 367.24"
/>
<path stroke="#c5eafb" vector-effect="non-scaling-stroke" d="
  M 437.74 369.83
  C 433.19 370.43 428.28 370.89 427.21 375.22
  C 426.07 379.83 426.79 383.85 427.03 390.75
  C 427.16 394.72 428.80 400.55 432.83 402.18
  Q 438.09 404.31 443.73 403.70
  A 0.20 0.17 -49.7 0 0 443.79 403.69
  L 450.21 401.65
  A 4.83 4.81 1.1 0 0 453.27 398.72
  C 455.36 393.03 454.65 386.53 453.77 380.02
  Q 452.58 371.19 445.01 369.68
  Q 442.53 369.19 437.74 369.83"
/>
<path stroke="#c5eafb" vector-effect="non-scaling-stroke" d="
  M 409.18 59.72
  L 402.65 61.34
  A 3.14 3.14 0.0 0 0 400.36 65.14
  L 403.22 76.71
  A 5.54 3.75 76.1 0 0 408.19 81.19
  L 413.53 79.87
  A 5.54 3.75 76.1 0 0 415.84 73.59
  L 412.98 62.02
  A 3.14 3.14 0.0 0 0 409.18 59.72"
/>
<path stroke="#c5eafb" vector-effect="non-scaling-stroke" d="
  M 368.74 90.10
  L 363.38 75.66
  A 2.57 2.57 0.0 0 0 361.23 74.00
  C 358.73 73.76 352.18 74.36 351.37 77.27
  C 351.04 78.47 351.94 79.82 352.74 81.31
  A 9.75 9.66 -68.4 0 1 353.46 83.00
  Q 355.26 88.73 358.31 93.59
  A 1.91 1.90 -17.3 0 0 360.01 94.48
  Q 364.64 94.29 368.13 91.97
  A 1.58 1.58 0.0 0 0 368.74 90.10"
/>
<path stroke="#c5eafb" vector-effect="non-scaling-stroke" d="
  M 537.32 115.64
  L 538.25 115.68
  A 0.90 0.89 -23.4 0 1 538.81 115.90
  Q 542.12 118.67 546.23 120.25
  A 0.58 0.56 32.2 0 0 546.85 120.12
  Q 552.57 114.39 555.79 107.61
  A 1.80 1.79 -49.0 0 0 555.67 105.86
  Q 553.07 101.92 548.84 100.10
  A 1.26 1.26 0.0 0 0 547.33 100.52
  L 536.99 114.95
  A 0.44 0.43 -70.8 0 0 537.32 115.64"
/>
<path stroke="#c5eafb" vector-effect="non-scaling-stroke" d="
  M 304.76 106.70
  L 309.63 112.05
  A 0.85 0.85 0.0 0 0 310.83 112.11
  L 315.12 108.21
  A 4.21 3.37 -42.3 0 0 315.97 102.88
  L 314.49 101.25
  A 4.21 3.37 -42.3 0 0 309.10 101.59
  L 304.81 105.50
  A 0.85 0.85 0.0 0 0 304.76 106.70"
/>
<path stroke="#c5eafb" vector-effect="non-scaling-stroke" d="
  M 290.55 221.05
  Q 291.48 221.01 292.90 221.03
  A 0.31 0.31 0.0 0 0 293.20 220.63
  L 290.59 211.94
  A 0.26 0.23 -80.8 0 0 290.49 211.79
  Q 290.37 211.69 290.21 211.69
  Q 290.05 211.70 289.93 211.81
  A 0.26 0.23 76.6 0 0 289.84 211.97
  L 287.87 220.82
  A 0.31 0.31 0.0 0 0 288.20 221.20
  Q 289.62 221.08 290.55 221.05"
/>
<path stroke="#c5eafb" vector-effect="non-scaling-stroke" d="
  M 564.96 308.26
  L 561.71 312.27
  A 2.28 2.28 0.0 0 0 562.05 315.48
  L 570.70 322.48
  A 6.75 3.70 39.0 0 0 578.27 323.86
  L 579.73 322.05
  A 6.75 3.70 39.0 0 0 576.82 314.93
  L 568.17 307.92
  A 2.28 2.28 0.0 0 0 564.96 308.26"
/>
<path stroke="#c5eafb" vector-effect="non-scaling-stroke" d="
  M 313.89 327.81
  L 309.75 331.96
  A 1.63 1.63 0.0 0 0 309.76 334.26
  L 311.27 335.77
  A 4.68 4.21 44.9 0 0 317.55 336.09
  L 318.05 335.59
  A 4.68 4.21 44.9 0 0 317.70 329.31
  L 316.19 327.80
  A 1.63 1.63 0.0 0 0 313.89 327.81"
/>
<path stroke="#c5eafb" vector-effect="non-scaling-stroke" d="
  M 366.31 364.59
  A 0.36 0.36 0.0 0 0 365.67 364.34
  L 358.52 373.39
  A 0.30 0.30 0.0 0 0 358.67 373.86
  L 364.91 375.69
  A 0.30 0.30 0.0 0 0 365.30 375.43
  L 366.31 364.59"
/>
<path stroke="#c5eafb" vector-effect="non-scaling-stroke" d="
  M 445.9536 380.7335
  A 4.37 4.37 0.0 0 0 441.4045 376.5503
  L 439.1065 376.6466
  A 4.37 4.37 0.0 0 0 434.9233 381.1958
  L 435.3664 391.7665
  A 4.37 4.37 0.0 0 0 439.9155 395.9497
  L 442.2135 395.8534
  A 4.37 4.37 0.0 0 0 446.3967 391.3042
  L 445.9536 380.7335"
/>
<path fill="#8bd4f7" d="
  M 463.53 442.62
  Q 459.28 443.25 454.50 443.37
  Q 454.37 443.38 450.99 443.56
  Q 430.13 444.69 414.46 443.77
  C 413.52 443.72 412.53 443.35 411.72 443.30
  C 398.73 442.43 385.22 440.33 372.09 436.71
  C 358.77 433.03 348.67 430.10 337.46 425.05
  Q 287.59 402.55 254.15 360.25
  Q 235.30 336.40 223.65 307.59
  Q 212.30 279.52 209.17 248.51
  Q 208.37 240.53 208.63 223.02
  C 208.89 205.39 211.58 188.29 215.71 172.45
  Q 219.44 158.18 225.24 144.96
  Q 246.88 95.61 289.26 62.27
  Q 301.01 53.03 313.76 46.14
  Q 331.18 36.73 340.07 33.08
  Q 359.77 25.00 381.29 20.55
  Q 393.16 18.10 407.09 16.41
  C 413.40 15.64 418.01 15.88 425.31 15.35
  Q 432.67 14.81 442.00 15.62
  C 446.37 16.00 451.20 15.74 455.25 16.26
  Q 476.55 19.00 496.45 24.75
  C 501.72 26.28 506.68 28.27 512.30 30.17
  Q 515.14 31.13 518.56 32.58
  Q 531.06 37.87 545.33 45.93
  Q 583.71 67.63 610.54 102.43
  Q 641.28 142.31 651.59 195.74
  Q 651.76 196.66 653.19 206.77
  Q 654.10 213.20 654.40 217.79
  Q 655.97 242.35 652.56 263.09
  Q 645.08 308.58 620.16 346.74
  Q 596.66 382.71 560.60 407.11
  Q 553.34 412.02 549.07 414.33
  Q 523.35 428.24 495.60 436.34
  Q 489.13 438.23 479.70 440.11
  Q 477.37 440.58 463.53 442.62
  Z
  M 464.00 431.64
  Q 464.58 432.05 465.02 431.94
  C 468.46 431.06 471.66 431.12 474.95 430.39
  Q 486.83 427.73 502.79 423.10
  Q 503.75 422.82 504.22 422.67
  Q 549.06 407.92 583.31 374.33
  Q 623.65 334.78 638.59 277.98
  Q 640.30 271.45 641.93 260.98
  Q 643.81 248.89 643.92 243.75
  Q 644.32 224.16 643.92 219.50
  Q 639.75 170.76 616.25 130.32
  Q 595.04 93.84 560.83 68.42
  Q 527.45 43.63 485.82 32.42
  Q 484.41 32.04 482.65 31.84
  C 480.09 31.56 478.08 30.76 474.76 30.10
  Q 461.17 27.42 458.44 27.14
  Q 440.10 25.24 418.26 26.10
  Q 405.78 26.59 385.36 30.41
  Q 375.49 32.26 365.08 35.53
  Q 350.52 40.10 345.29 42.31
  Q 336.25 46.12 323.82 52.80
  Q 312.15 59.07 303.49 65.33
  Q 276.94 84.52 259.81 107.04
  Q 230.10 146.12 221.56 196.17
  Q 220.67 201.43 220.59 201.89
  Q 220.02 205.14 219.85 207.65
  Q 218.29 230.34 219.18 242.74
  Q 221.12 269.90 230.80 296.72
  Q 240.30 323.02 259.02 349.18
  Q 265.14 357.72 273.17 366.10
  Q 282.25 375.59 288.89 381.36
  Q 333.64 420.28 392.27 430.50
  Q 399.12 431.69 404.67 432.04
  C 408.02 432.25 410.39 432.89 413.96 433.04
  Q 414.09 433.05 420.96 433.47
  Q 435.80 434.37 443.51 433.74
  Q 447.80 433.38 463.04 431.41
  A 1.39 1.36 57.8 0 1 464.00 431.64
  Z"
/>
<path fill="#8bd4f7" d="
  M 464.09 423.64
  Q 464.06 423.62 463.92 423.51
  A 0.72 0.69 59.9 0 0 463.41 423.36
  Q 462.11 423.52 454.10 424.55
  Q 437.11 426.72 422.24 425.75
  Q 413.14 425.15 412.42 425.13
  Q 407.46 424.98 402.61 424.31
  Q 392.84 422.98 378.76 419.52
  Q 365.72 416.32 356.51 412.74
  Q 335.32 404.50 316.86 392.65
  Q 312.25 389.69 308.40 386.48
  C 304.86 383.53 301.34 381.52 297.43 378.11
  Q 279.01 362.05 268.09 347.97
  Q 251.17 326.16 239.30 297.49
  Q 237.14 292.27 232.17 274.71
  Q 229.88 266.65 227.39 245.48
  Q 226.39 237.03 226.66 224.19
  Q 226.91 212.23 228.39 202.91
  Q 231.04 186.18 236.05 170.50
  Q 238.48 162.88 243.56 150.93
  Q 247.78 140.99 252.98 132.26
  Q 287.52 74.32 350.52 48.29
  C 351.51 47.89 352.41 48.03 353.42 47.69
  C 371.50 41.52 385.75 36.83 402.28 35.17
  Q 408.53 34.53 409.52 34.19
  A 2.63 2.59 -54.8 0 1 410.30 34.05
  Q 418.82 33.98 426.50 33.42
  Q 431.57 33.05 444.67 34.00
  C 446.54 34.13 448.40 33.80 450.01 34.05
  Q 452.82 34.49 461.01 35.42
  Q 467.56 36.16 471.94 37.08
  Q 500.06 42.95 526.13 55.85
  Q 531.98 58.74 546.34 67.92
  Q 564.85 79.73 581.14 97.11
  Q 598.30 115.40 609.90 135.83
  C 617.34 148.92 624.28 164.90 628.73 179.91
  Q 631.55 189.43 634.59 205.70
  Q 634.89 207.32 635.74 217.00
  Q 636.09 220.95 636.10 236.51
  Q 636.10 246.66 634.63 255.94
  C 631.65 274.74 627.23 292.32 619.58 308.84
  C 615.52 317.61 610.52 327.58 604.94 335.85
  Q 579.59 373.39 540.70 397.50
  C 532.38 402.66 522.90 406.88 515.40 410.18
  Q 508.54 413.20 497.27 416.79
  Q 496.81 416.94 495.48 416.99
  A 5.79 5.31 32.7 0 0 494.03 417.24
  Q 481.19 421.24 465.27 423.95
  A 1.45 1.44 59.5 0 1 464.09 423.64
  Z
  M 475.98 54.71
  Q 469.80 53.01 464.27 52.11
  Q 463.94 52.05 462.60 52.26
  A 1.16 1.11 -46.1 0 1 462.34 52.27
  L 444.85 49.86
  A 1.25 1.24 -81.7 0 0 443.46 50.90
  L 442.46 57.30
  A 0.94 0.94 0.0 0 0 443.09 58.33
  Q 448.67 60.13 453.51 60.34
  A 0.44 0.44 0.0 0 1 453.91 60.91
  Q 452.42 65.70 451.78 71.45
  C 451.12 77.39 450.40 80.63 449.22 87.70
  A 1.40 1.40 0.0 0 0 450.38 89.31
  L 458.63 90.60
  A 1.27 1.26 8.8 0 0 460.08 89.55
  L 464.18 63.40
  A 1.36 1.36 0.0 0 1 465.73 62.27
  L 473.40 63.47
  A 1.94 1.93 8.9 0 0 475.62 61.86
  L 476.59 55.65
  A 0.84 0.83 12.3 0 0 475.98 54.71
  Z
  M 425.64 67.46
  C 425.27 64.90 424.60 60.85 423.20 57.47
  C 418.63 46.39 401.65 49.52 394.12 53.84
  Q 389.70 56.37 389.04 62.75
  A 3.18 2.98 -51.3 0 0 389.13 63.88
  C 389.85 66.53 392.25 74.45 393.66 81.06
  C 394.44 84.73 397.04 90.57 401.02 90.92
  Q 410.13 91.73 418.88 89.14
  Q 422.17 88.16 424.54 84.87
  Q 426.85 81.68 426.93 79.52
  Q 427.03 76.89 425.64 67.46
  Z
  M 496.61 92.38
  L 498.20 88.03
  A 0.30 0.29 19.7 0 1 498.57 87.86
  L 511.75 92.69
  A 0.97 0.97 0.0 0 0 512.98 92.16
  L 515.82 85.33
  A 0.83 0.82 -68.9 0 0 515.34 84.24
  L 502.64 79.58
  A 0.58 0.57 20.2 0 1 502.29 78.84
  L 503.91 74.41
  A 1.07 1.06 -69.8 0 1 505.27 73.78
  L 518.40 78.59
  A 2.95 2.94 -68.3 0 0 522.12 76.98
  L 523.93 72.75
  A 2.61 2.61 0.0 0 0 522.43 69.27
  L 498.69 60.58
  A 0.93 0.93 0.0 0 0 497.51 61.10
  L 482.47 97.21
  A 0.86 0.85 -67.8 0 0 482.93 98.32
  L 509.08 109.21
  A 1.55 1.55 0.0 0 0 511.14 108.31
  L 513.22 102.61
  A 1.86 1.85 -66.7 0 0 512.31 100.31
  L 496.69 92.58
  A 0.16 0.16 0.0 0 1 496.61 92.38
  Z
  M 368.91 65.60
  C 365.93 64.10 362.90 62.89 359.26 63.75
  Q 351.84 65.51 346.49 68.62
  C 342.18 71.12 339.95 73.97 340.75 78.77
  Q 342.28 87.93 349.70 100.50
  Q 352.55 105.33 358.01 105.07
  C 364.78 104.74 382.96 101.09 380.02 89.95
  Q 379.07 86.37 374.39 74.50
  C 373.47 72.18 371.70 69.76 370.98 67.88
  A 4.26 4.24 2.9 0 0 368.91 65.60
  Z
  M 523.44 118.11
  Q 533.29 125.72 544.87 130.90
  C 548.66 132.59 553.46 128.56 555.67 125.92
  Q 556.01 125.51 564.50 115.22
  Q 568.61 110.25 566.57 103.45
  C 564.48 96.50 552.39 90.21 546.44 87.11
  A 2.38 2.38 0.0 0 0 543.41 87.83
  C 535.46 98.89 531.26 104.80 526.46 110.71
  Q 524.07 113.66 523.12 117.17
  A 0.88 0.88 0.0 0 0 523.44 118.11
  Z
  M 316.66 118.50
  Q 319.19 118.74 319.67 118.57
  A 1.99 1.98 -48.5 0 1 320.79 118.50
  C 325.07 119.46 329.17 121.81 334.48 121.19
  A 2.34 2.28 -65.9 0 0 335.59 120.75
  L 340.89 116.84
  A 0.60 0.60 0.0 0 0 340.80 115.82
  Q 335.06 113.03 331.24 111.56
  Q 328.49 110.51 326.10 110.54
  A 0.20 0.20 0.0 0 1 325.92 110.26
  Q 328.29 104.93 326.67 100.00
  C 325.54 96.58 320.95 92.16 317.67 91.17
  Q 311.27 89.24 305.46 92.97
  Q 298.84 97.23 291.14 103.40
  A 1.71 1.71 0.0 0 0 290.87 105.80
  L 315.42 136.70
  A 1.98 1.97 49.3 0 0 318.31 136.92
  L 324.81 130.88
  A 1.27 1.27 0.0 0 0 324.75 128.97
  Q 320.52 125.56 316.30 119.09
  A 0.39 0.38 -13.9 0 1 316.66 118.50
  Z
  M 438.54 178.22
  L 438.39 163.59
  A 0.88 0.77 -41.1 0 1 438.42 163.37
  C 438.76 162.16 440.20 162.25 441.11 161.54
  Q 455.45 150.30 464.18 143.91
  A 2.19 2.17 72.1 0 0 465.07 142.15
  L 465.07 125.49
  A 0.82 0.81 73.5 0 0 463.81 124.80
  L 453.74 131.42
  A 1.30 0.65 -61.1 0 0 453.62 131.51
  Q 451.00 133.80 449.98 134.46
  Q 444.26 138.15 439.35 142.99
  A 0.18 0.17 -22.8 0 1 439.05 142.87
  L 439.05 118.75
  A 0.77 0.77 0.0 0 0 438.28 117.98
  L 424.19 117.98
  A 1.09 1.08 -1.3 0 0 423.10 119.11
  Q 423.55 130.60 423.60 139.99
  Q 423.61 141.17 423.50 142.03
  Q 423.35 143.25 423.95 144.74
  A 0.62 0.61 -74.4 0 1 422.89 145.34
  L 421.67 143.68
  A 2.70 2.65 -89.5 0 0 421.10 143.09
  Q 416.84 139.74 415.48 137.76
  Q 413.14 134.33 409.82 131.93
  Q 402.63 126.74 401.15 125.67
  C 399.61 124.56 400.39 122.43 398.83 121.04
  A 1.06 1.06 0.0 0 0 397.07 121.84
  L 397.07 141.43
  A 2.44 2.43 -70.9 0 0 397.99 143.34
  L 423.37 163.38
  A 1.97 1.93 19.7 0 1 424.11 164.90
  L 424.11 177.83
  A 0.40 0.40 0.0 0 1 423.45 178.14
  L 399.62 158.26
  A 1.43 1.43 0.0 0 0 397.28 159.36
  L 397.28 176.13
  A 1.80 1.79 18.9 0 0 397.98 177.55
  L 430.41 203.17
  A 1.41 1.41 0.0 0 0 432.20 203.14
  Q 442.14 194.78 457.72 183.45
  C 459.65 182.05 465.63 178.21 465.85 175.22
  Q 466.15 170.94 465.36 161.86
  A 3.26 3.13 -43.8 0 1 465.40 160.92
  L 465.79 158.85
  A 0.70 0.70 0.0 0 0 464.64 158.20
  Q 454.10 167.27 441.09 176.36
  A 1.07 0.99 2.4 0 0 440.96 176.47
  L 439.16 178.45
  A 0.36 0.35 -24.2 0 1 438.54 178.22
  Z
  M 366.49 255.87
  Q 375.94 255.87 382.74 255.76
  Q 385.02 255.72 385.94 254.42
  Q 395.84 240.35 403.51 229.88
  C 405.17 227.62 407.06 224.37 408.74 221.78
  A 0.79 0.78 42.1 0 0 408.69 220.87
  C 405.93 217.38 402.55 213.94 400.02 210.79
  Q 396.20 206.03 384.74 190.98
  A 2.83 2.81 71.2 0 0 382.50 189.87
  L 367.47 189.87
  A 0.80 0.79 71.9 0 0 366.84 191.13
  L 383.98 214.64
  A 0.61 0.60 -18.0 0 1 383.49 215.60
  L 370.37 215.60
  A 0.67 0.65 70.7 0 1 369.85 215.34
  L 351.47 190.12
  A 0.71 0.70 -17.8 0 0 350.90 189.83
  L 334.87 189.83
  A 0.97 0.97 0.0 0 0 334.06 191.33
  Q 342.07 203.70 351.45 215.15
  A 0.23 0.23 0.0 0 1 351.27 215.53
  L 329.37 215.53
  A 0.34 0.34 0.0 0 0 329.03 215.87
  L 329.03 230.26
  A 1.03 1.03 0.0 0 0 330.06 231.29
  L 349.05 231.29
  A 0.75 0.74 -65.3 0 1 349.53 232.60
  Q 347.85 234.05 346.40 236.53
  A 1.11 0.61 -29.0 0 1 346.30 236.69
  L 331.94 254.90
  A 0.51 0.51 0.0 0 0 331.82 255.20
  L 331.80 255.45
  A 0.19 0.19 0.0 0 0 331.99 255.66
  L 350.26 255.66
  A 1.75 1.74 20.3 0 0 351.58 255.06
  Q 361.49 243.45 368.24 232.14
  A 1.58 1.58 0.0 0 1 369.59 231.38
  L 384.25 231.38
  A 0.18 0.18 0.0 0 1 384.39 231.68
  C 377.77 238.97 373.53 245.07 366.25 255.41
  A 0.29 0.29 0.0 0 0 366.49 255.87
  Z
  M 530.09 254.46
  C 527.34 251.44 525.38 248.23 523.20 245.35
  Q 514.96 234.49 513.82 232.85
  Q 513.64 232.59 513.14 232.29
  Q 512.52 231.91 512.48 231.58
  A 0.43 0.43 0.0 0 1 513.06 231.13
  Q 514.54 231.65 516.13 231.22
  A 1.68 1.44 -49.3 0 1 516.59 231.15
  L 532.35 231.15
  A 0.78 0.77 0.0 0 0 533.13 230.38
  L 533.13 216.44
  A 0.91 0.90 -0.0 0 0 532.22 215.54
  L 511.64 215.54
  A 0.48 0.47 -64.9 0 1 511.34 214.70
  Q 512.23 213.94 512.73 213.26
  Q 521.65 201.05 525.12 196.12
  Q 527.18 193.18 528.18 190.89
  A 0.76 0.76 0.0 0 0 527.48 189.82
  L 512.98 189.82
  A 3.08 3.07 17.8 0 0 510.48 191.10
  Q 507.58 195.13 504.67 198.82
  C 500.46 204.13 497.21 209.48 494.17 214.52
  A 2.29 2.28 -74.2 0 1 492.22 215.62
  L 478.37 215.62
  A 0.36 0.36 0.0 0 1 478.09 215.03
  Q 487.62 203.17 495.72 190.69
  A 0.59 0.59 0.0 0 0 495.22 189.78
  L 478.57 189.78
  A 1.94 1.93 16.3 0 0 476.94 190.67
  C 472.46 197.77 467.31 204.07 460.19 213.70
  Q 456.82 218.27 453.88 221.24
  A 1.32 1.32 0.0 0 0 453.69 222.85
  Q 458.72 231.17 467.00 241.05
  Q 469.48 244.01 472.15 247.86
  Q 476.67 254.37 476.92 254.86
  A 1.63 1.63 0.0 0 0 478.38 255.76
  L 496.78 255.89
  A 0.56 0.56 0.0 0 0 497.23 255.00
  C 496.50 254.02 495.46 253.61 494.53 252.39
  Q 488.15 243.98 479.63 231.78
  A 0.29 0.29 0.0 0 1 479.87 231.32
  L 493.41 231.32
  A 2.44 2.41 74.4 0 1 495.49 232.51
  C 500.25 240.53 504.78 246.07 511.88 255.22
  A 1.51 1.50 -19.0 0 0 513.06 255.79
  L 529.51 255.79
  A 0.79 0.79 0.0 0 0 530.09 254.46
  Z
  M 264.95 211.84
  L 270.72 209.70
  A 0.70 0.70 0.0 0 0 271.10 208.73
  Q 267.80 202.21 261.05 201.81
  Q 253.57 201.36 249.53 204.84
  A 3.51 3.33 84.1 0 0 248.70 205.92
  Q 243.33 216.88 254.48 221.32
  Q 255.28 221.64 261.14 223.38
  C 263.70 224.15 264.19 227.63 261.99 229.08
  Q 259.05 231.04 256.05 229.04
  A 0.95 0.86 88.3 0 1 255.77 228.75
  L 254.27 226.38
  A 1.49 1.47 65.5 0 0 252.61 225.75
  L 246.54 227.54
  A 1.09 1.09 0.0 0 0 245.84 229.00
  C 249.10 236.92 258.92 238.76 266.11 235.65
  C 269.47 234.19 270.60 232.28 272.06 229.04
  Q 273.42 226.03 272.07 222.42
  Q 270.34 217.76 265.31 216.03
  Q 260.64 214.41 257.72 213.78
  A 1.21 1.19 70.2 0 1 257.20 213.53
  L 256.16 212.66
  A 2.06 2.06 0.0 0 1 257.26 209.02
  C 259.47 208.79 263.15 208.96 264.02 211.41
  A 0.72 0.72 0.0 0 0 264.95 211.84
  Z
  M 599.46 226.67
  L 604.28 235.02
  A 2.05 2.03 76.1 0 0 605.95 236.04
  L 613.24 236.38
  A 0.87 0.86 75.2 0 0 614.01 235.05
  L 604.75 220.40
  A 1.27 1.26 -45.5 0 1 604.74 219.05
  L 614.05 204.06
  A 1.28 1.27 -72.7 0 0 613.03 202.11
  L 608.28 201.88
  A 3.69 3.67 -75.4 0 0 604.82 203.92
  L 600.72 212.20
  A 0.20 0.20 0.0 0 1 600.36 212.21
  L 594.80 202.58
  A 0.93 0.93 0.0 0 0 594.05 202.12
  L 586.86 201.78
  A 0.97 0.97 0.0 0 0 585.98 203.24
  L 593.89 216.95
  A 3.15 3.13 -44.3 0 1 593.84 220.19
  L 584.85 234.68
  A 0.90 0.90 0.0 0 0 585.57 236.05
  L 592.21 236.37
  A 2.93 2.92 -75.5 0 0 594.97 234.74
  L 598.96 226.68
  A 0.29 0.28 43.2 0 1 599.46 226.67
  Z
  M 305.30 234.55
  L 295.14 202.63
  A 1.12 1.12 0.0 0 0 294.02 201.85
  L 288.05 202.13
  A 1.80 1.78 -80.3 0 0 286.47 203.26
  Q 280.30 218.74 275.97 235.41
  A 0.78 0.77 5.8 0 0 276.76 236.37
  L 282.93 236.08
  A 1.18 1.17 8.9 0 0 283.99 235.31
  L 286.39 228.76
  A 0.64 0.63 8.1 0 1 286.96 228.34
  L 294.14 228.00
  A 0.64 0.63 79.7 0 1 294.77 228.44
  L 296.85 234.97
  A 1.85 1.84 79.8 0 0 298.70 236.26
  L 304.29 236.00
  A 1.11 1.11 0.0 0 0 305.30 234.55
  Z
  M 572.91 236.01
  Q 575.86 236.00 576.33 235.99
  A 0.41 0.41 0.0 0 0 576.74 235.58
  L 576.74 209.39
  A 0.35 0.35 0.0 0 1 577.09 209.04
  L 583.72 209.04
  A 0.82 0.81 -90.0 0 0 584.53 208.22
  L 584.53 202.63
  A 0.70 0.70 0.0 0 0 583.83 201.93
  Q 578.37 201.90 572.81 202.01
  Q 567.25 201.93 561.79 201.99
  A 0.70 0.70 0.0 0 0 561.10 202.70
  L 561.13 208.29
  A 0.82 0.81 89.7 0 0 561.94 209.10
  L 568.57 209.06
  A 0.35 0.35 0.0 0 1 568.93 209.41
  L 569.07 235.60
  A 0.41 0.41 0.0 0 0 569.48 236.01
  Q 569.95 236.01 572.91 236.01
  Z
  M 431.53 205.53
  L 429.78 208.07
  A 3.38 3.06 75.9 0 0 429.46 208.67
  L 426.79 215.59
  A 1.20 1.20 0.0 0 1 426.16 216.25
  C 424.39 217.07 422.32 216.57 420.82 216.61
  Q 413.76 216.79 412.80 216.56
  A 0.52 0.52 0.0 0 0 412.21 217.29
  Q 413.01 218.92 415.20 220.33
  C 418.08 222.20 419.06 223.18 422.61 225.90
  A 1.92 1.90 27.1 0 1 423.28 227.94
  L 420.69 236.75
  A 1.05 1.04 -6.0 0 0 422.19 237.96
  Q 425.11 236.40 429.66 232.63
  Q 431.47 231.14 433.39 232.60
  Q 437.90 236.05 442.09 237.92
  A 1.01 1.01 0.0 0 0 443.47 236.74
  L 440.74 226.47
  A 0.71 0.70 68.8 0 1 441.09 225.67
  Q 446.96 222.64 451.76 216.85
  A 0.41 0.41 0.0 0 0 451.42 216.18
  L 437.55 216.82
  A 0.67 0.65 79.0 0 1 436.89 216.36
  C 435.60 212.29 434.63 208.44 432.32 205.50
  A 0.49 0.49 0.0 0 0 431.53 205.53
  Z
  M 423.63 271.66
  A 0.72 0.72 0.0 0 1 424.77 272.24
  L 424.77 285.21
  A 2.04 2.03 74.7 0 1 423.78 286.96
  Q 422.36 287.83 421.03 289.08
  Q 411.77 297.80 399.12 305.46
  A 4.28 4.26 -15.7 0 0 397.06 309.11
  L 397.07 325.28
  A 0.92 0.91 74.7 0 0 398.45 326.07
  Q 400.25 325.01 400.39 324.88
  Q 411.37 314.77 422.10 307.80
  A 0.16 0.08 -63.4 0 0 422.14 307.77
  L 423.34 306.20
  A 0.87 0.87 0.0 0 1 424.91 306.77
  Q 424.46 315.86 424.91 324.99
  Q 424.98 326.57 424.49 328.32
  A 1.11 1.10 -82.2 0 0 425.55 329.73
  L 439.37 329.73
  A 0.74 0.73 88.5 0 0 440.10 328.95
  C 439.81 323.66 440.00 321.02 439.51 315.34
  Q 439.25 312.29 439.65 308.07
  A 1.85 1.83 -54.7 0 0 439.50 307.17
  Q 438.93 305.89 438.95 304.62
  A 0.37 0.37 0.0 0 1 439.67 304.51
  C 440.31 306.42 442.12 307.37 443.33 308.46
  Q 455.31 319.24 466.97 326.79
  A 0.69 0.69 0.0 0 0 468.04 326.24
  Q 468.28 319.52 468.08 313.46
  C 468.01 311.61 468.23 310.03 466.77 308.70
  Q 455.77 298.67 442.31 287.99
  Q 440.17 286.29 440.15 284.86
  Q 440.07 278.39 439.18 271.57
  A 0.63 0.63 0.0 0 1 440.20 271.00
  L 464.79 290.86
  A 1.41 1.41 0.0 0 0 466.90 290.47
  Q 466.90 290.46 467.04 290.15
  A 1.72 1.63 57.5 0 0 467.18 289.43
  L 466.68 274.35
  A 3.21 3.21 0.0 0 0 465.52 271.99
  Q 446.60 256.17 434.01 245.92
  Q 432.04 244.32 429.85 246.34
  Q 421.22 254.31 399.79 270.88
  C 397.63 272.55 396.99 273.39 396.98 275.99
  Q 396.95 286.47 397.10 289.51
  Q 397.12 289.94 397.32 290.37
  A 0.32 0.32 0.0 0 0 397.80 290.49
  L 423.63 271.66
  Z
  M 298.27 312.17
  C 298.99 314.21 301.19 314.98 303.20 315.37
  A 2.64 2.48 -74.0 0 0 306.03 313.68
  C 308.72 306.45 304.88 299.76 298.16 296.52
  C 292.24 293.66 287.70 296.93 282.18 300.36
  C 274.66 305.01 270.94 311.63 273.77 320.72
  A 4.02 3.78 -72.6 0 0 274.29 321.79
  C 277.06 325.79 282.24 329.32 287.50 328.83
  A 1.79 1.71 23.7 0 0 288.38 328.51
  Q 290.00 327.37 291.74 327.00
  A 3.37 2.64 -7.3 0 0 294.43 324.27
  Q 294.44 322.85 293.18 321.54
  A 1.59 1.58 70.7 0 0 292.15 321.04
  Q 290.22 320.88 288.81 320.12
  A 0.98 0.97 -47.1 0 0 287.81 320.16
  L 286.86 320.81
  A 1.01 0.99 42.9 0 1 285.81 320.84
  Q 282.93 319.16 281.50 316.75
  A 2.38 2.37 37.8 0 1 281.26 314.89
  C 282.27 311.44 285.03 307.77 288.50 306.28
  C 289.87 305.70 292.12 303.70 293.90 304.17
  Q 296.85 304.95 298.34 307.18
  Q 299.79 309.37 298.66 310.57
  Q 297.96 311.31 298.27 312.17
  Z
  M 552.16 311.93
  C 551.38 319.16 559.42 325.58 565.25 329.79
  C 567.64 331.51 570.16 333.59 573.02 333.76
  Q 579.25 334.14 584.32 330.07
  Q 589.59 325.85 589.37 318.26
  Q 589.27 315.05 586.84 311.99
  Q 580.22 303.66 571.79 299.45
  C 569.19 298.15 563.81 299.67 561.39 300.75
  A 2.60 2.01 7.2 0 0 560.95 301.01
  L 555.71 304.92
  A 3.43 3.39 86.8 0 0 554.80 305.95
  Q 552.35 310.22 552.16 311.93
  Z
  M 601.5441 307.3679
  A 4.31 4.31 0.0 0 0 600.2977 301.4015
  L 598.6241 300.3064
  A 4.31 4.31 0.0 0 0 592.6577 301.5528
  L 591.7159 302.9921
  A 4.31 4.31 0.0 0 0 592.9623 308.9585
  L 594.6359 310.0536
  A 4.31 4.31 0.0 0 0 600.6023 308.8072
  L 601.5441 307.3679
  Z
  M 303.87 337.76
  C 306.63 340.25 306.79 340.78 305.51 344.12
  Q 304.32 347.24 303.42 349.90
  A 2.59 2.57 -44.8 0 0 303.41 351.54
  C 304.30 354.30 303.54 357.26 307.55 357.66
  A 1.14 1.14 0.0 0 0 308.51 357.27
  Q 313.43 351.58 313.24 344.82
  A 0.78 0.76 2.6 0 1 314.11 344.04
  C 321.03 344.93 328.82 340.69 328.16 332.98
  A 4.05 3.67 -60.7 0 0 327.94 332.02
  C 326.00 326.98 323.57 324.70 319.03 320.23
  Q 318.14 319.36 313.94 317.01
  A 0.77 0.76 38.8 0 0 313.07 317.10
  Q 310.81 319.01 306.03 324.06
  Q 304.09 326.12 298.87 330.85
  Q 295.10 334.27 291.21 339.20
  A 1.60 1.60 0.0 0 0 291.39 341.37
  L 295.05 344.72
  A 1.14 1.14 0.0 0 0 296.66 344.65
  L 302.91 337.81
  A 0.69 0.68 -47.7 0 1 303.87 337.76
  Z
  M 550.63 332.95
  C 551.28 332.04 552.92 331.28 553.21 330.48
  Q 553.76 328.92 553.39 327.72
  A 1.74 1.73 10.6 0 0 552.79 326.85
  C 549.77 324.50 545.29 324.64 541.89 324.97
  C 534.58 325.69 530.01 330.22 529.07 337.53
  Q 528.77 339.82 529.65 341.37
  Q 531.63 344.87 535.10 350.38
  Q 538.52 355.82 543.58 358.54
  A 2.76 2.55 -22.9 0 0 544.33 358.81
  Q 555.17 360.93 561.69 352.62
  Q 562.56 351.50 563.61 346.59
  Q 563.86 345.45 563.27 343.55
  Q 562.81 342.07 563.15 340.35
  A 1.02 1.01 -88.7 0 0 562.01 339.15
  Q 558.57 339.66 555.76 338.94
  A 0.79 0.79 0.0 0 0 554.82 339.42
  Q 554.65 339.89 554.99 340.90
  A 1.06 1.05 41.2 0 1 555.03 341.47
  L 553.77 347.77
  A 2.60 2.59 88.4 0 1 551.89 349.77
  L 548.43 350.69
  A 1.46 1.44 64.3 0 1 546.88 350.14
  Q 544.96 347.48 540.73 341.24
  C 539.02 338.71 538.04 336.32 540.70 334.42
  A 2.92 2.81 19.5 0 1 541.67 333.98
  Q 545.50 333.01 549.12 333.59
  A 1.56 1.55 -67.8 0 0 550.63 332.95
  Z
  M 328.62 363.54
  A 0.57 0.57 0.0 0 1 328.49 362.75
  L 330.93 359.35
  A 0.93 0.92 -54.4 0 1 332.22 359.13
  L 338.73 363.79
  A 1.43 1.43 0.0 0 0 340.73 363.46
  L 343.71 359.31
  A 1.05 1.04 -54.6 0 0 343.47 357.86
  L 336.48 352.85
  A 0.40 0.40 0.0 0 1 336.37 352.32
  L 338.88 348.28
  A 0.36 0.35 -56.1 0 1 339.38 348.18
  L 347.96 354.33
  A 2.85 2.84 33.7 0 0 352.04 353.52
  L 352.95 352.07
  A 2.48 2.48 0.0 0 0 352.29 348.75
  L 338.38 338.79
  A 2.46 2.46 0.0 0 0 334.95 339.36
  L 317.46 363.77
  A 1.49 1.49 0.0 0 0 317.88 365.91
  L 334.22 376.05
  A 1.60 1.60 0.0 0 0 336.57 375.24
  L 338.20 370.77
  A 0.39 0.38 -62.7 0 0 338.06 370.31
  L 328.62 363.54
  Z
  M 516.05 356.70
  Q 511.18 348.88 501.89 351.73
  C 497.00 353.23 489.79 358.83 491.10 364.69
  Q 492.98 373.14 502.29 373.14
  C 504.59 373.14 507.06 372.13 509.28 372.21
  Q 511.75 372.29 513.94 373.65
  A 2.09 2.08 -62.0 0 1 514.74 376.27
  C 512.90 380.37 509.57 380.10 505.76 379.09
  Q 501.94 378.08 498.52 381.47
  A 0.69 0.69 0.0 0 0 498.48 382.41
  C 500.27 384.45 503.22 387.81 505.30 387.95
  C 513.13 388.50 524.46 384.19 524.00 374.75
  C 523.82 371.10 520.84 365.45 516.53 364.78
  C 511.86 364.06 508.73 364.71 502.99 365.80
  A 1.80 1.78 52.8 0 1 501.86 365.64
  Q 499.84 364.62 500.02 362.02
  A 1.63 1.61 -22.5 0 1 500.42 361.07
  Q 502.79 358.40 506.78 359.05
  C 508.29 359.30 508.94 361.41 510.74 360.84
  Q 514.39 359.67 516.00 357.61
  A 0.79 0.78 -42.1 0 0 516.05 356.70
  Z
  M 369.71 392.75
  A 0.16 0.15 -76.1 0 0 369.92 392.62
  L 373.63 360.32
  A 1.24 1.23 14.8 0 0 372.88 359.04
  L 364.85 355.70
  A 2.36 2.35 -59.5 0 0 362.09 356.42
  Q 354.75 365.85 347.73 373.86
  Q 346.66 375.09 345.48 376.85
  Q 343.23 380.23 343.20 380.26
  A 1.00 1.00 0.0 0 0 343.41 381.97
  L 348.07 383.98
  A 2.78 2.77 -60.6 0 0 351.42 383.04
  L 353.84 379.67
  A 0.78 0.76 28.6 0 1 354.76 379.41
  L 362.51 382.64
  A 0.72 0.72 0.0 0 1 362.95 383.36
  L 362.57 388.78
  A 1.35 1.34 -76.7 0 0 363.39 390.12
  L 369.71 392.75
  Z
  M 480.77 381.58
  L 466.68 365.89
  A 3.22 3.21 61.6 0 0 463.45 364.92
  L 458.31 366.29
  A 0.69 0.68 83.3 0 0 457.80 366.94
  Q 457.78 369.03 458.12 370.06
  Q 462.83 384.68 466.02 398.79
  A 1.86 1.85 76.0 0 0 468.31 400.17
  L 473.88 398.69
  A 1.73 1.73 0.0 0 0 475.08 396.49
  L 469.71 379.61
  A 0.25 0.25 0.0 0 1 470.11 379.34
  C 471.34 380.39 471.78 381.77 473.05 382.82
  Q 479.44 388.12 484.32 395.35
  A 2.43 2.42 -24.3 0 0 486.95 396.34
  L 492.57 394.84
  A 1.21 1.21 0.0 0 0 493.42 393.34
  Q 492.99 391.86 492.66 391.09
  Q 488.50 381.39 487.25 375.76
  Q 486.13 370.72 483.37 362.06
  A 1.84 1.83 73.7 0 0 481.15 360.84
  L 476.06 362.19
  A 1.74 1.73 69.5 0 0 474.96 364.63
  Q 478.30 371.43 478.94 376.81
  A 4.01 3.86 -61.5 0 0 479.27 378.01
  L 480.88 381.52
  A 0.07 0.06 14.2 0 1 480.77 381.58
  Z
  M 387.25 371.35
  L 383.76 393.92
  A 2.16 2.16 0.0 0 0 385.43 396.36
  L 389.46 397.27
  A 2.04 2.04 0.0 0 0 391.92 395.59
  L 395.46 373.01
  A 0.82 0.81 -79.0 0 1 396.44 372.34
  L 404.36 374.11
  A 1.15 1.15 0.0 0 0 405.76 373.09
  L 406.24 367.93
  A 0.88 0.88 0.0 0 0 405.56 366.99
  L 384.09 362.18
  A 2.67 2.66 -75.4 0 0 380.95 364.03
  L 379.59 368.67
  A 1.33 1.32 -83.3 0 0 380.93 370.37
  Q 383.00 370.27 385.18 371.01
  A 0.89 0.88 32.3 0 0 386.09 370.81
  Q 386.31 370.60 386.37 370.58
  A 0.69 0.69 0.0 0 1 387.25 371.35
  Z
  M 412.94 367.24
  A 1.40 1.40 0.0 0 0 411.33 368.52
  L 409.17 398.73
  A 1.40 1.40 0.0 0 0 410.35 400.21
  L 415.93 401.09
  A 1.40 1.40 0.0 0 0 417.54 399.77
  L 418.98 369.45
  A 1.40 1.40 0.0 0 0 417.80 368.00
  L 412.94 367.24
  Z
  M 437.74 369.83
  C 433.19 370.43 428.28 370.89 427.21 375.22
  C 426.07 379.83 426.79 383.85 427.03 390.75
  C 427.16 394.72 428.80 400.55 432.83 402.18
  Q 438.09 404.31 443.73 403.70
  A 0.20 0.17 -49.7 0 0 443.79 403.69
  L 450.21 401.65
  A 4.83 4.81 1.1 0 0 453.27 398.72
  C 455.36 393.03 454.65 386.53 453.77 380.02
  Q 452.58 371.19 445.01 369.68
  Q 442.53 369.19 437.74 369.83
  Z"
/>
<path fill="#ffffff" d="
  M 476.59 55.65
  L 475.62 61.86
  A 1.94 1.93 8.9 0 1 473.40 63.47
  L 465.73 62.27
  A 1.36 1.36 0.0 0 0 464.18 63.40
  L 460.08 89.55
  A 1.27 1.26 8.8 0 1 458.63 90.60
  L 450.38 89.31
  A 1.40 1.40 0.0 0 1 449.22 87.70
  C 450.40 80.63 451.12 77.39 451.78 71.45
  Q 452.42 65.70 453.91 60.91
  A 0.44 0.44 0.0 0 0 453.51 60.34
  Q 448.67 60.13 443.09 58.33
  A 0.94 0.94 0.0 0 1 442.46 57.30
  L 443.46 50.90
  A 1.25 1.24 -81.7 0 1 444.85 49.86
  L 462.34 52.27
  A 1.16 1.11 -46.1 0 0 462.60 52.26
  Q 463.94 52.05 464.27 52.11
  Q 469.80 53.01 475.98 54.71
  A 0.84 0.83 12.3 0 1 476.59 55.65
  Z"
/>
<path fill="#ffffff" d="
  M 425.64 67.46
  Q 427.03 76.89 426.93 79.52
  Q 426.85 81.68 424.54 84.87
  Q 422.17 88.16 418.88 89.14
  Q 410.13 91.73 401.02 90.92
  C 397.04 90.57 394.44 84.73 393.66 81.06
  C 392.25 74.45 389.85 66.53 389.13 63.88
  A 3.18 2.98 -51.3 0 1 389.04 62.75
  Q 389.70 56.37 394.12 53.84
  C 401.65 49.52 418.63 46.39 423.20 57.47
  C 424.60 60.85 425.27 64.90 425.64 67.46
  Z
  M 409.18 59.72
  L 402.65 61.34
  A 3.14 3.14 0.0 0 0 400.36 65.14
  L 403.22 76.71
  A 5.54 3.75 76.1 0 0 408.19 81.19
  L 413.53 79.87
  A 5.54 3.75 76.1 0 0 415.84 73.59
  L 412.98 62.02
  A 3.14 3.14 0.0 0 0 409.18 59.72
  Z"
/>
<path fill="#8bd4f7" d="
  M 409.18 59.72
  A 3.14 3.14 0.0 0 1 412.98 62.02
  L 415.84 73.59
  A 5.54 3.75 76.1 0 1 413.53 79.87
  L 408.19 81.19
  A 5.54 3.75 76.1 0 1 403.22 76.71
  L 400.36 65.14
  A 3.14 3.14 0.0 0 1 402.65 61.34
  L 409.18 59.72
  Z"
/>
<path fill="#ffffff" d="
  M 496.69 92.58
  L 512.31 100.31
  A 1.86 1.85 -66.7 0 1 513.22 102.61
  L 511.14 108.31
  A 1.55 1.55 0.0 0 1 509.08 109.21
  L 482.93 98.32
  A 0.86 0.85 -67.8 0 1 482.47 97.21
  L 497.51 61.10
  A 0.93 0.93 0.0 0 1 498.69 60.58
  L 522.43 69.27
  A 2.61 2.61 0.0 0 1 523.93 72.75
  L 522.12 76.98
  A 2.95 2.94 -68.3 0 1 518.40 78.59
  L 505.27 73.78
  A 1.07 1.06 -69.8 0 0 503.91 74.41
  L 502.29 78.84
  A 0.58 0.57 20.2 0 0 502.64 79.58
  L 515.34 84.24
  A 0.83 0.82 -68.9 0 1 515.82 85.33
  L 512.98 92.16
  A 0.97 0.97 0.0 0 1 511.75 92.69
  L 498.57 87.86
  A 0.30 0.29 19.7 0 0 498.20 88.03
  L 496.61 92.38
  A 0.16 0.16 0.0 0 0 496.69 92.58
  Z"
/>
<path fill="#ffffff" d="
  M 359.26 63.75
  C 362.90 62.89 365.93 64.10 368.91 65.60
  A 4.26 4.24 2.9 0 1 370.98 67.88
  C 371.70 69.76 373.47 72.18 374.39 74.50
  Q 379.07 86.37 380.02 89.95
  C 382.96 101.09 364.78 104.74 358.01 105.07
  Q 352.55 105.33 349.70 100.50
  Q 342.28 87.93 340.75 78.77
  C 339.95 73.97 342.18 71.12 346.49 68.62
  Q 351.84 65.51 359.26 63.75
  Z
  M 368.74 90.10
  L 363.38 75.66
  A 2.57 2.57 0.0 0 0 361.23 74.00
  C 358.73 73.76 352.18 74.36 351.37 77.27
  C 351.04 78.47 351.94 79.82 352.74 81.31
  A 9.75 9.66 -68.4 0 1 353.46 83.00
  Q 355.26 88.73 358.31 93.59
  A 1.91 1.90 -17.3 0 0 360.01 94.48
  Q 364.64 94.29 368.13 91.97
  A 1.58 1.58 0.0 0 0 368.74 90.10
  Z"
/>
<path fill="#8bd4f7" d="
  M 368.74 90.10
  A 1.58 1.58 0.0 0 1 368.13 91.97
  Q 364.64 94.29 360.01 94.48
  A 1.91 1.90 -17.3 0 1 358.31 93.59
  Q 355.26 88.73 353.46 83.00
  A 9.75 9.66 -68.4 0 0 352.74 81.31
  C 351.94 79.82 351.04 78.47 351.37 77.27
  C 352.18 74.36 358.73 73.76 361.23 74.00
  A 2.57 2.57 0.0 0 1 363.38 75.66
  L 368.74 90.10
  Z"
/>
<path fill="#ffffff" d="
  M 523.44 118.11
  A 0.88 0.88 0.0 0 1 523.12 117.17
  Q 524.07 113.66 526.46 110.71
  C 531.26 104.80 535.46 98.89 543.41 87.83
  A 2.38 2.38 0.0 0 1 546.44 87.11
  C 552.39 90.21 564.48 96.50 566.57 103.45
  Q 568.61 110.25 564.50 115.22
  Q 556.01 125.51 555.67 125.92
  C 553.46 128.56 548.66 132.59 544.87 130.90
  Q 533.29 125.72 523.44 118.11
  Z
  M 537.32 115.64
  L 538.25 115.68
  A 0.90 0.89 -23.4 0 1 538.81 115.90
  Q 542.12 118.67 546.23 120.25
  A 0.58 0.56 32.2 0 0 546.85 120.12
  Q 552.57 114.39 555.79 107.61
  A 1.80 1.79 -49.0 0 0 555.67 105.86
  Q 553.07 101.92 548.84 100.10
  A 1.26 1.26 0.0 0 0 547.33 100.52
  L 536.99 114.95
  A 0.44 0.43 -70.8 0 0 537.32 115.64
  Z"
/>
<path fill="#ffffff" d="
  M 316.30 119.09
  Q 320.52 125.56 324.75 128.97
  A 1.27 1.27 0.0 0 1 324.81 130.88
  L 318.31 136.92
  A 1.98 1.97 49.3 0 1 315.42 136.70
  L 290.87 105.80
  A 1.71 1.71 0.0 0 1 291.14 103.40
  Q 298.84 97.23 305.46 92.97
  Q 311.27 89.24 317.67 91.17
  C 320.95 92.16 325.54 96.58 326.67 100.00
  Q 328.29 104.93 325.92 110.26
  A 0.20 0.20 0.0 0 0 326.10 110.54
  Q 328.49 110.51 331.24 111.56
  Q 335.06 113.03 340.80 115.82
  A 0.60 0.60 0.0 0 1 340.89 116.84
  L 335.59 120.75
  A 2.34 2.28 -65.9 0 1 334.48 121.19
  C 329.17 121.81 325.07 119.46 320.79 118.50
  A 1.99 1.98 -48.5 0 0 319.67 118.57
  Q 319.19 118.74 316.66 118.50
  A 0.39 0.38 -13.9 0 0 316.30 119.09
  Z
  M 304.76 106.70
  L 309.63 112.05
  A 0.85 0.85 0.0 0 0 310.83 112.11
  L 315.12 108.21
  A 4.21 3.37 -42.3 0 0 315.97 102.88
  L 314.49 101.25
  A 4.21 3.37 -42.3 0 0 309.10 101.59
  L 304.81 105.50
  A 0.85 0.85 0.0 0 0 304.76 106.70
  Z"
/>
<path fill="#8bd4f7" d="
  M 537.32 115.64
  A 0.44 0.43 -70.8 0 1 536.99 114.95
  L 547.33 100.52
  A 1.26 1.26 0.0 0 1 548.84 100.10
  Q 553.07 101.92 555.67 105.86
  A 1.80 1.79 -49.0 0 1 555.79 107.61
  Q 552.57 114.39 546.85 120.12
  A 0.58 0.56 32.2 0 1 546.23 120.25
  Q 542.12 118.67 538.81 115.90
  A 0.90 0.89 -23.4 0 0 538.25 115.68
  L 537.32 115.64
  Z"
/>
<path fill="#8bd4f7" d="
  M 304.76 106.70
  A 0.85 0.85 0.0 0 1 304.81 105.50
  L 309.10 101.59
  A 4.21 3.37 -42.3 0 1 314.49 101.25
  L 315.97 102.88
  A 4.21 3.37 -42.3 0 1 315.12 108.21
  L 310.83 112.11
  A 0.85 0.85 0.0 0 1 309.63 112.05
  L 304.76 106.70
  Z"
/>
<path fill="#ffffff" d="
  M 439.16 178.45
  L 440.96 176.47
  A 1.07 0.99 2.4 0 1 441.09 176.36
  Q 454.10 167.27 464.64 158.20
  A 0.70 0.70 0.0 0 1 465.79 158.85
  L 465.40 160.92
  A 3.26 3.13 -43.8 0 0 465.36 161.86
  Q 466.15 170.94 465.85 175.22
  C 465.63 178.21 459.65 182.05 457.72 183.45
  Q 442.14 194.78 432.20 203.14
  A 1.41 1.41 0.0 0 1 430.41 203.17
  L 397.98 177.55
  A 1.80 1.79 18.9 0 1 397.28 176.13
  L 397.28 159.36
  A 1.43 1.43 0.0 0 1 399.62 158.26
  L 423.45 178.14
  A 0.40 0.40 0.0 0 0 424.11 177.83
  L 424.11 164.90
  A 1.97 1.93 19.7 0 0 423.37 163.38
  L 397.99 143.34
  A 2.44 2.43 -70.9 0 1 397.07 141.43
  L 397.07 121.84
  A 1.06 1.06 0.0 0 1 398.83 121.04
  C 400.39 122.43 399.61 124.56 401.15 125.67
  Q 402.63 126.74 409.82 131.93
  Q 413.14 134.33 415.48 137.76
  Q 416.84 139.74 421.10 143.09
  A 2.70 2.65 -89.5 0 1 421.67 143.68
  L 422.89 145.34
  A 0.62 0.61 -74.4 0 0 423.95 144.74
  Q 423.35 143.25 423.50 142.03
  Q 423.61 141.17 423.60 139.99
  Q 423.55 130.60 423.10 119.11
  A 1.09 1.08 -1.3 0 1 424.19 117.98
  L 438.28 117.98
  A 0.77 0.77 0.0 0 1 439.05 118.75
  L 439.05 142.87
  A 0.18 0.17 -22.8 0 0 439.35 142.99
  Q 444.26 138.15 449.98 134.46
  Q 451.00 133.80 453.62 131.51
  A 1.30 0.65 -61.1 0 1 453.74 131.42
  L 463.81 124.80
  A 0.82 0.81 73.5 0 1 465.07 125.49
  L 465.07 142.15
  A 2.19 2.17 72.1 0 1 464.18 143.91
  Q 455.45 150.30 441.11 161.54
  C 440.20 162.25 438.76 162.16 438.42 163.37
  A 0.88 0.77 -41.1 0 0 438.39 163.59
  L 438.54 178.22
  A 0.36 0.35 -24.2 0 0 439.16 178.45
  Z"
/>
<path fill="#ffffff" d="
  M 366.49 255.87
  A 0.29 0.29 0.0 0 1 366.25 255.41
  C 373.53 245.07 377.77 238.97 384.39 231.68
  A 0.18 0.18 0.0 0 0 384.25 231.38
  L 369.59 231.38
  A 1.58 1.58 0.0 0 0 368.24 232.14
  Q 361.49 243.45 351.58 255.06
  A 1.75 1.74 20.3 0 1 350.26 255.66
  L 331.99 255.66
  A 0.19 0.19 0.0 0 1 331.80 255.45
  L 331.82 255.20
  A 0.51 0.51 0.0 0 1 331.94 254.90
  L 346.30 236.69
  A 1.11 0.61 -29.0 0 0 346.40 236.53
  Q 347.85 234.05 349.53 232.60
  A 0.75 0.74 -65.3 0 0 349.05 231.29
  L 330.06 231.29
  A 1.03 1.03 0.0 0 1 329.03 230.26
  L 329.03 215.87
  A 0.34 0.34 0.0 0 1 329.37 215.53
  L 351.27 215.53
  A 0.23 0.23 0.0 0 0 351.45 215.15
  Q 342.07 203.70 334.06 191.33
  A 0.97 0.97 0.0 0 1 334.87 189.83
  L 350.90 189.83
  A 0.71 0.70 -17.8 0 1 351.47 190.12
  L 369.85 215.34
  A 0.67 0.65 70.7 0 0 370.37 215.60
  L 383.49 215.60
  A 0.61 0.60 -18.0 0 0 383.98 214.64
  L 366.84 191.13
  A 0.80 0.79 71.9 0 1 367.47 189.87
  L 382.50 189.87
  A 2.83 2.81 71.2 0 1 384.74 190.98
  Q 396.20 206.03 400.02 210.79
  C 402.55 213.94 405.93 217.38 408.69 220.87
  A 0.79 0.78 42.1 0 1 408.74 221.78
  C 407.06 224.37 405.17 227.62 403.51 229.88
  Q 395.84 240.35 385.94 254.42
  Q 385.02 255.72 382.74 255.76
  Q 375.94 255.87 366.49 255.87
  Z"
/>
<path fill="#ffffff" d="
  M 530.09 254.46
  A 0.79 0.79 0.0 0 1 529.51 255.79
  L 513.06 255.79
  A 1.51 1.50 -19.0 0 1 511.88 255.22
  C 504.78 246.07 500.25 240.53 495.49 232.51
  A 2.44 2.41 74.4 0 0 493.41 231.32
  L 479.87 231.32
  A 0.29 0.29 0.0 0 0 479.63 231.78
  Q 488.15 243.98 494.53 252.39
  C 495.46 253.61 496.50 254.02 497.23 255.00
  A 0.56 0.56 0.0 0 1 496.78 255.89
  L 478.38 255.76
  A 1.63 1.63 0.0 0 1 476.92 254.86
  Q 476.67 254.37 472.15 247.86
  Q 469.48 244.01 467.00 241.05
  Q 458.72 231.17 453.69 222.85
  A 1.32 1.32 0.0 0 1 453.88 221.24
  Q 456.82 218.27 460.19 213.70
  C 467.31 204.07 472.46 197.77 476.94 190.67
  A 1.94 1.93 16.3 0 1 478.57 189.78
  L 495.22 189.78
  A 0.59 0.59 0.0 0 1 495.72 190.69
  Q 487.62 203.17 478.09 215.03
  A 0.36 0.36 0.0 0 0 478.37 215.62
  L 492.22 215.62
  A 2.29 2.28 -74.2 0 0 494.17 214.52
  C 497.21 209.48 500.46 204.13 504.67 198.82
  Q 507.58 195.13 510.48 191.10
  A 3.08 3.07 17.8 0 1 512.98 189.82
  L 527.48 189.82
  A 0.76 0.76 0.0 0 1 528.18 190.89
  Q 527.18 193.18 525.12 196.12
  Q 521.65 201.05 512.73 213.26
  Q 512.23 213.94 511.34 214.70
  A 0.48 0.47 -64.9 0 0 511.64 215.54
  L 532.22 215.54
  A 0.91 0.90 0.0 0 1 533.13 216.44
  L 533.13 230.38
  A 0.78 0.77 -0.0 0 1 532.35 231.15
  L 516.59 231.15
  A 1.68 1.44 -49.3 0 0 516.13 231.22
  Q 514.54 231.65 513.06 231.13
  A 0.43 0.43 0.0 0 0 512.48 231.58
  Q 512.52 231.91 513.14 232.29
  Q 513.64 232.59 513.82 232.85
  Q 514.96 234.49 523.20 245.35
  C 525.38 248.23 527.34 251.44 530.09 254.46
  Z"
/>
<path fill="#ffffff" d="
  M 264.02 211.41
  C 263.15 208.96 259.47 208.79 257.26 209.02
  A 2.06 2.06 0.0 0 0 256.16 212.66
  L 257.20 213.53
  A 1.21 1.19 70.2 0 0 257.72 213.78
  Q 260.64 214.41 265.31 216.03
  Q 270.34 217.76 272.07 222.42
  Q 273.42 226.03 272.06 229.04
  C 270.60 232.28 269.47 234.19 266.11 235.65
  C 258.92 238.76 249.10 236.92 245.84 229.00
  A 1.09 1.09 0.0 0 1 246.54 227.54
  L 252.61 225.75
  A 1.49 1.47 65.5 0 1 254.27 226.38
  L 255.77 228.75
  A 0.95 0.86 88.3 0 0 256.05 229.04
  Q 259.05 231.04 261.99 229.08
  C 264.19 227.63 263.70 224.15 261.14 223.38
  Q 255.28 221.64 254.48 221.32
  Q 243.33 216.88 248.70 205.92
  A 3.51 3.33 84.1 0 1 249.53 204.84
  Q 253.57 201.36 261.05 201.81
  Q 267.80 202.21 271.10 208.73
  A 0.70 0.70 0.0 0 1 270.72 209.70
  L 264.95 211.84
  A 0.72 0.72 0.0 0 1 264.02 211.41
  Z"
/>
<path fill="#ffffff" d="
  M 599.46 226.67
  A 0.29 0.28 43.2 0 0 598.96 226.68
  L 594.97 234.74
  A 2.93 2.92 -75.5 0 1 592.21 236.37
  L 585.57 236.05
  A 0.90 0.90 0.0 0 1 584.85 234.68
  L 593.84 220.19
  A 3.15 3.13 -44.3 0 0 593.89 216.95
  L 585.98 203.24
  A 0.97 0.97 0.0 0 1 586.86 201.78
  L 594.05 202.12
  A 0.93 0.93 0.0 0 1 594.80 202.58
  L 600.36 212.21
  A 0.20 0.20 0.0 0 0 600.72 212.20
  L 604.82 203.92
  A 3.69 3.67 -75.4 0 1 608.28 201.88
  L 613.03 202.11
  A 1.28 1.27 -72.7 0 1 614.05 204.06
  L 604.74 219.05
  A 1.27 1.26 -45.5 0 0 604.75 220.40
  L 614.01 235.05
  A 0.87 0.86 75.2 0 1 613.24 236.38
  L 605.95 236.04
  A 2.05 2.03 76.1 0 1 604.28 235.02
  L 599.46 226.67
  Z"
/>
<path fill="#ffffff" d="
  M 305.30 234.55
  A 1.11 1.11 0.0 0 1 304.29 236.00
  L 298.70 236.26
  A 1.85 1.84 79.8 0 1 296.85 234.97
  L 294.77 228.44
  A 0.64 0.63 79.7 0 0 294.14 228.00
  L 286.96 228.34
  A 0.64 0.63 8.1 0 0 286.39 228.76
  L 283.99 235.31
  A 1.18 1.17 8.9 0 1 282.93 236.08
  L 276.76 236.37
  A 0.78 0.77 5.8 0 1 275.97 235.41
  Q 280.30 218.74 286.47 203.26
  A 1.80 1.78 -80.3 0 1 288.05 202.13
  L 294.02 201.85
  A 1.12 1.12 0.0 0 1 295.14 202.63
  L 305.30 234.55
  Z
  M 290.55 221.05
  Q 291.48 221.01 292.90 221.03
  A 0.31 0.31 0.0 0 0 293.20 220.63
  L 290.59 211.94
  A 0.26 0.23 -80.8 0 0 290.49 211.79
  Q 290.37 211.69 290.21 211.69
  Q 290.05 211.70 289.93 211.81
  A 0.26 0.23 76.6 0 0 289.84 211.97
  L 287.87 220.82
  A 0.31 0.31 0.0 0 0 288.20 221.20
  Q 289.62 221.08 290.55 221.05
  Z"
/>
<path fill="#ffffff" d="
  M 572.81 202.01
  Q 578.37 201.90 583.83 201.93
  A 0.70 0.70 0.0 0 1 584.53 202.63
  L 584.53 208.22
  A 0.82 0.81 -90.0 0 1 583.72 209.04
  L 577.09 209.04
  A 0.35 0.35 0.0 0 0 576.74 209.39
  L 576.74 235.58
  A 0.41 0.41 0.0 0 1 576.33 235.99
  Q 575.86 236.00 572.91 236.01
  Q 569.95 236.01 569.48 236.01
  A 0.41 0.41 0.0 0 1 569.07 235.60
  L 568.93 209.41
  A 0.35 0.35 0.0 0 0 568.57 209.06
  L 561.94 209.10
  A 0.82 0.81 89.7 0 1 561.13 208.29
  L 561.10 202.70
  A 0.70 0.70 0.0 0 1 561.79 201.99
  Q 567.25 201.93 572.81 202.01
  Z"
/>
<path fill="#ffffff" d="
  M 431.53 205.53
  A 0.49 0.49 0.0 0 1 432.32 205.50
  C 434.63 208.44 435.60 212.29 436.89 216.36
  A 0.67 0.65 79.0 0 0 437.55 216.82
  L 451.42 216.18
  A 0.41 0.41 0.0 0 1 451.76 216.85
  Q 446.96 222.64 441.09 225.67
  A 0.71 0.70 68.8 0 0 440.74 226.47
  L 443.47 236.74
  A 1.01 1.01 0.0 0 1 442.09 237.92
  Q 437.90 236.05 433.39 232.60
  Q 431.47 231.14 429.66 232.63
  Q 425.11 236.40 422.19 237.96
  A 1.05 1.04 -6.0 0 1 420.69 236.75
  L 423.28 227.94
  A 1.92 1.90 27.1 0 0 422.61 225.90
  C 419.06 223.18 418.08 222.20 415.20 220.33
  Q 413.01 218.92 412.21 217.29
  A 0.52 0.52 0.0 0 1 412.80 216.56
  Q 413.76 216.79 420.82 216.61
  C 422.32 216.57 424.39 217.07 426.16 216.25
  A 1.20 1.20 0.0 0 0 426.79 215.59
  L 429.46 208.67
  A 3.38 3.06 75.9 0 1 429.78 208.07
  L 431.53 205.53
  Z"
/>
<path fill="#8bd4f7" d="
  M 290.21 211.69
  Q 290.37 211.69 290.49 211.79
  A 0.26 0.23 -80.8 0 1 290.59 211.94
  L 293.20 220.63
  A 0.31 0.31 0.0 0 1 292.90 221.03
  Q 291.48 221.01 290.55 221.05
  Q 289.62 221.08 288.20 221.20
  A 0.31 0.31 0.0 0 1 287.87 220.82
  L 289.84 211.97
  A 0.26 0.23 76.6 0 1 289.93 211.81
  Q 290.05 211.70 290.21 211.69
  Z"
/>
<path fill="#ffffff" d="
  M 423.63 271.66
  L 397.80 290.49
  A 0.32 0.32 0.0 0 1 397.32 290.37
  Q 397.12 289.94 397.10 289.51
  Q 396.95 286.47 396.98 275.99
  C 396.99 273.39 397.63 272.55 399.79 270.88
  Q 421.22 254.31 429.85 246.34
  Q 432.04 244.32 434.01 245.92
  Q 446.60 256.17 465.52 271.99
  A 3.21 3.21 0.0 0 1 466.68 274.35
  L 467.18 289.43
  A 1.72 1.63 57.5 0 1 467.04 290.15
  Q 466.90 290.46 466.90 290.47
  A 1.41 1.41 0.0 0 1 464.79 290.86
  L 440.20 271.00
  A 0.63 0.63 0.0 0 0 439.18 271.57
  Q 440.07 278.39 440.15 284.86
  Q 440.17 286.29 442.31 287.99
  Q 455.77 298.67 466.77 308.70
  C 468.23 310.03 468.01 311.61 468.08 313.46
  Q 468.28 319.52 468.04 326.24
  A 0.69 0.69 0.0 0 1 466.97 326.79
  Q 455.31 319.24 443.33 308.46
  C 442.12 307.37 440.31 306.42 439.67 304.51
  A 0.37 0.37 0.0 0 0 438.95 304.62
  Q 438.93 305.89 439.50 307.17
  A 1.85 1.83 -54.7 0 1 439.65 308.07
  Q 439.25 312.29 439.51 315.34
  C 440.00 321.02 439.81 323.66 440.10 328.95
  A 0.74 0.73 88.5 0 1 439.37 329.73
  L 425.55 329.73
  A 1.11 1.10 -82.2 0 1 424.49 328.32
  Q 424.98 326.57 424.91 324.99
  Q 424.46 315.86 424.91 306.77
  A 0.87 0.87 0.0 0 0 423.34 306.20
  L 422.14 307.77
  A 0.16 0.08 -63.4 0 1 422.10 307.80
  Q 411.37 314.77 400.39 324.88
  Q 400.25 325.01 398.45 326.07
  A 0.92 0.91 74.7 0 1 397.07 325.28
  L 397.06 309.11
  A 4.28 4.26 -15.7 0 1 399.12 305.46
  Q 411.77 297.80 421.03 289.08
  Q 422.36 287.83 423.78 286.96
  A 2.04 2.03 74.7 0 0 424.77 285.21
  L 424.77 272.24
  A 0.72 0.72 0.0 0 0 423.63 271.66
  Z"
/>
<path fill="#ffffff" d="
  M 298.27 312.17
  Q 297.96 311.31 298.66 310.57
  Q 299.79 309.37 298.34 307.18
  Q 296.85 304.95 293.90 304.17
  C 292.12 303.70 289.87 305.70 288.50 306.28
  C 285.03 307.77 282.27 311.44 281.26 314.89
  A 2.38 2.37 37.8 0 0 281.50 316.75
  Q 282.93 319.16 285.81 320.84
  A 1.01 0.99 42.9 0 0 286.86 320.81
  L 287.81 320.16
  A 0.98 0.97 -47.1 0 1 288.81 320.12
  Q 290.22 320.88 292.15 321.04
  A 1.59 1.58 70.7 0 1 293.18 321.54
  Q 294.44 322.85 294.43 324.27
  A 3.37 2.64 -7.3 0 1 291.74 327.00
  Q 290.00 327.37 288.38 328.51
  A 1.79 1.71 23.7 0 1 287.50 328.83
  C 282.24 329.32 277.06 325.79 274.29 321.79
  A 4.02 3.78 -72.6 0 1 273.77 320.72
  C 270.94 311.63 274.66 305.01 282.18 300.36
  C 287.70 296.93 292.24 293.66 298.16 296.52
  C 304.88 299.76 308.72 306.45 306.03 313.68
  A 2.64 2.48 -74.0 0 1 303.20 315.37
  C 301.19 314.98 298.99 314.21 298.27 312.17
  Z"
/>
<path fill="#ffffff" d="
  M 552.16 311.93
  Q 552.35 310.22 554.80 305.95
  A 3.43 3.39 86.8 0 1 555.71 304.92
  L 560.95 301.01
  A 2.60 2.01 7.2 0 1 561.39 300.75
  C 563.81 299.67 569.19 298.15 571.79 299.45
  Q 580.22 303.66 586.84 311.99
  Q 589.27 315.05 589.37 318.26
  Q 589.59 325.85 584.32 330.07
  Q 579.25 334.14 573.02 333.76
  C 570.16 333.59 567.64 331.51 565.25 329.79
  C 559.42 325.58 551.38 319.16 552.16 311.93
  Z
  M 564.96 308.26
  L 561.71 312.27
  A 2.28 2.28 0.0 0 0 562.05 315.48
  L 570.70 322.48
  A 6.75 3.70 39.0 0 0 578.27 323.86
  L 579.73 322.05
  A 6.75 3.70 39.0 0 0 576.82 314.93
  L 568.17 307.92
  A 2.28 2.28 0.0 0 0 564.96 308.26
  Z"
/>
<path fill="#8bd4f7" d="
  M 564.96 308.26
  A 2.28 2.28 0.0 0 1 568.17 307.92
  L 576.82 314.93
  A 6.75 3.70 39.0 0 1 579.73 322.05
  L 578.27 323.86
  A 6.75 3.70 39.0 0 1 570.70 322.48
  L 562.05 315.48
  A 2.28 2.28 0.0 0 1 561.71 312.27
  L 564.96 308.26
  Z"
/>
<path fill="#ffffff" d="
  M 302.91 337.81
  L 296.66 344.65
  A 1.14 1.14 0.0 0 1 295.05 344.72
  L 291.39 341.37
  A 1.60 1.60 0.0 0 1 291.21 339.20
  Q 295.10 334.27 298.87 330.85
  Q 304.09 326.12 306.03 324.06
  Q 310.81 319.01 313.07 317.10
  A 0.77 0.76 38.8 0 1 313.94 317.01
  Q 318.14 319.36 319.03 320.23
  C 323.57 324.70 326.00 326.98 327.94 332.02
  A 4.05 3.67 -60.7 0 1 328.16 332.98
  C 328.82 340.69 321.03 344.93 314.11 344.04
  A 0.78 0.76 2.6 0 0 313.24 344.82
  Q 313.43 351.58 308.51 357.27
  A 1.14 1.14 0.0 0 1 307.55 357.66
  C 303.54 357.26 304.30 354.30 303.41 351.54
  A 2.59 2.57 -44.8 0 1 303.42 349.90
  Q 304.32 347.24 305.51 344.12
  C 306.79 340.78 306.63 340.25 303.87 337.76
  A 0.69 0.68 -47.7 0 0 302.91 337.81
  Z
  M 313.89 327.81
  L 309.75 331.96
  A 1.63 1.63 0.0 0 0 309.76 334.26
  L 311.27 335.77
  A 4.68 4.21 44.9 0 0 317.55 336.09
  L 318.05 335.59
  A 4.68 4.21 44.9 0 0 317.70 329.31
  L 316.19 327.80
  A 1.63 1.63 0.0 0 0 313.89 327.81
  Z"
/>
<path fill="#ffffff" d="
  M 550.63 332.95
  A 1.56 1.55 -67.8 0 1 549.12 333.59
  Q 545.50 333.01 541.67 333.98
  A 2.92 2.81 19.5 0 0 540.70 334.42
  C 538.04 336.32 539.02 338.71 540.73 341.24
  Q 544.96 347.48 546.88 350.14
  A 1.46 1.44 64.3 0 0 548.43 350.69
  L 551.89 349.77
  A 2.60 2.59 88.4 0 0 553.77 347.77
  L 555.03 341.47
  A 1.06 1.05 41.2 0 0 554.99 340.90
  Q 554.65 339.89 554.82 339.42
  A 0.79 0.79 0.0 0 1 555.76 338.94
  Q 558.57 339.66 562.01 339.15
  A 1.02 1.01 -88.7 0 1 563.15 340.35
  Q 562.81 342.07 563.27 343.55
  Q 563.86 345.45 563.61 346.59
  Q 562.56 351.50 561.69 352.62
  Q 555.17 360.93 544.33 358.81
  A 2.76 2.55 -22.9 0 1 543.58 358.54
  Q 538.52 355.82 535.10 350.38
  Q 531.63 344.87 529.65 341.37
  Q 528.77 339.82 529.07 337.53
  C 530.01 330.22 534.58 325.69 541.89 324.97
  C 545.29 324.64 549.77 324.50 552.79 326.85
  A 1.74 1.73 10.6 0 1 553.39 327.72
  Q 553.76 328.92 553.21 330.48
  C 552.92 331.28 551.28 332.04 550.63 332.95
  Z"
/>
<path fill="#8bd4f7" d="
  M 313.89 327.81
  A 1.63 1.63 0.0 0 1 316.19 327.80
  L 317.70 329.31
  A 4.68 4.21 44.9 0 1 318.05 335.59
  L 317.55 336.09
  A 4.68 4.21 44.9 0 1 311.27 335.77
  L 309.76 334.26
  A 1.63 1.63 0.0 0 1 309.75 331.96
  L 313.89 327.81
  Z"
/>
<path fill="#ffffff" d="
  M 328.62 363.54
  L 338.06 370.31
  A 0.39 0.38 -62.7 0 1 338.20 370.77
  L 336.57 375.24
  A 1.60 1.60 0.0 0 1 334.22 376.05
  L 317.88 365.91
  A 1.49 1.49 0.0 0 1 317.46 363.77
  L 334.95 339.36
  A 2.46 2.46 0.0 0 1 338.38 338.79
  L 352.29 348.75
  A 2.48 2.48 0.0 0 1 352.95 352.07
  L 352.04 353.52
  A 2.85 2.84 33.7 0 1 347.96 354.33
  L 339.38 348.18
  A 0.36 0.35 -56.1 0 0 338.88 348.28
  L 336.37 352.32
  A 0.40 0.40 0.0 0 0 336.48 352.85
  L 343.47 357.86
  A 1.05 1.04 -54.6 0 1 343.71 359.31
  L 340.73 363.46
  A 1.43 1.43 0.0 0 1 338.73 363.79
  L 332.22 359.13
  A 0.93 0.92 -54.4 0 0 330.93 359.35
  L 328.49 362.75
  A 0.57 0.57 0.0 0 0 328.62 363.54
  Z"
/>
<path fill="#ffffff" d="
  M 516.00 357.61
  Q 514.39 359.67 510.74 360.84
  C 508.94 361.41 508.29 359.30 506.78 359.05
  Q 502.79 358.40 500.42 361.07
  A 1.63 1.61 -22.5 0 0 500.02 362.02
  Q 499.84 364.62 501.86 365.64
  A 1.80 1.78 52.8 0 0 502.99 365.80
  C 508.73 364.71 511.86 364.06 516.53 364.78
  C 520.84 365.45 523.82 371.10 524.00 374.75
  C 524.46 384.19 513.13 388.50 505.30 387.95
  C 503.22 387.81 500.27 384.45 498.48 382.41
  A 0.69 0.69 0.0 0 1 498.52 381.47
  Q 501.94 378.08 505.76 379.09
  C 509.57 380.10 512.90 380.37 514.74 376.27
  A 2.09 2.08 -62.0 0 0 513.94 373.65
  Q 511.75 372.29 509.28 372.21
  C 507.06 372.13 504.59 373.14 502.29 373.14
  Q 492.98 373.14 491.10 364.69
  C 489.79 358.83 497.00 353.23 501.89 351.73
  Q 511.18 348.88 516.05 356.70
  A 0.79 0.78 -42.1 0 1 516.00 357.61
  Z"
/>
<path fill="#ffffff" d="
  M 369.71 392.75
  L 363.39 390.12
  A 1.35 1.34 -76.7 0 1 362.57 388.78
  L 362.95 383.36
  A 0.72 0.72 0.0 0 0 362.51 382.64
  L 354.76 379.41
  A 0.78 0.76 28.6 0 0 353.84 379.67
  L 351.42 383.04
  A 2.78 2.77 -60.6 0 1 348.07 383.98
  L 343.41 381.97
  A 1.00 1.00 0.0 0 1 343.20 380.26
  Q 343.23 380.23 345.48 376.85
  Q 346.66 375.09 347.73 373.86
  Q 354.75 365.85 362.09 356.42
  A 2.36 2.35 -59.5 0 1 364.85 355.70
  L 372.88 359.04
  A 1.24 1.23 14.8 0 1 373.63 360.32
  L 369.92 392.62
  A 0.16 0.15 -76.1 0 1 369.71 392.75
  Z
  M 366.31 364.59
  A 0.36 0.36 0.0 0 0 365.67 364.34
  L 358.52 373.39
  A 0.30 0.30 0.0 0 0 358.67 373.86
  L 364.91 375.69
  A 0.30 0.30 0.0 0 0 365.30 375.43
  L 366.31 364.59
  Z"
/>
<path fill="#ffffff" d="
  M 480.88 381.52
  L 479.27 378.01
  A 4.01 3.86 -61.5 0 1 478.94 376.81
  Q 478.30 371.43 474.96 364.63
  A 1.74 1.73 69.5 0 1 476.06 362.19
  L 481.15 360.84
  A 1.84 1.83 73.7 0 1 483.37 362.06
  Q 486.13 370.72 487.25 375.76
  Q 488.50 381.39 492.66 391.09
  Q 492.99 391.86 493.42 393.34
  A 1.21 1.21 0.0 0 1 492.57 394.84
  L 486.95 396.34
  A 2.43 2.42 -24.3 0 1 484.32 395.35
  Q 479.44 388.12 473.05 382.82
  C 471.78 381.77 471.34 380.39 470.11 379.34
  A 0.25 0.25 0.0 0 0 469.71 379.61
  L 475.08 396.49
  A 1.73 1.73 0.0 0 1 473.88 398.69
  L 468.31 400.17
  A 1.86 1.85 76.0 0 1 466.02 398.79
  Q 462.83 384.68 458.12 370.06
  Q 457.78 369.03 457.80 366.94
  A 0.69 0.68 83.3 0 1 458.31 366.29
  L 463.45 364.92
  A 3.22 3.21 61.6 0 1 466.68 365.89
  L 480.77 381.58
  A 0.07 0.06 14.2 0 0 480.88 381.52
  Z"
/>
<path fill="#ffffff" d="
  M 387.25 371.35
  A 0.69 0.69 0.0 0 0 386.37 370.58
  Q 386.31 370.60 386.09 370.81
  A 0.89 0.88 32.3 0 1 385.18 371.01
  Q 383.00 370.27 380.93 370.37
  A 1.33 1.32 -83.3 0 1 379.59 368.67
  L 380.95 364.03
  A 2.67 2.66 -75.4 0 1 384.09 362.18
  L 405.56 366.99
  A 0.88 0.88 0.0 0 1 406.24 367.93
  L 405.76 373.09
  A 1.15 1.15 0.0 0 1 404.36 374.11
  L 396.44 372.34
  A 0.82 0.81 -79.0 0 0 395.46 373.01
  L 391.92 395.59
  A 2.04 2.04 0.0 0 1 389.46 397.27
  L 385.43 396.36
  A 2.16 2.16 0.0 0 1 383.76 393.92
  L 387.25 371.35
  Z"
/>
<path fill="#8bd4f7" d="
  M 366.31 364.59
  L 365.30 375.43
  A 0.30 0.30 0.0 0 1 364.91 375.69
  L 358.67 373.86
  A 0.30 0.30 0.0 0 1 358.52 373.39
  L 365.67 364.34
  A 0.36 0.36 0.0 0 1 366.31 364.59
  Z"
/>
<path fill="#ffffff" d="
  M 412.94 367.24
  L 417.80 368.00
  A 1.40 1.40 0.0 0 1 418.98 369.45
  L 417.54 399.77
  A 1.40 1.40 0.0 0 1 415.93 401.09
  L 410.35 400.21
  A 1.40 1.40 0.0 0 1 409.17 398.73
  L 411.33 368.52
  A 1.40 1.40 0.0 0 1 412.94 367.24
  Z"
/>
<path fill="#ffffff" d="
  M 445.01 369.68
  Q 452.58 371.19 453.77 380.02
  C 454.65 386.53 455.36 393.03 453.27 398.72
  A 4.83 4.81 1.1 0 1 450.21 401.65
  L 443.79 403.69
  A 0.20 0.17 -49.7 0 1 443.73 403.70
  Q 438.09 404.31 432.83 402.18
  C 428.80 400.55 427.16 394.72 427.03 390.75
  C 426.79 383.85 426.07 379.83 427.21 375.22
  C 428.28 370.89 433.19 370.43 437.74 369.83
  Q 442.53 369.19 445.01 369.68
  Z
  M 445.9536 380.7335
  A 4.37 4.37 0.0 0 0 441.4045 376.5503
  L 439.1065 376.6466
  A 4.37 4.37 0.0 0 0 434.9233 381.1958
  L 435.3664 391.7665
  A 4.37 4.37 0.0 0 0 439.9155 395.9497
  L 442.2135 395.8534
  A 4.37 4.37 0.0 0 0 446.3967 391.3042
  L 445.9536 380.7335
  Z"
/>
</g>
</svg>
